{
.appVersion = "3309";
.formatVersion = 3;
axes = (
{
name = Weight;
tag = wght;
}
);
customParameters = (
{
name = panose;
value = (
3,
5,
9,
2,
4,
3,
2,
0,
0,
4
);
},
{
name = fsType;
value = (
);
},
{
name = "Use Typo Metrics";
value = 1;
},
{
name = "Enforce Compatibility Check";
value = 0;
}
);
date = "2013-08-22 21:28:00 +0000";
familyName = "Life Savers";
featurePrefixes = (
{
automatic = 1;
code = "languagesystem DFLT dflt;

languagesystem latn dflt;
languagesystem latn AZE;
languagesystem latn CRT;
languagesystem latn KAZ;
languagesystem latn TAT;
languagesystem latn TRK;
languagesystem latn ROM;
languagesystem latn MOL;
languagesystem latn CAT;
";
name = Languagesystems;
}
);
features = (
{
automatic = 1;
code = "feature locl;
feature subs;
feature sinf;
feature sups;
feature frac;
feature ordn;
feature salt;
feature ss01;
feature numr;
feature dnom;
feature case;
";
tag = aalt;
},
{
automatic = 1;
code = "script latn;
language AZE;
lookup locl_latn_0 {
	sub i by idotaccent;
} locl_latn_0;
language CRT;
lookup locl_latn_0;
language KAZ;
lookup locl_latn_0;
language TAT;
lookup locl_latn_0;
language TRK;
lookup locl_latn_0;

script latn;
language ROM;
lookup locl_latn_1 {
	sub Scedilla by Scommaaccent;
	sub scedilla by scommaaccent;
	sub Tcedilla by Tcommaaccent;
	sub tcedilla by tcommaaccent;
} locl_latn_1;
language MOL;
lookup locl_latn_1;

script latn;
language CAT;
lookup locl_latn_2 {
	sub l periodcentered' l by periodcentered.loclCAT;
	sub L periodcentered' L by periodcentered.loclCAT.case;
} locl_latn_2;
";
tag = locl;
},
{
automatic = 1;
code = "sub zero by zeroinferior;
sub one by oneinferior;
sub two by twoinferior;
sub three by threeinferior;
sub four by fourinferior;
sub five by fiveinferior;
sub six by sixinferior;
sub seven by seveninferior;
sub eight by eightinferior;
sub nine by nineinferior;
";
tag = subs;
},
{
automatic = 1;
code = "sub zero by zeroinferior;
sub one by oneinferior;
sub two by twoinferior;
sub three by threeinferior;

glyphs = (
{
glyphname = A;
kernLeft = Aacute;
kernRight = Aacute;
lastChange = "2024-06-14 08:59:27 +0000";
layers = (
{
layerId = m01;
shapes = (
{
closed = 1;
nodes = (
(742,-55,ls),
(765,-55,o),
(777,-49,o),
(777,-25,cs),
(777,-2,o),
(752,3,o),
(733,3,cs),
(648,3,o),
(619,8,o),
(613,35,cs),
(410,793,l),
(410,793,l),
(402,824,o),
(387,838,o),
(359,838,cs),
(324,838,o),
(314,823,o),
(305,792,cs),
(285,726,o),
(251,598,o),
(213,460,cs),
(175,324,o),
(134,181,o),
(107,101,cs),
(98,74,o),
(82,66,o),
(58,63,cs),
(54,63,o),
(36,57,o),
(1,57,cs),
(-12,57,o),
(-28,47,o),
(-28,30,cs),
(-28,11,o),
(-17,0,o),
(-5,0,cs),
(273,0,ls),
(300,0,o),
(307,14,o),
(307,29,cs),
(307,53,o),
(295,61,o),
(274,61,cs),
(251,61,o),
(233,62,o),
(221,65,cs),
(208,68,o),
(202,72,o),
(202,77,cs),
(202,98,o),
(219,168,o),
(238,214,c),
(470,214,l),
(468,222,o),
(517,59,o),
(517,35,cs),
(517,-16,o),
(464,5,o),
(464,-33,cs),
(464,-44,o),
(471,-55,o),
(495,-55,cs)
);
},
{
closed = 1;
nodes = (
(304,296,o),
(314,298,o),
(262,298,c),
(284,379,o),
(315,510,o),
(362,691,c),
(385,566,o),
(421,414,o),
(453,298,c),
(420,298,o),
(415,296,o),
(358,296,cs)
);
}
);
userData = {
assembly = "PUSHB[ ]	/* 6 values pushed */
69 1 8 7 1 66
MPPEM[ ]	/* MeasurePixelPerEm */
PUSHB[ ]	/* 1 value pushed */
45
LT[ ]	/* LessThan */
IF[ ]	/* If */
NPUSHB[ ]	/* 33 values pushed */
0 8 0 2 3 8 2 90 0 0 0 1 0 1 87 0 7 7 20 67 6 5 2 3 3 4 83 0 4 4 13 4 68
ELSE[ ]	/* Else */
NPUSHB[ ]	/* 33 values pushed */
0 7 8 7 106 0 8 0 2 3 8 2 90 0 0 0 1 0 1 87 6 5 2 3 3 4 83 0 4 4 13 4 68
EIF[ ]	/* EndIf */
NPUSHB[ ]	/* 11 values pushed */
168 44 19 36 52 39 28 52 51 9 24
CALL[ ]	/* CallFunction */";
};
width = 710;
},
{
layerId = "62092E79-60F6-4D0B-8A38-B9DDC6B60A9E";
shapes = (
{
closed = 1;
nodes = (
(719,-55,ls),
(742,-55,o),
(754,-50,o),
(754,-31,cs),
(754,-12,o),
(732,-9,o),
(713,-9,cs),
(649,-9,o),
(608,-8,o),
(600,23,cs),
(388,816,l),
(388,816,l),
(384,830,o),
(372,837,o),
(353,837,cs),
(329,837,o),
(320,827,o),
(317,816,cs),
(293,737,o),
(268,639,o),
(220,467,cs),
(174,304,o),
(138,173,o),
(108,89,cs),
(100,65,o),
(87,54,o),
(59,51,cs),
(60,51,o),
(15,45,o),
(-12,45,cs),
(-25,45,o),
(-37,37,o),
(-37,24,cs),
(-37,9,o),
(-26,0,o),
(-14,0,cs),
(253,0,ls),
(280,0,o),
(287,12,o),
(287,24,cs),
(287,44,o),
(271,49,o),
(258,49,cs),
(224,49,o),
(182,49,o),
(182,65,cs),
(182,92,o),
(208,175,o),
(225,223,c),
(473,223,l),
(477,207,o),
(490,168,o),
(503,116,cs),
(518,57,o),
(526,24,o),
(526,15,cs),
(526,-33,o),
(455,-14,o),
(455,-39,cs),
(455,-44,o),
(457,-48,o),
(462,-51,cs),
(466,-54,o),
(474,-55,o),
(486,-55,cs)
);
},
{
closed = 1;
nodes = (
(285,288,o),
(265,288,o),
(244,289,c),
(255,332,o),
(278,424,o),
(304,516,cs),
(330,613,o),
(347,680,o),
(356,715,c),
(381,597,o),
(431,393,o),
(458,289,c),
(443,288,o),
(427,288,o),
(411,288,cs),
(394,288,o),
(378,288,o),
(363,288,cs),
(342,288,o),
(323,288,o),
(304,288,cs)
);
}
);
userData = {
assembly = "PUSHB[ ]	/* 6 values pushed */
70 1 8 7 1 66
MPPEM[ ]	/* MeasurePixelPerEm */
PUSHB[ ]	/* 1 value pushed */
45
LT[ ]	/* LessThan */
IF[ ]	/* If */
NPUSHB[ ]	/* 33 values pushed */
0 8 0 2 3 8 2 90 0 0 0 1 0 1 87 0 7 7 20 67 6 5 2 3 3 4 83 0 4 4 13 4 68
ELSE[ ]	/* Else */
NPUSHB[ ]	/* 33 values pushed */
0 7 8 7 106 0 8 0 2 3 8 2 90 0 0 0 1 0 1 87 6 5 2 3 3 4 83 0 4 4 13 4 68
EIF[ ]	/* EndIf */
NPUSHB[ ]	/* 11 values pushed */
105 44 19 36 52 56 30 52 34 9 24
CALL[ ]	/* CallFunction */";
};
width = 698;
},
{
layerId = "E59D8378-1062-4241-9A8F-EEB295F00E05";
shapes = (
{
closed = 1;
nodes = (
(686,-55,ls),
(709,-55,o),
(721,-50,o),
(721,-41,cs),
(721,-29,o),
(704,-29,o),
(685,-29,cs),
(653,-29,o),
(629,-27,o),
(612,-23,cs),
(595,-19,o),
(585,-10,o),
(582,3,cs),
(365,816,ls),
(361,831,o),
(352,835,o),
(345,835,cs),
(334,835,o),
(327,827,o),
(324,816,cs),
(310,767,o),
(265,604,o),
(225,457,cs),
(181,298,o),
(146,172,o),
(110,69,cs),
(101,45,o),
(90,34,o),
(61,31,cs),
(62,31,o),
(9,25,o),
(-30,25,cs),
(-43,25,o),
(-50,21,o),
(-50,14,cs),
(-50,3,o),
(-39,0,o),
(-27,0,cs),
(225,0,ls),
(238,0,o),
(247,2,o),
(252,5,cs),
(257,8,o),
(259,12,o),
(259,15,cs),
(259,30,o),
(238,29,o),
(225,29,cs),
(205,29,o),
(154,26,o),
(154,45,cs),
(154,74,o),
(187,173,o),
(206,238,c),
(477,238,l),
(481,219,o),
(496,170,o),
(511,113,cs),
(528,45,o),
(538,6,o),
(538,-5,cs),
(538,-37,o),
(442,-16,o),
(442,-41,cs),
(442,-46,o),
(444,-50,o),
(449,-52,cs),
(453,-54,o),
(461,-55,o),
(473,-55,cs)
);
},
{
closed = 1;
nodes = (
(299,272,o),
(259,273,o),
(218,274,c),
(233,339,o),
(254,418,o),
(284,530,cs),
(314,640,o),
(334,709,o),
(343,755,c),
(374,642,o),
(431,411,o),
(465,274,c),
(424,273,o),
(381,272,o),
(340,272,cs)
);
}
);
userData = {
assembly = "PUSHB[ ]	/* 6 values pushed */
69 1 9 8 1 66
MPPEM[ ]	/* MeasurePixelPerEm */
PUSHB[ ]	/* 1 value pushed */
45
LT[ ]	/* LessThan */
IF[ ]	/* If */
NPUSHB[ ]	/* 34 values pushed */
0 9 0 3 4 9 3 90 2 1 0 0 1 0 1 87 0 8 8 20 67 7 6 2 4 4 5 83 0 5 5 13 5 68
ELSE[ ]	/* Else */
NPUSHB[ ]	/* 34 values pushed */
0 8 9 8 106 0 9 0 3 4 9 3 90 2 1 0 0 1 0 1 87 7 6 2 4 4 5 83 0 5 5 13 5 68
EIF[ ]	/* EndIf */
NPUSHB[ ]	/* 13 values pushed */
82 76 44 18 51 52 56 25 20 51 34 10 24
CALL[ ]	/* CallFunction */";
};
width = 681;
}
);
note = A;
unicode = 65;
},
{
glyphname = Aacute;
kernLeft = Aacute;
kernRight = Aacute;
lastChange = "2024-06-14 08:59:27 +0000";
layers = (
{
layerId = m01;
shapes = (
{
closed = 1;
nodes = (
(742,-55,ls),
(765,-55,o),
(777,-49,o),
(777,-25,cs),
(777,-2,o),
(752,3,o),
(733,3,cs),
(648,3,o),
(619,8,o),
(613,35,cs),
(410,793,l),
(410,793,l),
(402,824,o),
(387,838,o),
(359,838,cs),
(324,838,o),
(314,823,o),
(305,792,cs),
(285,726,o),
(251,598,o),
(213,460,cs),
(175,324,o),
(134,181,o),
(107,101,cs),
(98,74,o),
(82,66,o),
(58,63,cs),
(54,63,o),
(36,57,o),
(1,57,cs),
(-12,57,o),
(-28,47,o),
(-28,30,cs),
(-28,11,o),
(-17,0,o),
(-5,0,cs),
(273,0,ls),
(300,0,o),
(307,14,o),
(307,29,cs),
(307,53,o),
(295,61,o),
(274,61,cs),
(251,61,o),
(233,62,o),
(221,65,cs),
(208,68,o),
(202,72,o),
(202,77,cs),
(202,98,o),
(219,168,o),
(238,214,c),
(470,214,l),
(468,222,o),
(517,59,o),
(517,35,cs),
(517,-16,o),
(464,5,o),
(464,-33,cs),
(464,-44,o),
(471,-55,o),
(495,-55,cs)
);
},
{
closed = 1;
nodes = (
(304,296,o),
(314,298,o),
(262,298,c),
(284,379,o),
(315,510,o),
(362,691,c),
(385,566,o),
(421,414,o),
(453,298,c),
(420,298,o),
(415,296,o),
(358,296,cs)
);
},
{
closed = 1;
nodes = (
(362,841,o),
(449,897,o),
(449,936,cs),
(449,953,o),
(435,972,o),
(408,972,cs),
(370,972,o),
(294,899,o),
(294,872,cs),
(294,856,o),
(309,841,o),
(329,841,cs)
);
}
);
userData = {
assembly = "PUSHB[ ]	/* 6 values pushed */
85 1 10 9 1 66
MPPEM[ ]	/* MeasurePixelPerEm */
PUSHB[ ]	/* 1 value pushed */
45
LT[ ]	/* LessThan */
IF[ ]	/* If */
NPUSHB[ ]	/* 43 values pushed */
0 1 0 1 106 0 0 9 0 106 0 10 0 4 5 10 4 90 0 2 0 3 2 3 87 0 9 9 20 67 8 7 2 5 5 6 83 0 6 6 13 6 68
ELSE[ ]	/* Else */
NPUSHB[ ]	/* 43 values pushed */
0 1 0 1 106 0 0 9 0 106 0 9 10 9 106 0 10 0 4 5 10 4 90 0 2 0 3 2 3 87 8 7 2 5 5 6 83 0 6 6 13 6 68
EIF[ ]	/* EndIf */
NPUSHB[ ]	/* 15 values pushed */
100 90 82 80 19 36 52 39 28 52 53 38 36 11 24
CALL[ ]	/* CallFunction */";
};
width = 710;
},
{
layerId = "62092E79-60F6-4D0B-8A38-B9DDC6B60A9E";
shapes = (
{
closed = 1;
nodes = (
(719,-55,ls),
(742,-55,o),
(754,-50,o),
(754,-31,cs),
(754,-12,o),
(732,-9,o),
(713,-9,cs),
(649,-9,o),
(608,-8,o),
(600,23,cs),
(388,816,l),
(388,816,l),
(384,830,o),
(372,837,o),
(353,837,cs),
(329,837,o),
(320,827,o),
(317,816,cs),
(293,737,o),
(268,639,o),
(220,467,cs),
(174,304,o),
(138,173,o),
(108,89,cs),
(100,65,o),
(87,54,o),
(59,51,cs),
(60,51,o),
(15,45,o),
(-12,45,cs),
(-25,45,o),
(-37,37,o),
(-37,24,cs),
(-37,9,o),
(-26,0,o),
(-14,0,cs),
(253,0,ls),
(280,0,o),
(287,12,o),
(287,24,cs),
(287,44,o),
(271,49,o),
(258,49,cs),
(224,49,o),
(182,49,o),
(182,65,cs),
(182,92,o),
(208,175,o),
(225,223,c),
(473,223,l),
(477,207,o),
(490,168,o),
(503,116,cs),
(518,57,o),
(526,24,o),
(526,15,cs),
(526,-33,o),
(455,-14,o),
(455,-39,cs),
(455,-44,o),
(457,-48,o),
(462,-51,cs),
(466,-54,o),
(474,-55,o),
(486,-55,cs)
);
},
{
closed = 1;
nodes = (
(285,288,o),
(265,288,o),
(244,289,c),
(255,332,o),
(278,424,o),
(304,516,cs),
(330,613,o),
(347,680,o),
(356,715,c),
(381,597,o),
(431,393,o),
(458,289,c),
(443,288,o),
(427,288,o),
(411,288,cs),
(394,288,o),
(378,288,o),
(363,288,cs),
(342,288,o),
(323,288,o),
(304,288,cs)
);
},
{
closed = 1;
nodes = (
(341,854,o),
(429,908,o),
(429,941,cs),
(429,960,o),
(417,972,o),
(397,972,cs),
(368,972,o),
(291,904,o),
(291,877,cs),
(291,864,o),
(300,854,o),
(315,854,cs)
);
}
);
userData = {
assembly = "PUSHB[ ]	/* 6 values pushed */
86 1 10 9 1 66
MPPEM[ ]	/* MeasurePixelPerEm */
PUSHB[ ]	/* 1 value pushed */
45
LT[ ]	/* LessThan */
IF[ ]	/* If */
NPUSHB[ ]	/* 43 values pushed */
0 1 0 1 106 0 0 9 0 106 0 10 0 4 5 10 4 90 0 2 0 3 2 3 87 0 9 9 20 67 8 7 2 5 5 6 83 0 6 6 13 6 68
ELSE[ ]	/* Else */
NPUSHB[ ]	/* 43 values pushed */
0 1 0 1 106 0 0 9 0 106 0 9 10 9 106 0 10 0 4 5 10 4 90 0 2 0 3 2 3 87 8 7 2 5 5 6 83 0 6 6 13 6 68
EIF[ ]	/* EndIf */
NPUSHB[ ]	/* 15 values pushed */
99 93 84 82 19 36 52 56 30 52 36 38 36 11 24
CALL[ ]	/* CallFunction */";
};
width = 698;
},
{
layerId = "E59D8378-1062-4241-9A8F-EEB295F00E05";
shapes = (
{
closed = 1;
nodes = (
(686,-55,ls),
(709,-55,o),
(721,-50,o),
(721,-41,cs),
(721,-29,o),
(704,-29,o),
(685,-29,cs),
(653,-29,o),
(629,-27,o),
(612,-23,cs),
(595,-19,o),
(585,-10,o),
(582,3,cs),
(365,816,ls),
(361,831,o),
(352,835,o),
(345,835,cs),
(334,835,o),
(327,827,o),
(324,816,cs),
(310,767,o),
(265,604,o),
(225,457,cs),
(181,298,o),
(146,172,o),
(110,69,cs),
(101,45,o),
(90,34,o),
(61,31,cs),
(62,31,o),
(9,25,o),
(-30,25,cs),
(-43,25,o),
(-50,21,o),
(-50,14,cs),
(-50,3,o),
(-39,0,o),
(-27,0,cs),
(225,0,ls),
(238,0,o),
(247,2,o),
(252,5,cs),
(257,8,o),
(259,12,o),
(259,15,cs),
(259,30,o),
(238,29,o),
(225,29,cs),
(205,29,o),
(154,26,o),
(154,45,cs),
(154,74,o),
(187,173,o),
(206,238,c),
(477,238,l),
(481,219,o),
(496,170,o),
(511,113,cs),
(528,45,o),
(538,6,o),
(538,-5,cs),
(538,-37,o),
(442,-16,o),
(442,-41,cs),
(442,-46,o),
(444,-50,o),
(449,-52,cs),
(453,-54,o),
(461,-55,o),
(473,-55,cs)
);
},
{
closed = 1;
nodes = (
(299,272,o),
(259,273,o),
(218,274,c),
(233,339,o),
(254,418,o),
(284,530,cs),
(314,640,o),
(334,709,o),
(343,755,c),
(374,642,o),
(431,411,o),
(465,274,c),
(424,273,o),
(381,272,o),
(340,272,cs)
);
},
{
closed = 1;
nodes = (
(311,875,o),
(401,928,o),
(401,950,cs),
(401,969,o),
(393,972,o),
(382,972,cs),
(362,972,o),
(287,911,o),
(287,886,cs),
(287,879,o),
(290,875,o),
(295,875,cs)
);
}
);
userData = {
assembly = "PUSHB[ ]	/* 6 values pushed */
84 1 11 10 1 66
MPPEM[ ]	/* MeasurePixelPerEm */
PUSHB[ ]	/* 1 value pushed */
45
LT[ ]	/* LessThan */
IF[ ]	/* If */
NPUSHB[ ]	/* 44 values pushed */
0 1 0 1 106 0 0 10 0 106 0 11 0 5 6 11 5 90 4 1 2 0 3 2 3 87 0 10 10 20 67 9 8 2 6 6 7 83 0 7 7 13 7 68
ELSE[ ]	/* Else */
NPUSHB[ ]	/* 44 values pushed */
0 1 0 1 106 0 0 10 0 106 0 10 11 10 106 0 11 0 5 6 11 5 90 4 1 2 0 3 2 3 87 9 8 2 6 6 7 83 0 7 7 13 7 68
EIF[ ]	/* EndIf */
NPUSHB[ ]	/* 17 values pushed */
97 91 81 79 67 66 51 52 56 25 20 51 36 37 36 12 24
CALL[ ]	/* CallFunction */";
};
width = 681;
}
);
note = Aacute;
unicode = 193;
},
{
glyphname = Abreve;
kernLeft = Aacute;
kernRight = Aacute;
lastChange = "2024-06-14 08:59:27 +0000";
layers = (
{
layerId = m01;
shapes = (
{
closed = 1;
nodes = (
(742,-55,ls),
(765,-55,o),
(777,-49,o),
(777,-25,cs),
(777,-2,o),
(752,3,o),
(733,3,cs),
(648,3,o),
(619,8,o),
(613,35,cs),
(410,793,l),
(410,793,l),
(402,824,o),
(387,838,o),
(359,838,cs),
(324,838,o),
(314,823,o),
(305,792,cs),
(285,726,o),
(251,598,o),
(213,460,cs),
(175,324,o),
(134,181,o),
(107,101,cs),
(98,74,o),
(82,66,o),
(58,63,cs),
(54,63,o),
(36,57,o),
(1,57,cs),
(-12,57,o),
(-28,47,o),
(-28,30,cs),
(-28,11,o),
(-17,0,o),
(-5,0,cs),
(273,0,ls),
(300,0,o),
(307,14,o),
(307,29,cs),
(307,53,o),
(295,61,o),
(274,61,cs),
(251,61,o),
(233,62,o),
(221,65,cs),
(208,68,o),
(202,72,o),
(202,77,cs),
(202,98,o),
(219,168,o),
(238,214,c),
(470,214,l),
(468,222,o),
(517,59,o),
(517,35,cs),
(517,-16,o),
(464,5,o),
(464,-33,cs),
(464,-44,o),
(471,-55,o),
(495,-55,cs)
);
},
{
closed = 1;
nodes = (
(304,296,o),
(314,298,o),
(262,298,c),
(284,379,o),
(315,510,o),
(362,691,c),
(385,566,o),
(421,414,o),
(453,298,c),
(420,298,o),
(415,296,o),
(358,296,cs)
);
},
{
closed = 1;
nodes = (
(426,862,o),
(495,889,o),
(495,941,cs),
(495,968,o),
(477,971,o),
(457,971,cs),
(440,971,o),
(425,957,o),
(425,942,cs),
(425,937,o),
(421,932,o),
(412,927,cs),
(403,922,o),
(388,919,o),
(369,919,cs),
(339,919,o),
(310,927,o),
(310,942,cs),
(310,965,o),
(297,971,o),
(274,971,cs),
(251,971,o),
(242,958,o),
(242,941,cs),
(242,898,o),
(287,862,o),
(374,862,cs)
);
}
);
userData = {
assembly = "PUSHB[ ]	/* 6 values pushed */
69 1 8 7 1 66
MPPEM[ ]	/* MeasurePixelPerEm */
PUSHB[ ]	/* 1 value pushed */
45
LT[ ]	/* LessThan */
IF[ ]	/* If */
NPUSHB[ ]	/* 47 values pushed */
12 1 10 11 10 106 0 11 0 9 7 11 9 91 0 8 0 2 3 8 2 90 0 0 0 1 0 1 87 0 7 7 20 67 6 5 2 3 3 4 83 0 4 4 13 4 68
ELSE[ ]	/* Else */
NPUSHB[ ]	/* 50 values pushed */
12 1 10 11 10 106 0 7 9 8 9 7 8 104 0 11 0 9 7 11 9 91 0 8 0 2 3 8 2 90 0 0 0 1 0 1 87 6 5 2 3 3 4 83 0 4 4 13 4 68
EIF[ ]	/* EndIf */
NPUSHB[ ]	/* 19 values pushed */
115 113 109 107 101 99 95 93 168 44 19 36 52 39 28 52 51 13 24
CALL[ ]	/* CallFunction */";
};
width = 710;
},
{
layerId = "62092E79-60F6-4D0B-8A38-B9DDC6B60A9E";
shapes = (
{
closed = 1;
nodes = (
(719,-55,ls),
(742,-55,o),
(754,-50,o),
(754,-31,cs),
(754,-12,o),
(732,-9,o),
(713,-9,cs),
(649,-9,o),
(608,-8,o),
(600,23,cs),
(388,816,l),
(388,816,l),
(384,830,o),
(372,837,o),
(353,837,cs),
(329,837,o),
(320,827,o),
(317,816,cs),
(293,737,o),
(268,639,o),
(220,467,cs),
(174,304,o),
(138,173,o),
(108,89,cs),
(100,65,o),
(87,54,o),
(59,51,cs),
(60,51,o),
(15,45,o),
(-12,45,cs),
(-25,45,o),
(-37,37,o),
(-37,24,cs),
(-37,9,o),
(-26,0,o),
(-14,0,cs),
(253,0,ls),
(280,0,o),
(287,12,o),
(287,24,cs),
(287,44,o),
(271,49,o),
(258,49,cs),
(224,49,o),
(182,49,o),
(182,65,cs),
(182,92,o),
(208,175,o),
(225,223,c),
(473,223,l),
(477,207,o),
(490,168,o),
(503,116,cs),
(518,57,o),
(526,24,o),
(526,15,cs),
(526,-33,o),
(455,-14,o),
(455,-39,cs),
(455,-44,o),
(457,-48,o),
(462,-51,cs),
(466,-54,o),
(474,-55,o),
(486,-55,cs)
);
},
{
closed = 1;
nodes = (
(285,288,o),
(265,288,o),
(244,289,c),
(255,332,o),
(278,424,o),
(304,516,cs),
(330,613,o),
(347,680,o),
(356,715,c),
(381,597,o),
(431,393,o),
(458,289,c),
(443,288,o),
(427,288,o),
(411,288,cs),
(394,288,o),
(378,288,o),
(363,288,cs),
(342,288,o),
(323,288,o),
(304,288,cs)
);
},
{
closed = 1;
nodes = (
(414,865,o),
(480,892,o),
(480,944,cs),
(480,971,o),
(463,972,o),
(450,972,cs),
(435,972,o),
(424,960,o),
(424,945,cs),
(424,928,o),
(399,910,o),
(360,910,cs),
(330,910,o),
(295,919,o),
(295,945,cs),
(295,965,o),
(286,972,o),
(267,972,cs),
(250,972,o),
(241,963,o),
(241,944,cs),
(241,903,o),
(287,865,o),
(363,865,cs)
);
}
);
userData = {
assembly = "PUSHB[ ]	/* 6 values pushed */
71 1 8 7 1 66
MPPEM[ ]	/* MeasurePixelPerEm */
PUSHB[ ]	/* 1 value pushed */
45
LT[ ]	/* LessThan */
IF[ ]	/* If */
NPUSHB[ ]	/* 47 values pushed */
12 1 10 11 10 106 0 11 0 9 7 11 9 91 0 8 0 2 3 8 2 90 0 0 0 1 0 1 87 0 7 7 20 67 6 5 2 3 3 4 83 0 4 4 13 4 68
ELSE[ ]	/* Else */
NPUSHB[ ]	/* 50 values pushed */
12 1 10 11 10 106 0 7 9 8 9 7 8 104 0 11 0 9 7 11 9 91 0 8 0 2 3 8 2 90 0 0 0 1 0 1 87 6 5 2 3 3 4 83 0 4 4 13 4 68
EIF[ ]	/* EndIf */
NPUSHB[ ]	/* 19 values pushed */
114 112 108 106 100 98 95 93 105 44 19 36 52 56 30 52 35 13 35
CALL[ ]	/* CallFunction */";
};
width = 698;
},
{
layerId = "E59D8378-1062-4241-9A8F-EEB295F00E05";
shapes = (
{
closed = 1;
nodes = (
(686,-55,ls),
(709,-55,o),
(721,-50,o),
(721,-41,cs),
(721,-29,o),
(704,-29,o),
(685,-29,cs),
(653,-29,o),
(629,-27,o),
(612,-23,cs),
(595,-19,o),
(585,-10,o),
(582,3,cs),
(365,816,ls),
(361,831,o),
(352,835,o),
(345,835,cs),
(334,835,o),
(327,827,o),
(324,816,cs),
(310,767,o),
(265,604,o),
(225,457,cs),
(181,298,o),
(146,172,o),
(110,69,cs),
(101,45,o),
(90,34,o),
(61,31,cs),
(62,31,o),
(9,25,o),
(-30,25,cs),
(-43,25,o),
(-50,21,o),
(-50,14,cs),
(-50,3,o),
(-39,0,o),
(-27,0,cs),
(225,0,ls),
(238,0,o),
(247,2,o),
(252,5,cs),
(257,8,o),
(259,12,o),
(259,15,cs),
(259,30,o),
(238,29,o),
(225,29,cs),
(205,29,o),
(154,26,o),
(154,45,cs),
(154,74,o),
(187,173,o),
(206,238,c),
(477,238,l),
(481,219,o),
(496,170,o),
(511,113,cs),
(528,45,o),
(538,6,o),
(538,-5,cs),
(538,-37,o),
(442,-16,o),
(442,-41,cs),
(442,-46,o),
(444,-50,o),
(449,-52,cs),
(453,-54,o),
(461,-55,o),
(473,-55,cs)
);
},
{
closed = 1;
nodes = (
(299,272,o),
(259,273,o),
(218,274,c),
(233,339,o),
(254,418,o),
(284,530,cs),
(314,640,o),
(334,709,o),
(343,755,c),
(374,642,o),
(431,411,o),
(465,274,c),
(424,273,o),
(381,272,o),
(340,272,cs)
);
},
{
closed = 1;
nodes = (
(400,875,o),
(458,899,o),
(458,948,cs),
(458,969,o),
(450,972,o),
(439,972,cs),
(428,972,o),
(422,964,o),
(422,949,cs),
(422,922,o),
(383,900,o),
(347,900,cs),
(305,900,o),
(273,910,o),
(273,949,cs),
(273,965,o),
(271,972,o),
(256,972,cs),
(245,972,o),
(239,964,o),
(239,948,cs),
(239,908,o),
(287,875,o),
(347,875,cs)
);
}
);
userData = {
assembly = "PUSHB[ ]	/* 6 values pushed */
97 1 13 12 1 66
MPPEM[ ]	/* MeasurePixelPerEm */
PUSHB[ ]	/* 1 value pushed */
45
LT[ ]	/* LessThan */
IF[ ]	/* If */
NPUSHB[ ]	/* 48 values pushed */
3 1 1 2 1 106 0 2 0 0 12 2 0 91 0 13 0 7 8 13 7 90 6 1 4 0 5 4 5 87 0 12 12 20 67 11 10 2 8 8 9 83 0 9 9 13 9 68
ELSE[ ]	/* Else */
NPUSHB[ ]	/* 51 values pushed */
3 1 1 2 1 106 0 12 0 13 0 12 13 104 0 2 0 0 12 2 0 91 0 13 0 7 8 13 7 90 6 1 4 0 5 4 5 87 11 10 2 8 8 9 83 0 9 9 13 9 68
EIF[ ]	/* EndIf */
NPUSHB[ ]	/* 21 values pushed */
110 104 94 92 80 79 77 74 71 68 56 25 20 51 36 37 38 35 36 14 24
CALL[ ]	/* CallFunction */";
};
width = 681;
}
);
note = Abreve;
unicode = 258;
},
{
glyphname = Acircumflex;
kernLeft = Aacute;
kernRight = Aacute;
lastChange = "2024-06-14 08:59:27 +0000";
layers = (
{
layerId = m01;
shapes = (
{
closed = 1;
nodes = (
(742,-55,ls),
(765,-55,o),
(777,-49,o),
(777,-25,cs),
(777,-2,o),
(752,3,o),
(733,3,cs),
(648,3,o),
(619,8,o),
(613,35,cs),
(410,793,l),
(410,793,l),
(402,824,o),
(387,838,o),
(359,838,cs),
(324,838,o),
(314,823,o),
(305,792,cs),
(285,726,o),
(251,598,o),
(213,460,cs),
(175,324,o),
(134,181,o),
(107,101,cs),
(98,74,o),
(82,66,o),
(58,63,cs),
(54,63,o),
(36,57,o),
(1,57,cs),
(-12,57,o),
(-28,47,o),
(-28,30,cs),
(-28,11,o),
(-17,0,o),
(-5,0,cs),
(273,0,ls),
(300,0,o),
(307,14,o),
(307,29,cs),
(307,53,o),
(295,61,o),
(274,61,cs),
(251,61,o),
(233,62,o),
(221,65,cs),
(208,68,o),
(202,72,o),
(202,77,cs),
(202,98,o),
(219,168,o),
(238,214,c),
(470,214,l),
(468,222,o),
(517,59,o),
(517,35,cs),
(517,-16,o),
(464,5,o),
(464,-33,cs),
(464,-44,o),
(471,-55,o),
(495,-55,cs)
);
},
{
closed = 1;
nodes = (
(304,296,o),
(314,298,o),
(262,298,c),
(284,379,o),
(315,510,o),
(362,691,c),
(385,566,o),
(421,414,o),
(453,298,c),
(420,298,o),
(415,296,o),
(358,296,cs)
);
},
{
closed = 1;
nodes = (
(256,832,o),
(271,836,o),
(294,845,cs),
(317,854,o),
(341,865,o),
(368,880,c),
(395,865,o),
(420,854,o),
(443,845,cs),
(466,836,o),
(481,832,o),
(488,832,cs),
(499,832,o),
(501,843,o),
(501,852,cs),
(501,894,o),
(393,972,o),
(368,972,cs),
(357,972,o),
(322,950,o),
(295,929,cs),
(264,904,o),
(236,871,o),
(236,846,cs),
(236,839,o),
(240,832,o),
(249,832,cs)
);
}
);
userData = {
assembly = "NPUSHB[ ]	/* 10 values pushed */
3 1 10 2 91 1 11 0 2 66
MPPEM[ ]	/* MeasurePixelPerEm */
PUSHB[ ]	/* 1 value pushed */
45
LT[ ]	/* LessThan */
IF[ ]	/* If */
NPUSHB[ ]	/* 48 values pushed */
0 2 10 2 106 1 12 2 0 10 11 10 0 11 104 0 11 0 5 6 11 5 90 0 3 0 4 3 4 87 0 10 10 20 67 9 8 2 6 6 7 83 0 7 7 13 7 68
ELSE[ ]	/* Else */
NPUSHB[ ]	/* 45 values pushed */
0 2 10 2 106 0 10 0 10 106 1 12 2 0 11 0 106 0 11 0 5 6 11 5 90 0 3 0 4 3 4 87 9 8 2 6 6 7 83 0 7 7 13 7 68
EIF[ ]	/* EndIf */
NPUSHB[ ]	/* 30 values pushed */
1 0 106 96 88 86 74 73 70 68 64 61 57 55 48 47 35 32 28 25 15 13 7 5 0 21 1 21 13 15
CALL[ ]	/* CallFunction */";
};
width = 710;
},
{
layerId = "62092E79-60F6-4D0B-8A38-B9DDC6B60A9E";
shapes = (
{
closed = 1;
nodes = (
(719,-55,ls),
(742,-55,o),
(754,-50,o),
(754,-31,cs),
(754,-12,o),
(732,-9,o),
(713,-9,cs),
(649,-9,o),
(608,-8,o),
(600,23,cs),
(388,816,l),
(388,816,l),
(384,830,o),
(372,837,o),
(353,837,cs),
(329,837,o),
(320,827,o),
(317,816,cs),
(293,737,o),
(268,639,o),
(220,467,cs),
(174,304,o),
(138,173,o),
(108,89,cs),
(100,65,o),
(87,54,o),
(59,51,cs),
(60,51,o),
(15,45,o),
(-12,45,cs),
(-25,45,o),
(-37,37,o),
(-37,24,cs),
(-37,9,o),
(-26,0,o),
(-14,0,cs),
(253,0,ls),
(280,0,o),
(287,12,o),
(287,24,cs),
(287,44,o),
(271,49,o),
(258,49,cs),
(224,49,o),
(182,49,o),
(182,65,cs),
(182,92,o),
(208,175,o),
(225,223,c),
(473,223,l),
(477,207,o),
(490,168,o),
(503,116,cs),
(518,57,o),
(526,24,o),
(526,15,cs),
(526,-33,o),
(455,-14,o),
(455,-39,cs),
(455,-44,o),
(457,-48,o),
(462,-51,cs),
(466,-54,o),
(474,-55,o),
(486,-55,cs)
);
},
{
closed = 1;
nodes = (
(285,288,o),
(265,288,o),
(244,289,c),
(255,332,o),
(278,424,o),
(304,516,cs),
(330,613,o),
(347,680,o),
(356,715,c),
(381,597,o),
(431,393,o),
(458,289,c),
(443,288,o),
(427,288,o),
(411,288,cs),
(394,288,o),
(378,288,o),
(363,288,cs),
(342,288,o),
(323,288,o),
(304,288,cs)
);
},
{
closed = 1;
nodes = (
(256,848,o),
(319,875,o),
(358,898,c),
(420,861,o),
(469,848,o),
(478,848,cs),
(486,848,o),
(489,856,o),
(489,865,cs),
(489,899,o),
(384,972,o),
(358,972,cs),
(335,972,o),
(228,901,o),
(228,861,cs),
(228,852,o),
(232,848,o),
(239,848,cs)
);
}
);
userData = {
assembly = "NPUSHB[ ]	/* 10 values pushed */
5 1 0 2 95 1 11 10 2 66
MPPEM[ ]	/* MeasurePixelPerEm */
PUSHB[ ]	/* 1 value pushed */
45
LT[ ]	/* LessThan */
IF[ ]	/* If */
NPUSHB[ ]	/* 45 values pushed */
0 2 0 2 106 1 12 2 0 10 0 106 0 11 0 5 6 11 5 90 0 3 0 4 3 4 87 0 10 10 20 67 9 8 2 6 6 7 83 0 7 7 13 7 68
ELSE[ ]	/* Else */
NPUSHB[ ]	/* 45 values pushed */
0 2 0 2 106 1 12 2 0 10 0 106 0 10 11 10 106 0 11 0 5 6 11 5 90 0 3 0 4 3 4 87 9 8 2 6 6 7 83 0 7 7 13 7 68
EIF[ ]	/* EndIf */
NPUSHB[ ]	/* 30 values pushed */
1 0 108 102 93 91 79 78 75 73 69 66 62 59 51 50 36 33 29 27 18 16 11 9 0 24 1 24 13 15
CALL[ ]	/* CallFunction */";
};
width = 698;
},
{
layerId = "E59D8378-1062-4241-9A8F-EEB295F00E05";
shapes = (
{
closed = 1;
nodes = (
(686,-55,ls),
(709,-55,o),
(721,-50,o),
(721,-41,cs),
(721,-29,o),
(704,-29,o),
(685,-29,cs),
(653,-29,o),
(629,-27,o),
(612,-23,cs),
(595,-19,o),
(585,-10,o),
(582,3,cs),
(365,816,ls),
(361,831,o),
(352,835,o),
(345,835,cs),
(334,835,o),
(327,827,o),
(324,816,cs),
(310,767,o),
(265,604,o),
(225,457,cs),
(181,298,o),
(146,172,o),
(110,69,cs),
(101,45,o),
(90,34,o),
(61,31,cs),
(62,31,o),
(9,25,o),
(-30,25,cs),
(-43,25,o),
(-50,21,o),
(-50,14,cs),
(-50,3,o),
(-39,0,o),
(-27,0,cs),
(225,0,ls),
(238,0,o),
(247,2,o),
(252,5,cs),
(257,8,o),
(259,12,o),
(259,15,cs),
(259,30,o),
(238,29,o),
(225,29,cs),
(205,29,o),
(154,26,o),
(154,45,cs),
(154,74,o),
(187,173,o),
(206,238,c),
(477,238,l),
(481,219,o),
(496,170,o),
(511,113,cs),
(528,45,o),
(538,6,o),
(538,-5,cs),
(538,-37,o),
(442,-16,o),
(442,-41,cs),
(442,-46,o),
(444,-50,o),
(449,-52,cs),
(453,-54,o),
(461,-55,o),
(473,-55,cs)
);
},
{
closed = 1;
nodes = (
(299,272,o),
(259,273,o),
(218,274,c),
(233,339,o),
(254,418,o),
(284,530,cs),
(314,640,o),
(334,709,o),
(343,755,c),
(374,642,o),
(431,411,o),
(465,274,c),
(424,273,o),
(381,272,o),
(340,272,cs)
);
},
{
closed = 1;
nodes = (
(242,875,o),
(313,908,o),
(344,928,c),
(398,890,o),
(466,875,o),
(464,875,cs),
(469,875,o),
(472,879,o),
(472,886,cs),
(472,911,o),
(370,972,o),
(344,972,cs),
(321,972,o),
(217,911,o),
(217,886,cs),
(217,879,o),
(220,875,o),
(225,875,cs)
);
}
);
userData = {
assembly = "NPUSHB[ ]	/* 10 values pushed */
5 1 0 2 93 1 12 11 2 66
MPPEM[ ]	/* MeasurePixelPerEm */
PUSHB[ ]	/* 1 value pushed */
45
LT[ ]	/* LessThan */
IF[ ]	/* If */
NPUSHB[ ]	/* 46 values pushed */
0 2 0 2 106 1 13 2 0 11 0 106 0 12 0 6 7 12 6 90 5 1 3 0 4 3 4 87 0 11 11 20 67 10 9 2 7 7 8 83 0 8 8 13 8 68
ELSE[ ]	/* Else */
NPUSHB[ ]	/* 46 values pushed */
0 2 0 2 106 1 13 2 0 11 0 106 0 11 12 11 106 0 12 0 6 7 12 6 90 5 1 3 0 4 3 4 87 10 9 2 7 7 8 83 0 8 8 13 8 68
EIF[ ]	/* EndIf */
NPUSHB[ ]	/* 32 values pushed */
1 0 106 100 90 88 76 75 73 70 67 64 60 57 49 48 39 38 34 31 28 26 18 16 11 9 0 23 1 23 14 15
CALL[ ]	/* CallFunction */";
};
width = 681;
}
);
note = Acircumflex;
unicode = 194;
},
{
glyphname = Adieresis;
kernLeft = Aacute;
kernRight = Aacute;
lastChange = "2024-06-14 08:59:27 +0000";
layers = (
{
layerId = m01;
shapes = (
{
closed = 1;
nodes = (
(742,-55,ls),
(765,-55,o),
(777,-49,o),
(777,-25,cs),
(777,-2,o),
(752,3,o),
(733,3,cs),
(648,3,o),
(619,8,o),
(613,35,cs),
(410,793,l),
(410,793,l),
(402,824,o),
(387,838,o),
(359,838,cs),
(324,838,o),
(314,823,o),
(305,792,cs),
(285,726,o),
(251,598,o),
(213,460,cs),
(175,324,o),
(134,181,o),
(107,101,cs),
(98,74,o),
(82,66,o),
(58,63,cs),
(54,63,o),
(36,57,o),
(1,57,cs),
(-12,57,o),
(-28,47,o),
(-28,30,cs),
(-28,11,o),
(-17,0,o),
(-5,0,cs),
(273,0,ls),
(300,0,o),
(307,14,o),
(307,29,cs),
(307,53,o),
(295,61,o),
(274,61,cs),
(251,61,o),
(233,62,o),
(221,65,cs),
(208,68,o),
(202,72,o),
(202,77,cs),
(202,98,o),
(219,168,o),
(238,214,c),
(470,214,l),
(468,222,o),
(517,59,o),
(517,35,cs),
(517,-16,o),
(464,5,o),
(464,-33,cs),
(464,-44,o),
(471,-55,o),
(495,-55,cs)
);
},
{
closed = 1;
nodes = (
(304,296,o),
(314,298,o),
(262,298,c),
(284,379,o),
(315,510,o),
(362,691,c),
(385,566,o),
(421,414,o),
(453,298,c),
(420,298,o),
(415,296,o),
(358,296,cs)
);
},
{
closed = 1;
nodes = (
(286,841,o),
(323,856,o),
(323,911,cs),
(323,947,o),
(295,972,o),
(263,972,cs),
(216,972,o),
(197,931,o),
(197,907,cs),
(197,868,o),
(223,841,o),
(256,841,cs)
);
},
{
closed = 1;
nodes = (
(493,830,o),
(530,845,o),
(530,900,cs),
(530,937,o),
(502,961,o),
(470,961,cs),
(423,961,o),
(404,920,o),
(404,896,cs),
(404,857,o),
(430,830,o),
(463,830,cs)
);
}
);
userData = {
assembly = "MPPEM[ ]	/* MeasurePixelPerEm */
PUSHB[ ]	/* 1 value pushed */
22
LT[ ]	/* LessThan */
IF[ ]	/* If */
PUSHB[ ]	/* 6 values pushed */
101 1 12 11 1 66
ELSE[ ]	/* Else */
PUSHB[ ]	/* 6 values pushed */
101 1 12 3 1 66
EIF[ ]	/* EndIf */
MPPEM[ ]	/* MeasurePixelPerEm */
PUSHB[ ]	/* 1 value pushed */
22
LT[ ]	/* LessThan */
IF[ ]	/* If */
NPUSHB[ ]	/* 43 values pushed */
2 1 0 3 1 1 11 0 1 91 0 12 0 6 7 12 6 90 0 4 0 5 4 5 87 0 11 11 20 67 10 9 2 7 7 8 83 0 8 8 13 8 68
ELSE[ ]	/* Else */
MPPEM[ ]	/* MeasurePixelPerEm */
PUSHB[ ]	/* 1 value pushed */
45
LT[ ]	/* LessThan */
IF[ ]	/* If */
NPUSHB[ ]	/* 49 values pushed */
0 0 0 1 11 0 1 91 0 2 0 3 12 2 3 91 0 12 0 6 7 12 6 90 0 4 0 5 4 5 87 0 11 11 20 67 10 9 2 7 7 8 83 0 8 8 13 8 68
ELSE[ ]	/* Else */
NPUSHB[ ]	/* 52 values pushed */
0 11 1 3 1 11 3 104 0 0 0 1 11 0 1 91 0 2 0 3 12 2 3 91 0 12 0 6 7 12 6 90 0 4 0 5 4 5 87 10 9 2 7 7 8 83 0 8 8 13 8 68
EIF[ ]	/* EndIf */
EIF[ ]	/* EndIf */
NPUSHB[ ]	/* 19 values pushed */
116 106 98 96 84 83 80 78 52 39 28 52 53 38 38 38 36 13 24
CALL[ ]	/* CallFunction */";
};
width = 710;
},
{
layerId = "62092E79-60F6-4D0B-8A38-B9DDC6B60A9E";
shapes = (
{
closed = 1;
nodes = (
(719,-55,ls),
(742,-55,o),
(754,-50,o),
(754,-31,cs),
(754,-12,o),
(732,-9,o),
(713,-9,cs),
(649,-9,o),
(608,-8,o),
(600,23,cs),
(388,816,l),
(388,816,l),
(384,830,o),
(372,837,o),
(353,837,cs),
(329,837,o),
(320,827,o),
(317,816,cs),
(293,737,o),
(268,639,o),
(220,467,cs),
(174,304,o),
(138,173,o),
(108,89,cs),
(100,65,o),
(87,54,o),
(59,51,cs),
(60,51,o),
(15,45,o),
(-12,45,cs),
(-25,45,o),
(-37,37,o),
(-37,24,cs),
(-37,9,o),
(-26,0,o),
(-14,0,cs),
(253,0,ls),
(280,0,o),
(287,12,o),
(287,24,cs),
(287,44,o),
(271,49,o),
(258,49,cs),
(224,49,o),
(182,49,o),
(182,65,cs),
(182,92,o),
(208,175,o),
(225,223,c),
(473,223,l),
(477,207,o),
(490,168,o),
(503,116,cs),
(518,57,o),
(526,24,o),
(526,15,cs),
(526,-33,o),
(455,-14,o),
(455,-39,cs),
(455,-44,o),
(457,-48,o),
(462,-51,cs),
(466,-54,o),
(474,-55,o),
(486,-55,cs)
);
},
{
closed = 1;
nodes = (
(285,288,o),
(265,288,o),
(244,289,c),
(255,332,o),
(278,424,o),
(304,516,cs),
(330,613,o),
(347,680,o),
(356,715,c),
(381,597,o),
(431,393,o),
(458,289,c),
(443,288,o),
(427,288,o),
(411,288,cs),
(394,288,o),
(378,288,o),
(363,288,cs),
(342,288,o),
(323,288,o),
(304,288,cs)
);
},
{
closed = 1;
nodes = (
(274,859,o),
(305,872,o),
(305,920,cs),
(305,951,o),
(283,972,o),
(256,972,cs),
(218,972,o),
(200,937,o),
(200,916,cs),
(200,883,o),
(222,859,o),
(249,859,cs)
);
},
{
closed = 1;
nodes = (
(481,847,o),
(512,860,o),
(512,908,cs),
(512,939,o),
(490,960,o),
(463,960,cs),
(425,960,o),
(407,925,o),
(407,904,cs),
(407,871,o),
(429,847,o),
(456,847,cs)
);
}
);
userData = {
assembly = "PUSHB[ ]	/* 6 values pushed */
98 1 12 11 1 66
MPPEM[ ]	/* MeasurePixelPerEm */
PUSHB[ ]	/* 1 value pushed */
45
LT[ ]	/* LessThan */
IF[ ]	/* If */
NPUSHB[ ]	/* 49 values pushed */
0 0 0 1 3 0 1 91 0 2 0 3 11 2 3 91 0 12 0 6 7 12 6 90 0 4 0 5 4 5 87 0 11 11 20 67 10 9 2 7 7 8 83 0 8 8 13 8 68
ELSE[ ]	/* Else */
NPUSHB[ ]	/* 52 values pushed */
0 11 3 12 3 11 12 104 0 0 0 1 3 0 1 91 0 2 0 3 11 2 3 91 0 12 0 6 7 12 6 90 0 4 0 5 4 5 87 10 9 2 7 7 8 83 0 8 8 13 8 68
EIF[ ]	/* EndIf */
NPUSHB[ ]	/* 19 values pushed */
111 105 96 94 82 81 78 76 52 56 30 52 36 36 38 36 36 13 24
CALL[ ]	/* CallFunction */";
};
width = 698;
},
{
layerId = "E59D8378-1062-4241-9A8F-EEB295F00E05";
shapes = (
{
closed = 1;
nodes = (
(686,-55,ls),
(709,-55,o),
(721,-50,o),
(721,-41,cs),
(721,-29,o),
(704,-29,o),
(685,-29,cs),
(653,-29,o),
(629,-27,o),
(612,-23,cs),
(595,-19,o),
(585,-10,o),
(582,3,cs),
(365,816,ls),
(361,831,o),
(352,835,o),
(345,835,cs),
(334,835,o),
(327,827,o),
(324,816,cs),
(310,767,o),
(265,604,o),
(225,457,cs),
(181,298,o),
(146,172,o),
(110,69,cs),
(101,45,o),
(90,34,o),
(61,31,cs),
(62,31,o),
(9,25,o),
(-30,25,cs),
(-43,25,o),
(-50,21,o),
(-50,14,cs),
(-50,3,o),
(-39,0,o),
(-27,0,cs),
(225,0,ls),
(238,0,o),
(247,2,o),
(252,5,cs),
(257,8,o),
(259,12,o),
(259,15,cs),
(259,30,o),
(238,29,o),
(225,29,cs),
(205,29,o),
(154,26,o),
(154,45,cs),
(154,74,o),
(187,173,o),
(206,238,c),
(477,238,l),
(481,219,o),
(496,170,o),
(511,113,cs),
(528,45,o),
(538,6,o),
(538,-5,cs),
(538,-37,o),
(442,-16,o),
(442,-41,cs),
(442,-46,o),
(444,-50,o),
(449,-52,cs),
(453,-54,o),
(461,-55,o),
(473,-55,cs)
);
},
{
closed = 1;
nodes = (
(299,272,o),
(259,273,o),
(218,274,c),
(233,339,o),
(254,418,o),
(284,530,cs),
(314,640,o),
(334,709,o),
(343,755,c),
(374,642,o),
(431,411,o),
(465,274,c),
(424,273,o),
(381,272,o),
(340,272,cs)
);
},
{
closed = 1;
nodes = (
(258,889,o),
(280,899,o),
(280,935,cs),
(280,958,o),
(265,972,o),
(246,972,cs),
(218,972,o),
(205,945,o),
(205,931,cs),
(205,907,o),
(220,889,o),
(239,889,cs)
);
},
{
closed = 1;
nodes = (
(465,875,o),
(487,885,o),
(487,921,cs),
(487,944,o),
(472,958,o),
(453,958,cs),
(425,958,o),
(412,931,o),
(412,917,cs),
(412,893,o),
(427,875,o),
(446,875,cs)
);
}
);
userData = {
assembly = "PUSHB[ ]	/* 6 values pushed */
97 1 13 12 1 66
MPPEM[ ]	/* MeasurePixelPerEm */
PUSHB[ ]	/* 1 value pushed */
45
LT[ ]	/* LessThan */
IF[ ]	/* If */
NPUSHB[ ]	/* 50 values pushed */
0 0 0 1 3 0 1 91 0 2 0 3 12 2 3 91 0 13 0 7 8 13 7 90 6 1 4 0 5 4 5 87 0 12 12 20 67 11 10 2 8 8 9 83 0 9 9 13 9 68
ELSE[ ]	/* Else */
NPUSHB[ ]	/* 53 values pushed */
0 12 3 13 3 12 13 104 0 0 0 1 3 0 1 91 0 2 0 3 12 2 3 91 0 13 0 7 8 13 7 90 6 1 4 0 5 4 5 87 11 10 2 8 8 9 83 0 9 9 13 9 68
EIF[ ]	/* EndIf */
NPUSHB[ ]	/* 21 values pushed */
110 104 94 92 80 79 77 74 71 68 56 25 20 51 36 36 38 36 36 14 24
CALL[ ]	/* CallFunction */";
};
width = 681;
}
);
note = Adieresis;
unicode = 196;
},
{
glyphname = Agrave;
kernLeft = Aacute;
kernRight = Aacute;
lastChange = "2024-06-14 08:59:27 +0000";
layers = (
{
layerId = m01;
shapes = (
{
closed = 1;
nodes = (
(742,-55,ls),
(765,-55,o),
(777,-49,o),
(777,-25,cs),
(777,-2,o),
(752,3,o),
(733,3,cs),
(648,3,o),
(619,8,o),
(613,35,cs),
(410,793,l),
(410,793,l),
(402,824,o),
(387,838,o),
(359,838,cs),
(324,838,o),
(314,823,o),
(305,792,cs),
(285,726,o),
(251,598,o),
(213,460,cs),
(175,324,o),
(134,181,o),
(107,101,cs),
(98,74,o),
(82,66,o),
(58,63,cs),
(54,63,o),
(36,57,o),
(1,57,cs),
(-12,57,o),
(-28,47,o),
(-28,30,cs),
(-28,11,o),
(-17,0,o),
(-5,0,cs),
(273,0,ls),
(300,0,o),
(307,14,o),
(307,29,cs),
(307,53,o),
(295,61,o),
(274,61,cs),
(251,61,o),
(233,62,o),
(221,65,cs),
(208,68,o),
(202,72,o),
(202,77,cs),
(202,98,o),
(219,168,o),
(238,214,c),
(470,214,l),
(468,222,o),
(517,59,o),
(517,35,cs),
(517,-16,o),
(464,5,o),
(464,-33,cs),
(464,-44,o),
(471,-55,o),
(495,-55,cs)
);
},
{
closed = 1;
nodes = (
(304,296,o),
(314,298,o),
(262,298,c),
(284,379,o),
(315,510,o),
(362,691,c),
(385,566,o),
(421,414,o),
(453,298,c),
(420,298,o),
(415,296,o),
(358,296,cs)
);
},
{
closed = 1;
nodes = (
(433,841,o),
(448,856,o),
(448,872,cs),
(448,898,o),
(374,972,o),
(334,972,cs),
(307,972,o),
(293,953,o),
(293,936,cs),
(293,897,o),
(380,841,o),
(413,841,cs)
);
}
);
userData = {
assembly = "PUSHB[ ]	/* 6 values pushed */
85 1 10 9 1 66
MPPEM[ ]	/* MeasurePixelPerEm */
PUSHB[ ]	/* 1 value pushed */
45
LT[ ]	/* LessThan */
IF[ ]	/* If */
NPUSHB[ ]	/* 43 values pushed */
0 0 1 0 106 0 1 9 1 106 0 10 0 4 5 10 4 90 0 2 0 3 2 3 87 0 9 9 20 67 8 7 2 5 5 6 83 0 6 6 13 6 68
ELSE[ ]	/* Else */
NPUSHB[ ]	/* 43 values pushed */
0 0 1 0 106 0 1 9 1 106 0 9 10 9 106 0 10 0 4 5 10 4 90 0 2 0 3 2 3 87 8 7 2 5 5 6 83 0 6 6 13 6 68
EIF[ ]	/* EndIf */
NPUSHB[ ]	/* 15 values pushed */
100 90 82 80 19 36 52 39 28 52 55 38 34 11 24
CALL[ ]	/* CallFunction */";
};
width = 710;
},
{
layerId = "62092E79-60F6-4D0B-8A38-B9DDC6B60A9E";
shapes = (
{
closed = 1;
nodes = (
(719,-55,ls),
(742,-55,o),
(754,-50,o),
(754,-31,cs),
(754,-12,o),
(732,-9,o),
(713,-9,cs),
(649,-9,o),
(608,-8,o),
(600,23,cs),
(388,816,l),
(388,816,l),
(384,830,o),
(372,837,o),
(353,837,cs),
(329,837,o),
(320,827,o),
(317,816,cs),
(293,737,o),
(268,639,o),
(220,467,cs),
(174,304,o),
(138,173,o),
(108,89,cs),
(100,65,o),
(87,54,o),
(59,51,cs),
(60,51,o),
(15,45,o),
(-12,45,cs),
(-25,45,o),
(-37,37,o),
(-37,24,cs),
(-37,9,o),
(-26,0,o),
(-14,0,cs),
(253,0,ls),
(280,0,o),
(287,12,o),
(287,24,cs),
(287,44,o),
(271,49,o),
(258,49,cs),
(224,49,o),
(182,49,o),
(182,65,cs),
(182,92,o),
(208,175,o),
(225,223,c),
(473,223,l),
(477,207,o),
(490,168,o),
(503,116,cs),
(518,57,o),
(526,24,o),
(526,15,cs),
(526,-33,o),
(455,-14,o),
(455,-39,cs),
(455,-44,o),
(457,-48,o),
(462,-51,cs),
(466,-54,o),
(474,-55,o),
(486,-55,cs)
);
},
{
closed = 1;
nodes = (
(285,288,o),
(265,288,o),
(244,289,c),
(255,332,o),
(278,424,o),
(304,516,cs),
(330,613,o),
(347,680,o),
(356,715,c),
(381,597,o),
(431,393,o),
(458,289,c),
(443,288,o),
(427,288,o),
(411,288,cs),
(394,288,o),
(378,288,o),
(363,288,cs),
(342,288,o),
(323,288,o),
(304,288,cs)
);
},
{
closed = 1;
nodes = (
(420,854,o),
(429,864,o),
(429,877,cs),
(429,904,o),
(352,972,o),
(323,972,cs),
(303,972,o),
(291,960,o),
(291,941,cs),
(291,910,o),
(376,854,o),
(405,854,cs)
);
}
);
userData = {
assembly = "PUSHB[ ]	/* 6 values pushed */
86 1 10 9 1 66
MPPEM[ ]	/* MeasurePixelPerEm */
PUSHB[ ]	/* 1 value pushed */
45
LT[ ]	/* LessThan */
IF[ ]	/* If */
NPUSHB[ ]	/* 43 values pushed */
0 0 1 0 106 0 1 9 1 106 0 10 0 4 5 10 4 90 0 2 0 3 2 3 87 0 9 9 20 67 8 7 2 5 5 6 83 0 6 6 13 6 68
ELSE[ ]	/* Else */
NPUSHB[ ]	/* 43 values pushed */
0 0 1 0 106 0 1 9 1 106 0 9 10 9 106 0 10 0 4 5 10 4 90 0 2 0 3 2 3 87 8 7 2 5 5 6 83 0 6 6 13 6 68
EIF[ ]	/* EndIf */
NPUSHB[ ]	/* 15 values pushed */
99 93 84 82 19 36 52 56 30 52 38 38 34 11 24
CALL[ ]	/* CallFunction */";
};
width = 698;
},
{
layerId = "E59D8378-1062-4241-9A8F-EEB295F00E05";
shapes = (
{
closed = 1;
nodes = (
(686,-55,ls),
(709,-55,o),
(721,-50,o),
(721,-41,cs),
(721,-29,o),
(704,-29,o),
(685,-29,cs),
(653,-29,o),
(629,-27,o),
(612,-23,cs),
(595,-19,o),
(585,-10,o),
(582,3,cs),
(365,816,ls),
(361,831,o),
(352,835,o),
(345,835,cs),
(334,835,o),
(327,827,o),
(324,816,cs),
(310,767,o),
(265,604,o),
(225,457,cs),
(181,298,o),
(146,172,o),
(110,69,cs),
(101,45,o),
(90,34,o),
(61,31,cs),
(62,31,o),
(9,25,o),
(-30,25,cs),
(-43,25,o),
(-50,21,o),
(-50,14,cs),
(-50,3,o),
(-39,0,o),
(-27,0,cs),
(225,0,ls),
(238,0,o),
(247,2,o),
(252,5,cs),
(257,8,o),
(259,12,o),
(259,15,cs),
(259,30,o),
(238,29,o),
(225,29,cs),
(205,29,o),
(154,26,o),
(154,45,cs),
(154,74,o),
(187,173,o),
(206,238,c),
(477,238,l),
(481,219,o),
(496,170,o),
(511,113,cs),
(528,45,o),
(538,6,o),
(538,-5,cs),
(538,-37,o),
(442,-16,o),
(442,-41,cs),
(442,-46,o),
(444,-50,o),
(449,-52,cs),
(453,-54,o),
(461,-55,o),
(473,-55,cs)
);
},
{
closed = 1;
nodes = (
(299,272,o),
(259,273,o),
(218,274,c),
(233,339,o),
(254,418,o),
(284,530,cs),
(314,640,o),
(334,709,o),
(343,755,c),
(374,642,o),
(431,411,o),
(465,274,c),
(424,273,o),
(381,272,o),
(340,272,cs)
);
},
{
closed = 1;
nodes = (
(399,875,o),
(402,879,o),
(402,886,cs),
(402,911,o),
(327,972,o),
(307,972,cs),
(296,972,o),
(288,969,o),
(288,950,cs),
(288,928,o),
(378,875,o),
(394,875,cs)
);
}
);
userData = {
assembly = "PUSHB[ ]	/* 6 values pushed */
84 1 11 10 1 66
MPPEM[ ]	/* MeasurePixelPerEm */
PUSHB[ ]	/* 1 value pushed */
45
LT[ ]	/* LessThan */
IF[ ]	/* If */
NPUSHB[ ]	/* 44 values pushed */
0 0 1 0 106 0 1 10 1 106 0 11 0 5 6 11 5 90 4 1 2 0 3 2 3 87 0 10 10 20 67 9 8 2 6 6 7 83 0 7 7 13 7 68
ELSE[ ]	/* Else */
NPUSHB[ ]	/* 44 values pushed */
0 0 1 0 106 0 1 10 1 106 0 10 11 10 106 0 11 0 5 6 11 5 90 4 1 2 0 3 2 3 87 9 8 2 6 6 7 83 0 7 7 13 7 68
EIF[ ]	/* EndIf */
NPUSHB[ ]	/* 17 values pushed */
97 91 81 79 67 66 51 52 56 25 20 51 38 37 34 12 24
CALL[ ]	/* CallFunction */";
};
width = 681;
}
);
note = Agrave;
unicode = 192;
},
{
glyphname = Amacron;
kernLeft = Aacute;
kernRight = Aacute;
lastChange = "2024-06-14 08:59:27 +0000";
layers = (
{
layerId = m01;
shapes = (
{
closed = 1;
nodes = (
(742,-55,ls),
(765,-55,o),
(777,-49,o),
(777,-25,cs),
(777,-2,o),
(752,3,o),
(733,3,cs),
(648,3,o),
(619,8,o),
(613,35,cs),
(410,793,l),
(410,793,l),
(402,824,o),
(387,838,o),
(359,838,cs),
(324,838,o),
(314,823,o),
(305,792,cs),
(285,726,o),
(251,598,o),
(213,460,cs),
(175,324,o),
(134,181,o),
(107,101,cs),
(98,74,o),
(82,66,o),
(58,63,cs),
(54,63,o),
(36,57,o),
(1,57,cs),
(-12,57,o),
(-28,47,o),
(-28,30,cs),
(-28,11,o),
(-17,0,o),
(-5,0,cs),
(273,0,ls),
(300,0,o),
(307,14,o),
(307,29,cs),
(307,53,o),
(295,61,o),
(274,61,cs),
(251,61,o),
(233,62,o),
(221,65,cs),
(208,68,o),
(202,72,o),
(202,77,cs),
(202,98,o),
(219,168,o),
(238,214,c),
(470,214,l),
(468,222,o),
(517,59,o),
(517,35,cs),
(517,-16,o),
(464,5,o),
(464,-33,cs),
(464,-44,o),
(471,-55,o),
(495,-55,cs)
);
},
{
closed = 1;
nodes = (
(304,296,o),
(314,298,o),
(262,298,c),
(284,379,o),
(315,510,o),
(362,691,c),
(385,566,o),
(421,414,o),
(453,298,c),
(420,298,o),
(415,296,o),
(358,296,cs)
);
},
{
closed = 1;
nodes = (
(328,880,o),
(425,881,o),
(499,881,cs),
(528,881,o),
(535,908,o),
(535,923,cs),
(535,943,o),
(522,960,o),
(507,960,cs),
(491,960,o),
(473,960,o),
(452,959,cs),
(431,958,o),
(407,957,o),
(379,957,cs),
(337,957,o),
(288,959,o),
(258,959,cs),
(235,959,o),
(225,939,o),
(225,920,cs),
(225,901,o),
(239,880,o),
(258,880,cs)
);
}
);
userData = {
assembly = "PUSHB[ ]	/* 6 values pushed */
69 1 8 7 1 66
MPPEM[ ]	/* MeasurePixelPerEm */
PUSHB[ ]	/* 1 value pushed */
45
LT[ ]	/* LessThan */
IF[ ]	/* If */
NPUSHB[ ]	/* 42 values pushed */
11 1 9 0 10 7 9 10 91 0 8 0 2 3 8 2 90 0 0 0 1 0 1 87 0 7 7 20 67 6 5 2 3 3 4 83 0 4 4 13 4 68
ELSE[ ]	/* Else */
NPUSHB[ ]	/* 45 values pushed */
0 7 10 8 10 7 8 104 11 1 9 0 10 7 9 10 91 0 8 0 2 3 8 2 90 0 0 0 1 0 1 87 6 5 2 3 3 4 83 0 4 4 13 4 68
EIF[ ]	/* EndIf */
NPUSHB[ ]	/* 19 values pushed */
90 89 103 96 89 115 90 107 168 44 19 36 52 39 28 52 51 12 24
CALL[ ]	/* CallFunction */";
};
width = 710;
},
{
layerId = "62092E79-60F6-4D0B-8A38-B9DDC6B60A9E";
shapes = (
{
closed = 1;
nodes = (
(719,-55,ls),
(742,-55,o),
(754,-50,o),
(754,-31,cs),
(754,-12,o),
(732,-9,o),
(713,-9,cs),
(649,-9,o),
(608,-8,o),
(600,23,cs),
(388,816,l),
(388,816,l),
(384,830,o),
(372,837,o),
(353,837,cs),
(329,837,o),
(320,827,o),
(317,816,cs),
(293,737,o),
(268,639,o),
(220,467,cs),
(174,304,o),
(138,173,o),
(108,89,cs),
(100,65,o),
(87,54,o),
(59,51,cs),
(60,51,o),
(15,45,o),
(-12,45,cs),
(-25,45,o),
(-37,37,o),
(-37,24,cs),
(-37,9,o),
(-26,0,o),
(-14,0,cs),
(253,0,ls),
(280,0,o),
(287,12,o),
(287,24,cs),
(287,44,o),
(271,49,o),
(258,49,cs),
(224,49,o),
(182,49,o),
(182,65,cs),
(182,92,o),
(208,175,o),
(225,223,c),
(473,223,l),
(477,207,o),
(490,168,o),
(503,116,cs),
(518,57,o),
(526,24,o),
(526,15,cs),
(526,-33,o),
(455,-14,o),
(455,-39,cs),
(455,-44,o),
(457,-48,o),
(462,-51,cs),
(466,-54,o),
(474,-55,o),
(486,-55,cs)
);
},
{
closed = 1;
nodes = (
(285,288,o),
(265,288,o),
(244,289,c),
(255,332,o),
(278,424,o),
(304,516,cs),
(330,613,o),
(347,680,o),
(356,715,c),
(381,597,o),
(431,393,o),
(458,289,c),
(443,288,o),
(427,288,o),
(411,288,cs),
(394,288,o),
(378,288,o),
(363,288,cs),
(342,288,o),
(323,288,o),
(304,288,cs)
);
},
{
closed = 1;
nodes = (
(319,877,o),
(416,878,o),
(490,878,cs),
(513,878,o),
(519,900,o),
(519,911,cs),
(519,926,o),
(509,939,o),
(498,939,cs),
(482,939,o),
(464,939,o),
(443,938,cs),
(422,937,o),
(398,936,o),
(370,936,cs),
(328,936,o),
(279,938,o),
(249,938,cs),
(230,938,o),
(223,923,o),
(223,908,cs),
(223,893,o),
(234,877,o),
(249,877,cs)
);
}
);
userData = {
assembly = "PUSHB[ ]	/* 6 values pushed */
71 1 8 7 1 66
MPPEM[ ]	/* MeasurePixelPerEm */
PUSHB[ ]	/* 1 value pushed */
45
LT[ ]	/* LessThan */
IF[ ]	/* If */
NPUSHB[ ]	/* 42 values pushed */
11 1 9 0 10 7 9 10 91 0 8 0 2 3 8 2 90 0 0 0 1 0 1 87 0 7 7 20 67 6 5 2 3 3 4 83 0 4 4 13 4 68
ELSE[ ]	/* Else */
NPUSHB[ ]	/* 45 values pushed */
0 7 10 8 10 7 8 104 11 1 9 0 10 7 9 10 91 0 8 0 2 3 8 2 90 0 0 0 1 0 1 87 6 5 2 3 3 4 83 0 4 4 13 4 68
EIF[ ]	/* EndIf */
NPUSHB[ ]	/* 19 values pushed */
90 89 101 94 89 113 90 105 105 44 19 36 52 56 30 52 35 12 35
CALL[ ]	/* CallFunction */";
};
width = 698;
},
{
layerId = "E59D8378-1062-4241-9A8F-EEB295F00E05";
shapes = (
{
closed = 1;
nodes = (
(686,-55,ls),
(709,-55,o),
(721,-50,o),
(721,-41,cs),
(721,-29,o),
(704,-29,o),
(685,-29,cs),
(653,-29,o),
(629,-27,o),
(612,-23,cs),
(595,-19,o),
(585,-10,o),
(582,3,cs),
(365,816,ls),
(361,831,o),
(352,835,o),
(345,835,cs),
(334,835,o),
(327,827,o),
(324,816,cs),
(310,767,o),
(265,604,o),
(225,457,cs),
(181,298,o),
(146,172,o),
(110,69,cs),
(101,45,o),
(90,34,o),
(61,31,cs),
(62,31,o),
(9,25,o),
(-30,25,cs),
(-43,25,o),
(-50,21,o),
(-50,14,cs),
(-50,3,o),
(-39,0,o),
(-27,0,cs),
(225,0,ls),
(238,0,o),
(247,2,o),
(252,5,cs),
(257,8,o),
(259,12,o),
(259,15,cs),
(259,30,o),
(238,29,o),
(225,29,cs),
(205,29,o),
(154,26,o),
(154,45,cs),
(154,74,o),
(187,173,o),
(206,238,c),
(477,238,l),
(481,219,o),
(496,170,o),
(511,113,cs),
(528,45,o),
(538,6,o),
(538,-5,cs),
(538,-37,o),
(442,-16,o),
(442,-41,cs),
(442,-46,o),
(444,-50,o),
(449,-52,cs),
(453,-54,o),
(461,-55,o),
(473,-55,cs)
);
},
{
closed = 1;
nodes = (
(299,272,o),
(259,273,o),
(218,274,c),
(233,339,o),
(254,418,o),
(284,530,cs),
(314,640,o),
(334,709,o),
(343,755,c),
(374,642,o),
(431,411,o),
(465,274,c),
(424,273,o),
(381,272,o),
(340,272,cs)
);
},
{
closed = 1;
nodes = (
(306,875,o),
(403,876,o),
(477,876,cs),
(492,876,o),
(496,887,o),
(496,894,cs),
(496,901,o),
(490,907,o),
(485,907,cs),
(469,907,o),
(451,907,o),
(430,906,cs),
(409,905,o),
(385,904,o),
(357,904,cs),
(315,904,o),
(266,906,o),
(236,906,cs),
(225,906,o),
(220,898,o),
(220,891,cs),
(220,884,o),
(227,875,o),
(236,875,cs)
);
}
);
userData = {
assembly = "PUSHB[ ]	/* 6 values pushed */
69 1 9 8 1 66
MPPEM[ ]	/* MeasurePixelPerEm */
PUSHB[ ]	/* 1 value pushed */
45
LT[ ]	/* LessThan */
IF[ ]	/* If */
NPUSHB[ ]	/* 43 values pushed */
12 1 10 0 11 8 10 11 91 0 9 0 3 4 9 3 90 2 1 0 0 1 0 1 87 0 8 8 20 67 7 6 2 4 4 5 83 0 5 5 13 5 68
ELSE[ ]	/* Else */
NPUSHB[ ]	/* 46 values pushed */
0 8 11 9 11 8 9 104 12 1 10 0 11 8 10 11 91 0 9 0 3 4 9 3 90 2 1 0 0 1 0 1 87 7 6 2 4 4 5 83 0 5 5 13 5 68
EIF[ ]	/* EndIf */
NPUSHB[ ]	/* 21 values pushed */
88 87 99 92 87 111 88 103 82 76 44 18 51 52 56 25 20 51 34 13 24
CALL[ ]	/* CallFunction */";
};
width = 681;
}
);
note = Amacron;
unicode = 256;
},
{
glyphname = Aogonek;
kernLeft = Aacute;
kernRight = Aacute;
lastChange = "2024-06-14 08:59:27 +0000";
layers = (
{
layerId = m01;
shapes = (
{
closed = 1;
nodes = (
(674,-212,o),
(705,-183,o),
(705,-159,cs),
(705,-147,o),
(693,-135,o),
(680,-135,cs),
(660,-135,o),
(661,-159,o),
(620,-159,cs),
(605,-159,o),
(591,-153,o),
(591,-138,cs),
(591,-111,o),
(607,-70,o),
(636,-55,c),
(742,-55,ls),
(765,-55,o),
(777,-49,o),
(777,-25,cs),
(777,-2,o),
(752,3,o),
(733,3,cs),
(648,3,o),
(619,8,o),
(613,35,cs),
(410,793,ls),
(402,824,o),
(387,838,o),
(359,838,cs),
(324,838,o),
(314,823,o),
(305,792,cs),
(285,726,o),
(251,598,o),
(213,460,cs),
(175,324,o),
(134,181,o),
(107,101,cs),
(98,74,o),
(82,66,o),
(58,63,cs),
(54,63,o),
(36,57,o),
(1,57,cs),
(-12,57,o),
(-28,47,o),
(-28,30,cs),
(-28,11,o),
(-17,0,o),
(-5,0,cs),
(273,0,ls),
(300,0,o),
(307,14,o),
(307,29,cs),
(307,53,o),
(295,61,o),
(274,61,cs),
(251,61,o),
(233,62,o),
(221,65,cs),
(208,68,o),
(202,72,o),
(202,77,cs),
(202,98,o),
(219,168,o),
(238,214,c),
(470,214,l),
(468,222,o),
(517,59,o),
(517,35,cs),
(517,-16,o),
(464,5,o),
(464,-33,cs),
(464,-44,o),
(471,-55,o),
(495,-55,cs),
(579,-55,l),
(554,-69,o),
(512,-94,o),
(512,-137,cs),
(512,-189,o),
(572,-212,o),
(622,-212,cs)
);
},
{
closed = 1;
nodes = (
(304,296,o),
(314,298,o),
(262,298,c),
(284,379,o),
(315,510,o),
(362,691,c),
(385,566,o),
(421,414,o),
(453,298,c),
(420,298,o),
(415,296,o),
(358,296,cs)
);
}
);
userData = {
assembly = "PUSHB[ ]	/* 6 values pushed */
99 1 12 7 1 66
MPPEM[ ]	/* MeasurePixelPerEm */
PUSHB[ ]	/* 1 value pushed */
20
LT[ ]	/* LessThan */
IF[ ]	/* If */
NPUSHB[ ]	/* 54 values pushed */
0 11 1 10 1 11 10 104 0 12 0 2 3 12 2 90 0 8 9 1 1 11 8 1 91 0 7 7 20 67 6 5 2 3 3 4 83 0 4 4 13 67 0 10 10 0 83 13 1 0 0 17 0 68
ELSE[ ]	/* Else */
MPPEM[ ]	/* MeasurePixelPerEm */
PUSHB[ ]	/* 1 value pushed */
45
LT[ ]	/* LessThan */
IF[ ]	/* If */
NPUSHB[ ]	/* 51 values pushed */
0 11 1 10 1 11 10 104 0 12 0 2 3 12 2 90 0 8 9 1 1 11 8 1 91 0 10 13 1 0 10 0 87 0 7 7 20 67 6 5 2 3 3 4 83 0 4 4 13 4 68
ELSE[ ]	/* Else */
NPUSHB[ ]	/* 51 values pushed */
0 7 12 7 106 0 11 1 10 1 11 10 104 0 12 0 2 3 12 2 90 0 8 9 1 1 11 8 1 91 0 10 13 1 0 10 0 87 6 5 2 3 3 4 83 0 4 4 13 4 68
EIF[ ]	/* EndIf */
EIF[ ]	/* EndIf */
NPUSHB[ ]	/* 32 values pushed */
1 0 114 104 92 90 87 85 80 78 74 71 65 63 51 50 47 45 41 38 34 32 25 24 12 10 0 98 1 98 14 15
CALL[ ]	/* CallFunction */";
};
width = 710;
},
{
layerId = "62092E79-60F6-4D0B-8A38-B9DDC6B60A9E";
shapes = (
{
closed = 1;
nodes = (
(719,-55,ls),
(742,-55,o),
(754,-50,o),
(754,-31,cs),
(754,-12,o),
(732,-9,o),
(713,-9,cs),
(649,-9,o),
(608,-8,o),
(600,23,cs),
(388,816,l),
(388,816,l),
(384,830,o),
(372,837,o),
(353,837,cs),
(329,837,o),
(320,827,o),
(317,816,cs),
(293,737,o),
(268,639,o),
(220,467,cs),
(174,304,o),
(138,173,o),
(108,89,cs),
(100,65,o),
(87,54,o),
(59,51,cs),
(60,51,o),
(15,45,o),
(-12,45,cs),
(-25,45,o),
(-37,37,o),
(-37,24,cs),
(-37,9,o),
(-26,0,o),
(-14,0,cs),
(253,0,ls),
(280,0,o),
(287,12,o),
(287,24,cs),
(287,44,o),
(271,49,o),
(258,49,cs),
(224,49,o),
(182,49,o),
(182,65,cs),
(182,92,o),
(208,175,o),
(225,223,c),
(473,223,l),
(477,207,o),
(490,168,o),
(503,116,cs),
(518,57,o),
(526,24,o),
(526,15,cs),
(526,-33,o),
(455,-14,o),
(455,-39,cs),
(455,-44,o),
(457,-48,o),
(462,-51,cs),
(466,-54,o),
(474,-55,o),
(486,-55,cs)
);
},
{
closed = 1;
nodes = (
(651,-201,o),
(681,-160,o),
(681,-150,cs),
(681,-139,o),
(675,-128,o),
(660,-128,cs),
(656,-128,o),
(652,-130,o),
(647,-134,cs),
(642,-139,o),
(636,-144,o),
(631,-149,cs),
(625,-155,o),
(614,-158,o),
(597,-158,cs),
(581,-158,o),
(566,-143,o),
(566,-127,cs),
(566,-108,o),
(580,-54,o),
(625,-39,c),
(575,-38,l),
(575,-38,l),
(561,-45,o),
(549,-52,o),
(538,-61,cs),
(519,-76,o),
(502,-97,o),
(502,-128,cs),
(502,-171,o),
(544,-201,o),
(603,-201,cs)
);
},
{
closed = 1;
nodes = (
(285,288,o),
(265,288,o),
(244,289,c),
(255,332,o),
(278,424,o),
(304,516,cs),
(330,613,o),
(347,680,o),
(356,715,c),
(381,597,o),
(431,393,o),
(458,289,c),
(443,288,o),
(427,288,o),
(411,288,cs),
(394,288,o),
(378,288,o),
(363,288,cs),
(342,288,o),
(323,288,o),
(304,288,cs)
);
}
);
userData = {
assembly = "PUSHB[ ]	/* 6 values pushed */
71 1 8 7 1 66
MPPEM[ ]	/* MeasurePixelPerEm */
PUSHB[ ]	/* 1 value pushed */
24
LT[ ]	/* LessThan */
IF[ ]	/* If */
NPUSHB[ ]	/* 60 values pushed */
0 0 4 12 12 0 96 0 10 1 9 1 10 9 104 0 8 0 2 3 8 2 90 13 1 12 0 1 10 12 1 92 0 7 7 20 67 6 5 2 3 3 4 83 0 4 4 13 67 0 9 9 11 83 0 11 11 17 11 68
ELSE[ ]	/* Else */
MPPEM[ ]	/* MeasurePixelPerEm */
PUSHB[ ]	/* 1 value pushed */
41
LT[ ]	/* LessThan */
IF[ ]	/* If */
NPUSHB[ ]	/* 57 values pushed */
0 0 4 12 12 0 96 0 10 1 9 1 10 9 104 0 8 0 2 3 8 2 90 13 1 12 0 1 10 12 1 92 0 9 0 11 9 11 87 0 7 7 20 67 6 5 2 3 3 4 83 0 4 4 13 4 68
ELSE[ ]	/* Else */
MPPEM[ ]	/* MeasurePixelPerEm */
PUSHB[ ]	/* 1 value pushed */
45
LT[ ]	/* LessThan */
IF[ ]	/* If */
NPUSHB[ ]	/* 58 values pushed */
0 0 4 12 4 0 12 104 0 10 1 9 1 10 9 104 0 8 0 2 3 8 2 90 13 1 12 0 1 10 12 1 92 0 9 0 11 9 11 87 0 7 7 20 67 6 5 2 3 3 4 83 0 4 4 13 4 68
ELSE[ ]	/* Else */
NPUSHB[ ]	/* 58 values pushed */
0 7 8 7 106 0 0 4 12 4 0 12 104 0 10 1 9 1 10 9 104 0 8 0 2 3 8 2 90 13 1 12 0 1 10 12 1 92 0 9 0 11 9 11 87 6 5 2 3 3 4 83 0 4 4 13 4 68
EIF[ ]	/* EndIf */
EIF[ ]	/* EndIf */
EIF[ ]	/* EndIf */
NPUSHB[ ]	/* 23 values pushed */
89 89 89 118 89 118 111 109 103 101 98 96 105 44 19 36 52 56 30 52 35 14 35
CALL[ ]	/* CallFunction */";
};
width = 698;
},
{
layerId = "E59D8378-1062-4241-9A8F-EEB295F00E05";
shapes = (
{
closed = 1;
nodes = (
(628,-202,o),
(658,-161,o),
(658,-151,cs),
(658,-143,o),
(656,-135,o),
(644,-135,cs),
(625,-135,o),
(619,-175,o),
(582,-175,cs),
(551,-175,o),
(543,-145,o),
(543,-128,cs),
(543,-110,o),
(551,-77,o),
(576,-55,c),
(686,-55,ls),
(709,-55,o),
(721,-50,o),
(721,-41,cs),
(721,-29,o),
(704,-29,o),
(685,-29,cs),
(653,-29,o),
(629,-27,o),
(612,-23,cs),
(595,-19,o),
(585,-10,o),
(582,3,cs),
(365,816,ls),
(361,831,o),
(352,835,o),
(345,835,cs),
(334,835,o),
(327,827,o),
(324,816,cs),
(310,767,o),
(265,604,o),
(225,457,cs),
(181,298,o),
(146,172,o),
(110,69,cs),
(101,45,o),
(90,34,o),
(61,31,cs),
(62,31,o),
(9,25,o),
(-30,25,cs),
(-43,25,o),
(-50,21,o),
(-50,14,cs),
(-50,3,o),
(-39,0,o),
(-27,0,cs),
(225,0,ls),
(238,0,o),
(247,2,o),
(252,5,cs),
(257,8,o),
(259,12,o),
(259,15,cs),
(259,30,o),
(238,29,o),
(225,29,cs),
(205,29,o),
(154,26,o),
(154,45,cs),
(154,74,o),
(187,173,o),
(206,238,c),
(477,238,l),
(481,219,o),
(496,170,o),
(511,113,cs),
(528,45,o),
(538,6,o),
(538,-5,cs),
(538,-37,o),
(442,-16,o),
(442,-41,cs),
(442,-46,o),
(444,-50,o),
(449,-52,cs),
(453,-54,o),
(461,-55,o),
(473,-55,cs),
(540,-55,l),
(521,-70,o),
(499,-94,o),
(499,-129,cs),
(499,-172,o),
(533,-202,o),
(580,-202,cs)
);
},
{
closed = 1;
nodes = (
(299,272,o),
(259,273,o),
(218,274,c),
(233,339,o),
(254,418,o),
(284,530,cs),
(314,640,o),
(334,709,o),
(343,755,c),
(374,642,o),
(431,411,o),
(465,274,c),
(424,273,o),
(381,272,o),
(340,272,cs)
);
}
);
userData = {
assembly = "PUSHB[ ]	/* 6 values pushed */
99 1 13 12 1 66
MPPEM[ ]	/* MeasurePixelPerEm */
PUSHB[ ]	/* 1 value pushed */
39
LT[ ]	/* LessThan */
IF[ ]	/* If */
NPUSHB[ ]	/* 54 values pushed */
0 3 1 2 1 3 2 104 0 13 0 7 8 13 7 90 6 1 0 5 1 1 3 0 1 91 0 12 12 20 67 11 10 2 8 8 9 83 0 9 9 13 67 0 2 2 4 83 0 4 4 17 4 68
ELSE[ ]	/* Else */
MPPEM[ ]	/* MeasurePixelPerEm */
PUSHB[ ]	/* 1 value pushed */
45
LT[ ]	/* LessThan */
IF[ ]	/* If */
NPUSHB[ ]	/* 51 values pushed */
0 3 1 2 1 3 2 104 0 13 0 7 8 13 7 90 6 1 0 5 1 1 3 0 1 91 0 2 0 4 2 4 87 0 12 12 20 67 11 10 2 8 8 9 83 0 9 9 13 9 68
ELSE[ ]	/* Else */
NPUSHB[ ]	/* 51 values pushed */
0 12 13 12 106 0 3 1 2 1 3 2 104 0 13 0 7 8 13 7 90 6 1 0 5 1 1 3 0 1 91 0 2 0 4 2 4 87 11 10 2 8 8 9 83 0 9 9 13 9 68
EIF[ ]	/* EndIf */
EIF[ ]	/* EndIf */
NPUSHB[ ]	/* 21 values pushed */
112 106 96 94 82 81 79 76 73 70 56 25 20 37 38 35 41 35 34 14 24
CALL[ ]	/* CallFunction */";
};
width = 681;
}
);
note = Aogonek;
unicode = 260;
},
{
glyphname = Aring;
kernLeft = Aacute;
kernRight = Aacute;
lastChange = "2024-06-14 08:59:27 +0000";
layers = (
{
layerId = m01;
shapes = (
{
closed = 1;
nodes = (
(742,-55,ls),
(765,-55,o),
(777,-49,o),
(777,-25,cs),
(777,-2,o),
(752,3,o),
(733,3,cs),
(648,3,o),
(619,8,o),
(613,35,cs),
(410,793,l),
(410,793,l),
(402,824,o),
(387,838,o),
(359,838,cs),
(324,838,o),
(314,823,o),
(305,792,cs),
(285,726,o),
(251,598,o),
(213,460,cs),
(175,324,o),
(134,181,o),
(107,101,cs),
(98,74,o),
(82,66,o),
(58,63,cs),
(54,63,o),
(36,57,o),
(1,57,cs),
(-12,57,o),
(-28,47,o),
(-28,30,cs),
(-28,11,o),
(-17,0,o),
(-5,0,cs),
(273,0,ls),
(300,0,o),
(307,14,o),
(307,29,cs),
(307,53,o),
(295,61,o),
(274,61,cs),
(251,61,o),
(233,62,o),
(221,65,cs),
(208,68,o),
(202,72,o),
(202,77,cs),
(202,98,o),
(219,168,o),
(238,214,c),
(470,214,l),
(468,222,o),
(517,59,o),
(517,35,cs),
(517,-16,o),
(464,5,o),
(464,-33,cs),
(464,-44,o),
(471,-55,o),
(495,-55,cs)
);
},
{
closed = 1;
nodes = (
(304,296,o),
(314,298,o),
(262,298,c),
(284,379,o),
(315,510,o),
(362,691,c),
(385,566,o),
(421,414,o),
(453,298,c),
(420,298,o),
(415,296,o),
(358,296,cs)
);
},
{
closed = 1;
nodes = (
(416,840,o),
(449,862,o),
(449,907,cs),
(449,950,o),
(423,972,o),
(371,972,cs),
(330,972,o),
(297,944,o),
(297,905,cs),
(297,866,o),
(331,840,o),
(376,840,cs)
);
},
{
closed = 1;
nodes = (
(367,882,o),
(352,886,o),
(352,905,cs),
(352,928,o),
(368,930,o),
(373,930,cs),
(380,930,o),
(394,927,o),
(394,906,cs),
(394,886,o),
(383,882,o),
(376,882,cs)
);
}
);
userData = {
assembly = "PUSHB[ ]	/* 6 values pushed */
92 1 12 11 1 66
MPPEM[ ]	/* MeasurePixelPerEm */
PUSHB[ ]	/* 1 value pushed */
14
LT[ ]	/* LessThan */
IF[ ]	/* If */
NPUSHB[ ]	/* 55 values pushed */
13 1 2 1 3 0 2 96 0 3 0 1 3 94 0 1 0 0 11 1 0 91 0 12 0 6 7 12 6 90 0 4 0 5 4 5 87 0 11 11 20 67 10 9 2 7 7 8 83 0 8 8 13 8 68
ELSE[ ]	/* Else */
MPPEM[ ]	/* MeasurePixelPerEm */
PUSHB[ ]	/* 1 value pushed */
45
LT[ ]	/* LessThan */
IF[ ]	/* If */
NPUSHB[ ]	/* 57 values pushed */
13 1 2 1 3 1 2 3 104 0 3 0 1 3 0 102 0 1 0 0 11 1 0 91 0 12 0 6 7 12 6 90 0 4 0 5 4 5 87 0 11 11 20 67 10 9 2 7 7 8 83 0 8 8 13 8 68
ELSE[ ]	/* Else */
NPUSHB[ ]	/* 60 values pushed */
13 1 2 1 3 1 2 3 104 0 3 0 1 3 0 102 0 11 0 12 0 11 12 104 0 1 0 0 11 1 0 91 0 12 0 6 7 12 6 90 0 4 0 5 4 5 87 10 9 2 7 7 8 83 0 8 8 13 8 68
EIF[ ]	/* EndIf */
EIF[ ]	/* EndIf */
NPUSHB[ ]	/* 30 values pushed */
12 11 107 97 89 87 75 74 71 69 65 62 58 56 49 48 36 33 29 26 18 16 11 22 12 22 36 34 14 17
CALL[ ]	/* CallFunction */";
};
width = 710;
},
{
layerId = "62092E79-60F6-4D0B-8A38-B9DDC6B60A9E";
shapes = (
{
closed = 1;
nodes = (
(719,-55,ls),
(742,-55,o),
(754,-50,o),
(754,-31,cs),
(754,-12,o),
(732,-9,o),
(713,-9,cs),
(649,-9,o),
(608,-8,o),
(600,23,cs),
(388,816,l),
(388,816,l),
(384,830,o),
(372,837,o),
(353,837,cs),
(329,837,o),
(320,827,o),
(317,816,cs),
(293,737,o),
(268,639,o),
(220,467,cs),
(174,304,o),
(138,173,o),
(108,89,cs),
(100,65,o),
(87,54,o),
(59,51,cs),
(60,51,o),
(15,45,o),
(-12,45,cs),
(-25,45,o),
(-37,37,o),
(-37,24,cs),
(-37,9,o),
(-26,0,o),
(-14,0,cs),
(253,0,ls),
(280,0,o),
(287,12,o),
(287,24,cs),
(287,44,o),
(271,49,o),
(258,49,cs),
(224,49,o),
(182,49,o),
(182,65,cs),
(182,92,o),
(208,175,o),
(225,223,c),
(473,223,l),
(477,207,o),
(490,168,o),
(503,116,cs),
(518,57,o),
(526,24,o),
(526,15,cs),
(526,-33,o),
(455,-14,o),
(455,-39,cs),
(455,-44,o),
(457,-48,o),
(462,-51,cs),
(466,-54,o),
(474,-55,o),
(486,-55,cs)
);
},
{
closed = 1;
nodes = (
(285,288,o),
(265,288,o),
(244,289,c),
(255,332,o),
(278,424,o),
(304,516,cs),
(330,613,o),
(347,680,o),
(356,715,c),
(381,597,o),
(431,393,o),
(458,289,c),
(443,288,o),
(427,288,o),
(411,288,cs),
(394,288,o),
(378,288,o),
(363,288,cs),
(342,288,o),
(323,288,o),
(304,288,cs)
);
},
{
closed = 1;
nodes = (
(399,853,o),
(433,873,o),
(433,914,cs),
(433,953,o),
(409,972,o),
(362,972,cs),
(322,972,o),
(291,947,o),
(291,912,cs),
(291,877,o),
(323,853,o),
(363,853,cs)
);
},
{
closed = 1;
nodes = (
(355,887,o),
(336,892,o),
(336,912,cs),
(336,932,o),
(351,938,o),
(362,938,cs),
(375,938,o),
(388,932,o),
(388,913,cs),
(388,892,o),
(370,887,o),
(363,887,cs)
);
}
);
userData = {
assembly = "PUSHB[ ]	/* 6 values pushed */
93 1 12 11 1 66
MPPEM[ ]	/* MeasurePixelPerEm */
PUSHB[ ]	/* 1 value pushed */
14
LT[ ]	/* LessThan */
IF[ ]	/* If */
NPUSHB[ ]	/* 55 values pushed */
13 1 2 1 3 0 2 96 0 3 0 1 3 94 0 1 0 0 11 1 0 91 0 12 0 6 7 12 6 90 0 4 0 5 4 5 87 0 11 11 20 67 10 9 2 7 7 8 83 0 8 8 13 8 68
ELSE[ ]	/* Else */
MPPEM[ ]	/* MeasurePixelPerEm */
PUSHB[ ]	/* 1 value pushed */
45
LT[ ]	/* LessThan */
IF[ ]	/* If */
NPUSHB[ ]	/* 57 values pushed */
13 1 2 1 3 1 2 3 104 0 3 0 1 3 0 102 0 1 0 0 11 1 0 91 0 12 0 6 7 12 6 90 0 4 0 5 4 5 87 0 11 11 20 67 10 9 2 7 7 8 83 0 8 8 13 8 68
ELSE[ ]	/* Else */
NPUSHB[ ]	/* 60 values pushed */
13 1 2 1 3 1 2 3 104 0 3 0 1 3 0 102 0 11 0 12 0 11 12 104 0 1 0 0 11 1 0 91 0 12 0 6 7 12 6 90 0 4 0 5 4 5 87 10 9 2 7 7 8 83 0 8 8 13 8 68
EIF[ ]	/* EndIf */
EIF[ ]	/* EndIf */
NPUSHB[ ]	/* 30 values pushed */
12 11 106 100 91 89 77 76 73 71 67 64 60 57 49 48 34 31 27 25 18 16 11 22 12 22 36 34 14 17
CALL[ ]	/* CallFunction */";
};
width = 698;
},
{
layerId = "E59D8378-1062-4241-9A8F-EEB295F00E05";
shapes = (
{
closed = 1;
nodes = (
(686,-55,ls),
(709,-55,o),
(721,-50,o),
(721,-41,cs),
(721,-29,o),
(704,-29,o),
(685,-29,cs),
(653,-29,o),
(629,-27,o),
(612,-23,cs),
(595,-19,o),
(585,-10,o),
(582,3,cs),
(365,816,ls),
(361,831,o),
(352,835,o),
(345,835,cs),
(334,835,o),
(327,827,o),
(324,816,cs),
(310,767,o),
(265,604,o),
(225,457,cs),
(181,298,o),
(146,172,o),
(110,69,cs),
(101,45,o),
(90,34,o),
(61,31,cs),
(62,31,o),
(9,25,o),
(-30,25,cs),
(-43,25,o),
(-50,21,o),
(-50,14,cs),
(-50,3,o),
(-39,0,o),
(-27,0,cs),
(225,0,ls),
(238,0,o),
(247,2,o),
(252,5,cs),
(257,8,o),
(259,12,o),
(259,15,cs),
(259,30,o),
(238,29,o),
(225,29,cs),
(205,29,o),
(154,26,o),
(154,45,cs),
(154,74,o),
(187,173,o),
(206,238,c),
(477,238,l),
(481,219,o),
(496,170,o),
(511,113,cs),
(528,45,o),
(538,6,o),
(538,-5,cs),
(538,-37,o),
(442,-16,o),
(442,-41,cs),
(442,-46,o),
(444,-50,o),
(449,-52,cs),
(453,-54,o),
(461,-55,o),
(473,-55,cs)
);
},
{
closed = 1;
nodes = (
(299,272,o),
(259,273,o),
(218,274,c),
(233,339,o),
(254,418,o),
(284,530,cs),
(314,640,o),
(334,709,o),
(343,755,c),
(374,642,o),
(431,411,o),
(465,274,c),
(424,273,o),
(381,272,o),
(340,272,cs)
);
},
{
closed = 1;
nodes = (
(375,875,o),
(410,891,o),
(410,925,cs),
(410,950,o),
(389,972,o),
(349,972,cs),
(310,972,o),
(283,951,o),
(283,923,cs),
(283,895,o),
(310,875,o),
(345,875,cs)
);
},
{
closed = 1;
nodes = (
(322,895,o),
(313,908,o),
(313,923,cs),
(313,935,o),
(322,951,o),
(347,951,cs),
(374,951,o),
(380,936,o),
(380,924,cs),
(380,905,o),
(368,895,o),
(345,895,cs)
);
}
);
userData = {
assembly = "PUSHB[ ]	/* 6 values pushed */
94 1 13 12 1 66
MPPEM[ ]	/* MeasurePixelPerEm */
PUSHB[ ]	/* 1 value pushed */
45
LT[ ]	/* LessThan */
IF[ ]	/* If */
NPUSHB[ ]	/* 51 values pushed */
0 1 14 1 2 3 1 2 91 0 3 0 0 12 3 0 91 0 13 0 7 8 13 7 90 6 1 4 0 5 4 5 87 0 12 12 20 67 11 10 2 8 8 9 83 0 9 9 13 9 68
ELSE[ ]	/* Else */
NPUSHB[ ]	/* 54 values pushed */
0 12 0 13 0 12 13 104 0 1 14 1 2 3 1 2 91 0 3 0 0 12 3 0 91 0 13 0 7 8 13 7 90 6 1 4 0 5 4 5 87 11 10 2 8 8 9 83 0 9 9 13 9 68
EIF[ ]	/* EndIf */
NPUSHB[ ]	/* 32 values pushed */
15 14 107 101 91 89 77 76 74 71 68 65 61 58 50 49 40 39 35 32 29 27 21 19 14 24 15 24 36 36 15 17
CALL[ ]	/* CallFunction */";
};
width = 681;
}
);
note = Aring;
unicode = 197;
},
{
glyphname = Aringacute;
kernLeft = Aacute;
kernRight = Aacute;
lastChange = "2024-06-14 08:59:27 +0000";
layers = (
{
layerId = m01;
shapes = (
{
closed = 1;
nodes = (
(522,-58,o),
(544,-57,o),
(565,-55,cs),
(586,-54,o),
(609,-53,o),
(634,-53,cs),
(649,-53,o),
(668,-53,o),
(690,-54,cs),
(711,-55,o),
(730,-55,o),
(746,-55,cs),
(769,-55,o),
(781,-49,o),
(781,-25,cs),
(781,-2,o),
(755,3,o),
(736,3,cs),
(701,3,o),
(673,5,o),
(653,9,cs),
(633,12,o),
(621,21,o),
(616,35,cs),
(408,717,ls),
(406,723,o),
(402,728,o),
(395,732,c),
(418,743,o),
(434,763,o),
(434,794,cs),
(434,825,o),
(422,844,o),
(397,853,c),
(433,871,o),
(479,906,o),
(479,936,cs),
(479,953,o),
(465,972,o),
(438,972,cs),
(400,972,o),
(324,899,o),
(324,872,cs),
(324,865,o),
(326,860,o),
(330,855,c),
(302,844,o),
(282,821,o),
(282,792,cs),
(282,763,o),
(300,743,o),
(327,732,c),
(321,729,o),
(317,724,o),
(316,717,c),
(294,652,o),
(260,543,o),
(221,425,cs),
(172,278,o),
(138,174,o),
(110,101,cs),
(99,74,o),
(86,66,o),
(61,63,cs),
(57,63,o),
(39,57,o),
(4,57,cs),
(-9,57,o),
(-24,47,o),
(-24,30,cs),
(-24,11,o),
(-13,0,o),
(-1,0,cs),
(24,0,o),
(48,1,o),
(72,2,cs),
(96,3,o),
(120,4,o),
(145,4,cs),
(167,4,o),
(189,3,o),
(211,2,cs),
(233,1,o),
(255,0,o),
(276,0,cs),
(303,0,o),
(310,14,o),
(310,29,cs),
(310,53,o),
(298,61,o),
(285,61,cs),
(253,61,o),
(232,63,o),
(222,67,cs),
(211,71,o),
(206,74,o),
(206,77,cs),
(206,75,o),
(222,136,o),
(254,214,c),
(464,214,l),
(469,201,o),
(521,52,o),
(521,27,cs),
(521,-33,o),
(468,-7,o),
(468,-38,cs),
(468,-49,o),
(475,-58,o),
(499,-58,cs)
);
},
{
closed = 1;
nodes = (
(312,297,o),
(296,297,o),
(278,298,c),
(286,327,o),
(304,385,o),
(325,453,cs),
(345,520,o),
(361,573,o),
(369,592,c),
(374,570,o),
(414,385,o),
(447,298,c),
(438,297,o),
(426,297,o),
(411,297,cs),
(396,297,o),
(384,297,o),
(375,297,cs),
(357,297,o),
(341,297,o),
(327,297,cs)
);
},
{
closed = 1;
nodes = (
(354,767,o),
(335,771,o),
(335,792,cs),
(335,815,o),
(351,818,o),
(358,818,cs),
(367,818,o),
(382,814,o),
(382,793,cs),
(382,772,o),
(368,767,o),
(361,767,cs)
);
}
);
userData = {
assembly = "NPUSHB[ ]	/* 81 values pushed */
99 84 2 10 8 114 101 78 3 4 9 11 2 66 0 8 10 8 106 12 1 10 11 10 106 0 11 9 11 106 0 9 0 3 4 9 3 90 0 0 2 1 1 0 1 87 7 6 2 4 4 5 83 0 5 5 13 5 68 120 119 126 124 119 130 120 130 113 108 92 90 19 36 132 39 28 33 84 40 13 23
CALL[ ]	/* CallFunction */";
};
width = 716;
},
{
layerId = "62092E79-60F6-4D0B-8A38-B9DDC6B60A9E";
shapes = (
{
closed = 1;
nodes = (
(722,-55,ls),
(745,-55,o),
(757,-50,o),
(757,-31,cs),
(757,-12,o),
(735,-9,o),
(716,-9,cs),
(652,-9,o),
(612,-8,o),
(603,23,cs),
(391,716,l),
(391,716,l),
(387,730,o),
(375,737,o),
(356,737,cs),
(332,737,o),
(323,727,o),
(320,716,c),
(298,654,o),
(269,559,o),
(223,417,cs),
(177,277,o),
(141,163,o),
(111,89,cs),
(103,65,o),
(90,54,o),
(62,51,cs),
(63,51,o),
(18,45,o),
(-9,45,cs),
(-22,45,o),
(-34,37,o),
(-34,24,cs),
(-34,9,o),
(-23,0,o),
(-11,0,cs),
(256,0,ls),
(283,0,o),
(290,12,o),
(290,24,cs),
(290,44,o),
(274,49,o),
(261,49,cs),
(227,49,o),
(185,49,o),
(185,65,c),
(188,89,o),
(219,176,o),
(238,223,c),
(466,223,l),
(470,212,o),
(484,170,o),
(502,116,cs),
(520,57,o),
(529,24,o),
(529,15,cs),
(529,-33,o),
(458,-14,o),
(458,-39,cs),
(458,-44,o),
(460,-48,o),
(465,-51,cs),
(469,-54,o),
(477,-55,o),
(489,-55,cs)
);
},
{
closed = 1;
nodes = (
(295,288,o),
(276,288,o),
(257,289,c),
(279,375,o),
(340,549,o),
(359,615,c),
(386,509,o),
(422,379,o),
(451,289,c),
(437,288,o),
(423,288,o),
(409,288,cs),
(394,288,o),
(380,288,o),
(366,288,cs),
(347,288,o),
(329,288,o),
(312,288,cs)
);
},
{
closed = 1;
nodes = (
(404,748,o),
(438,768,o),
(438,809,cs),
(438,848,o),
(414,867,o),
(367,867,cs),
(363,867,l),
(399,883,o),
(452,913,o),
(452,939,cs),
(452,958,o),
(442,969,o),
(422,972,c),
(390,972,o),
(318,908,o),
(315,882,cs),
(315,870,o),
(318,860,o),
(330,859,c),
(309,848,o),
(296,830,o),
(296,807,cs),
(296,772,o),
(328,748,o),
(368,748,cs)
);
},
{
closed = 1;
nodes = (
(360,782,o),
(341,787,o),
(341,807,cs),
(341,827,o),
(356,833,o),
(367,833,cs),
(380,833,o),
(393,827,o),
(393,808,cs),
(393,787,o),
(375,782,o),
(368,782,cs)
);
}
);
userData = {
assembly = "NPUSHB[ ]	/* 18 values pushed */
106 1 9 11 103 1 12 9 70 1 8 7 31 1 3 2 4 66
MPPEM[ ]	/* MeasurePixelPerEm */
PUSHB[ ]	/* 1 value pushed */
14
LT[ ]	/* LessThan */
IF[ ]	/* If */
NPUSHB[ ]	/* 63 values pushed */
0 11 9 11 106 14 1 12 9 13 10 12 96 0 13 10 9 13 94 0 7 10 8 10 7 8 104 0 9 0 10 7 9 10 91 0 8 0 2 3 8 2 90 0 0 0 1 0 1 87 6 5 2 3 3 4 83 0 4 4 13 4 68
ELSE[ ]	/* Else */
NPUSHB[ ]	/* 65 values pushed */
0 11 9 11 106 14 1 12 9 13 9 12 13 104 0 13 10 9 13 10 102 0 7 10 8 10 7 8 104 0 9 0 10 7 9 10 91 0 8 0 2 3 8 2 90 0 0 0 1 0 1 87 6 5 2 3 3 4 83 0 4 4 13 4 68
EIF[ ]	/* EndIf */
NPUSHB[ ]	/* 25 values pushed */
115 114 121 119 114 125 115 125 111 110 98 96 93 91 103 44 19 36 52 56 30 52 34 15 24
CALL[ ]	/* CallFunction */";
};
width = 703;
},
{
layerId = "E59D8378-1062-4241-9A8F-EEB295F00E05";
shapes = (
{
closed = 1;
nodes = (
(492,-55,o),
(510,-55,o),
(528,-54,cs),
(545,-53,o),
(563,-53,o),
(581,-53,cs),
(598,-53,o),
(616,-53,o),
(635,-54,cs),
(653,-55,o),
(671,-55,o),
(688,-55,cs),
(711,-55,o),
(723,-50,o),
(723,-41,cs),
(723,-29,o),
(706,-29,o),
(687,-29,cs),
(655,-29,o),
(631,-27,o),
(615,-23,cs),
(598,-19,o),
(588,-10,o),
(584,3,cs),
(367,714,ls),
(363,729,o),
(354,733,o),
(347,733,cs),
(336,733,o),
(329,725,o),
(326,714,cs),
(303,637,o),
(274,549,o),
(227,406,cs),
(175,250,o),
(148,171,o),
(112,69,cs),
(103,45,o),
(92,34,o),
(63,31,cs),
(64,31,o),
(11,25,o),
(-28,25,cs),
(-41,25,o),
(-48,21,o),
(-48,14,cs),
(-48,3,o),
(-37,0,o),
(-25,0,cs),
(18,1,o),
(58,2,o),
(101,2,cs),
(122,2,o),
(143,2,o),
(164,1,cs),
(185,0,o),
(206,0,o),
(227,0,cs),
(240,0,o),
(249,2,o),
(254,5,cs),
(259,8,o),
(261,12,o),
(261,15,cs),
(261,30,o),
(240,29,o),
(227,29,cs),
(207,29,o),
(156,26,o),
(156,45,cs),
(156,75,o),
(198,180,o),
(215,238,c),
(469,238,l),
(472,226,o),
(486,182,o),
(508,113,cs),
(529,43,o),
(540,7,o),
(540,-5,cs),
(540,-37,o),
(444,-16,o),
(444,-41,cs),
(444,-46,o),
(446,-50,o),
(451,-52,cs),
(455,-54,o),
(463,-55,o),
(475,-55,cs)
);
},
{
closed = 1;
nodes = (
(301,272,o),
(268,273,o),
(227,274,c),
(254,397,o),
(327,561,o),
(345,653,c),
(383,513,o),
(426,402,o),
(457,274,c),
(416,273,o),
(383,272,o),
(342,272,cs)
);
},
{
closed = 1;
nodes = (
(377,759,o),
(412,775,o),
(412,809,cs),
(412,834,o),
(391,856,o),
(351,856,cs),
(312,856,o),
(285,835,o),
(285,807,cs),
(285,779,o),
(312,759,o),
(347,759,cs)
);
},
{
closed = 1;
nodes = (
(324,782,o),
(319,792,o),
(319,807,cs),
(319,819,o),
(324,833,o),
(349,833,cs),
(376,833,o),
(377,820,o),
(377,808,cs),
(377,789,o),
(370,782,o),
(347,782,cs)
);
},
{
closed = 1;
nodes = (
(323,875,o),
(413,928,o),
(413,950,cs),
(413,969,o),
(405,972,o),
(394,972,cs),
(374,972,o),
(299,911,o),
(299,886,cs),
(299,879,o),
(302,875,o),
(307,875,cs)
);
}
);
userData = {
assembly = "PUSHB[ ]	/* 6 values pushed */
79 1 9 8 1 66
MPPEM[ ]	/* MeasurePixelPerEm */
PUSHB[ ]	/* 1 value pushed */
27
LT[ ]	/* LessThan */
IF[ ]	/* If */
NPUSHB[ ]	/* 66 values pushed */
0 15 14 15 106 0 14 11 14 106 0 8 10 9 10 8 9 104 0 13 0 10 8 13 10 91 0 9 0 3 4 9 3 90 2 1 0 0 1 0 1 87 16 1 12 12 11 83 0 11 11 20 67 7 6 2 4 4 5 83 0 5 5 13 5 68
ELSE[ ]	/* Else */
NPUSHB[ ]	/* 64 values pushed */
0 15 14 15 106 0 14 11 14 106 0 8 10 9 10 8 9 104 0 11 16 1 12 13 11 12 91 0 13 0 10 8 13 10 91 0 9 0 3 4 9 3 90 2 1 0 0 1 0 1 87 7 6 2 4 4 5 83 0 5 5 13 5 68
EIF[ ]	/* EndIf */
NPUSHB[ ]	/* 29 values pushed */
110 109 134 132 127 125 116 114 109 120 110 120 107 105 101 99 90 84 44 18 51 132 56 25 20 131 34 17 24
CALL[ ]	/* CallFunction */";
};
width = 685;
}
);
note = Aringacute;
unicode = 506;
},
{
glyphname = Atilde;
kernLeft = Aacute;
kernRight = Aacute;
lastChange = "2024-06-14 08:59:27 +0000";
layers = (
{
layerId = m01;
shapes = (
{
closed = 1;
nodes = (
(742,-55,ls),
(765,-55,o),
(777,-49,o),
(777,-25,cs),
(777,-2,o),
(752,3,o),
(733,3,cs),
(648,3,o),
(619,8,o),
(613,35,cs),
(410,793,l),
(410,793,l),
(402,824,o),
(387,838,o),
(359,838,cs),
(324,838,o),
(314,823,o),
(305,792,cs),
(285,726,o),
(251,598,o),
(213,460,cs),
(175,324,o),
(134,181,o),
(107,101,cs),
(98,74,o),
(82,66,o),
(58,63,cs),
(54,63,o),
(36,57,o),
(1,57,cs),
(-12,57,o),
(-28,47,o),
(-28,30,cs),
(-28,11,o),
(-17,0,o),
(-5,0,cs),
(273,0,ls),
(300,0,o),
(307,14,o),
(307,29,cs),
(307,53,o),
(295,61,o),
(274,61,cs),
(251,61,o),
(233,62,o),
(221,65,cs),
(208,68,o),
(202,72,o),
(202,77,cs),
(202,98,o),
(219,168,o),
(238,214,c),
(470,214,l),
(468,222,o),
(517,59,o),
(517,35,cs),
(517,-16,o),
(464,5,o),
(464,-33,cs),
(464,-44,o),
(471,-55,o),
(495,-55,cs)
);
},
{
closed = 1;
nodes = (
(304,296,o),
(314,298,o),
(262,298,c),
(284,379,o),
(315,510,o),
(362,691,c),
(385,566,o),
(421,414,o),
(453,298,c),
(420,298,o),
(415,296,o),
(358,296,cs)
);
},
{
closed = 1;
nodes = (
(220,861,o),
(244,886,o),
(283,886,cs),
(322,886,o),
(364,862,o),
(420,862,cs),
(453,862,o),
(531,880,o),
(531,937,cs),
(531,958,o),
(516,972,o),
(509,972,cs),
(504,972,o),
(494,968,o),
(479,959,cs),
(460,948,o),
(438,942,o),
(419,942,cs),
(380,942,o),
(318,970,o),
(282,970,cs),
(257,970,o),
(235,964,o),
(214,952,cs),
(195,941,o),
(180,926,o),
(180,897,cs),
(180,877,o),
(187,861,o),
(199,861,cs)
);
}
);
userData = {
assembly = "PUSHB[ ]	/* 6 values pushed */
69 1 8 7 1 66
MPPEM[ ]	/* MeasurePixelPerEm */
PUSHB[ ]	/* 1 value pushed */
45
LT[ ]	/* LessThan */
IF[ ]	/* If */
NPUSHB[ ]	/* 51 values pushed */
11 1 9 0 13 12 9 13 91 0 10 14 1 12 7 10 12 91 0 8 0 2 3 8 2 90 0 0 0 1 0 1 88 0 7 7 20 67 6 5 2 3 3 4 83 0 4 4 13 4 68
ELSE[ ]	/* Else */
NPUSHB[ ]	/* 54 values pushed */
0 7 12 8 12 7 8 104 11 1 9 0 13 12 9 13 91 0 10 14 1 12 7 10 12 91 0 8 0 2 3 8 2 90 0 0 0 1 0 1 88 6 5 2 3 3 4 83 0 4 4 13 4 68
EIF[ ]	/* EndIf */
NPUSHB[ ]	/* 23 values pushed */
123 121 118 116 113 111 105 103 100 98 95 93 168 44 19 36 52 39 28 52 51 15 24
CALL[ ]	/* CallFunction */";
};
width = 710;
},
{
layerId = "62092E79-60F6-4D0B-8A38-B9DDC6B60A9E";
shapes = (
{
closed = 1;
nodes = (
(719,-55,ls),
(742,-55,o),
(754,-50,o),
(754,-31,cs),
(754,-12,o),
(732,-9,o),
(713,-9,cs),
(649,-9,o),
(608,-8,o),
(600,23,cs),
(388,816,l),
(388,816,l),
(384,830,o),
(372,837,o),
(353,837,cs),
(329,837,o),
(320,827,o),
(317,816,cs),
(293,737,o),
(268,639,o),
(220,467,cs),
(174,304,o),
(138,173,o),
(108,89,cs),
(100,65,o),
(87,54,o),
(59,51,cs),
(60,51,o),
(15,45,o),
(-12,45,cs),
(-25,45,o),
(-37,37,o),
(-37,24,cs),
(-37,9,o),
(-26,0,o),
(-14,0,cs),
(253,0,ls),
(280,0,o),
(287,12,o),
(287,24,cs),
(287,44,o),
(271,49,o),
(258,49,cs),
(224,49,o),
(182,49,o),
(182,65,cs),
(182,92,o),
(208,175,o),
(225,223,c),
(473,223,l),
(477,207,o),
(490,168,o),
(503,116,cs),
(518,57,o),
(526,24,o),
(526,15,cs),
(526,-33,o),
(455,-14,o),
(455,-39,cs),
(455,-44,o),
(457,-48,o),
(462,-51,cs),
(466,-54,o),
(474,-55,o),
(486,-55,cs)
);
},
{
closed = 1;
nodes = (
(285,288,o),
(265,288,o),
(244,289,c),
(255,332,o),
(278,424,o),
(304,516,cs),
(330,613,o),
(347,680,o),
(356,715,c),
(381,597,o),
(431,393,o),
(458,289,c),
(443,288,o),
(427,288,o),
(411,288,cs),
(394,288,o),
(378,288,o),
(363,288,cs),
(342,288,o),
(323,288,o),
(304,288,cs)
);
},
{
closed = 1;
nodes = (
(228,879,o),
(255,904,o),
(295,904,cs),
(334,904,o),
(376,880,o),
(432,880,cs),
(488,880,o),
(521,902,o),
(534,925,cs),
(537,931,o),
(539,937,o),
(539,944,cs),
(539,960,o),
(528,972,o),
(521,972,cs),
(518,972,o),
(514,971,o),
(511,970,cs),
(507,968,o),
(500,964,o),
(491,959,cs),
(468,948,o),
(448,942,o),
(431,942,cs),
(392,942,o),
(330,970,o),
(294,970,cs),
(269,970,o),
(247,964,o),
(226,952,cs),
(216,946,o),
(209,941,o),
(205,936,cs),
(201,931,o),
(198,927,o),
(197,924,cs),
(195,919,o),
(194,913,o),
(194,907,cs),
(194,892,o),
(200,879,o),
(211,879,cs)
);
}
);
userData = {
assembly = "PUSHB[ ]	/* 6 values pushed */
71 1 8 7 1 66
MPPEM[ ]	/* MeasurePixelPerEm */
PUSHB[ ]	/* 1 value pushed */
45
LT[ ]	/* LessThan */
IF[ ]	/* If */
NPUSHB[ ]	/* 51 values pushed */
11 1 9 0 13 12 9 13 91 0 10 14 1 12 7 10 12 91 0 8 0 2 3 8 2 90 0 0 0 1 0 1 88 0 7 7 20 67 6 5 2 3 3 4 83 0 4 4 13 4 68
ELSE[ ]	/* Else */
NPUSHB[ ]	/* 54 values pushed */
0 7 12 8 12 7 8 104 11 1 9 0 13 12 9 13 91 0 10 14 1 12 7 10 12 91 0 8 0 2 3 8 2 90 0 0 0 1 0 1 88 6 5 2 3 3 4 83 0 4 4 13 4 68
EIF[ ]	/* EndIf */
NPUSHB[ ]	/* 23 values pushed */
123 121 118 116 113 111 105 103 100 98 95 93 105 44 19 36 52 56 30 52 35 15 35
CALL[ ]	/* CallFunction */";
};
width = 698;
},
{
layerId = "E59D8378-1062-4241-9A8F-EEB295F00E05";
shapes = (
{
closed = 1;
nodes = (
(686,-55,ls),
(709,-55,o),
(721,-50,o),
(721,-41,cs),
(721,-29,o),
(704,-29,o),
(685,-29,cs),
(653,-29,o),
(629,-27,o),
(612,-23,cs),
(595,-19,o),
(585,-10,o),
(582,3,cs),
(365,816,ls),
(361,831,o),
(352,835,o),
(345,835,cs),
(334,835,o),
(327,827,o),
(324,816,cs),
(310,767,o),
(265,604,o),
(225,457,cs),
(181,298,o),
(146,172,o),
(110,69,cs),
(101,45,o),
(90,34,o),
(61,31,cs),
(62,31,o),
(9,25,o),
(-30,25,cs),
(-43,25,o),
(-50,21,o),
(-50,14,cs),
(-50,3,o),
(-39,0,o),
(-27,0,cs),
(225,0,ls),
(238,0,o),
(247,2,o),
(252,5,cs),
(257,8,o),
(259,12,o),
(259,15,cs),
(259,30,o),
(238,29,o),
(225,29,cs),
(205,29,o),
(154,26,o),
(154,45,cs),
(154,74,o),
(187,173,o),
(206,238,c),
(477,238,l),
(481,219,o),
(496,170,o),
(511,113,cs),
(528,45,o),
(538,6,o),
(538,-5,cs),
(538,-37,o),
(442,-16,o),
(442,-41,cs),
(442,-46,o),
(444,-50,o),
(449,-52,cs),
(453,-54,o),
(461,-55,o),
(473,-55,cs)
);
},
{
closed = 1;
nodes = (
(299,272,o),
(259,273,o),
(218,274,c),
(233,339,o),
(254,418,o),
(284,530,cs),
(314,640,o),
(334,709,o),
(343,755,c),
(374,642,o),
(431,411,o),
(465,274,c),
(424,273,o),
(381,272,o),
(340,272,cs)
);
},
{
closed = 1;
nodes = (
(209,888,o),
(236,913,o),
(277,913,cs),
(316,913,o),
(358,889,o),
(414,889,cs),
(467,889,o),
(516,909,o),
(516,934,cs),
(516,943,o),
(510,951,o),
(503,951,cs),
(500,951,o),
(496,950,o),
(493,949,cs),
(489,947,o),
(482,943,o),
(473,938,cs),
(450,927,o),
(430,921,o),
(413,921,cs),
(374,921,o),
(312,949,o),
(276,949,cs),
(251,949,o),
(229,943,o),
(208,931,cs),
(189,920,o),
(179,910,o),
(179,903,cs),
(179,896,o),
(186,888,o),
(193,888,cs)
);
}
);
userData = {
assembly = "PUSHB[ ]	/* 6 values pushed */
69 1 9 8 1 66
MPPEM[ ]	/* MeasurePixelPerEm */
PUSHB[ ]	/* 1 value pushed */
45
LT[ ]	/* LessThan */
IF[ ]	/* If */
NPUSHB[ ]	/* 52 values pushed */
12 1 10 0 14 13 10 14 91 0 11 15 1 13 8 11 13 91 0 9 0 3 4 9 3 90 2 1 0 0 1 0 1 88 0 8 8 20 67 7 6 2 4 4 5 83 0 5 5 13 5 68
ELSE[ ]	/* Else */
NPUSHB[ ]	/* 55 values pushed */
0 8 13 9 13 8 9 104 12 1 10 0 14 13 10 14 91 0 11 15 1 13 8 11 13 91 0 9 0 3 4 9 3 90 2 1 0 0 1 0 1 88 7 6 2 4 4 5 83 0 5 5 13 5 68
EIF[ ]	/* EndIf */
NPUSHB[ ]	/* 25 values pushed */
120 118 115 113 110 108 102 100 97 95 92 90 82 76 44 18 51 52 56 25 20 51 34 16 24
CALL[ ]	/* CallFunction */";
};
width = 681;
}
);
note = Atilde;
unicode = 195;
},
{
glyphname = AE;
kernLeft = AE;
kernRight = AE;
lastChange = "2024-06-14 08:59:27 +0000";
layers = (
{
layerId = m01;
shapes = (
{
closed = 1;
nodes = (
(16,0,o),
(39,0,o),
(62,1,cs),
(85,2,o),
(108,2,o),
(129,2,cs),
(150,2,o),
(170,2,o),
(189,1,cs),
(207,0,o),
(227,0,o),
(248,0,cs),
(275,0,o),
(293,4,o),
(293,31,cs),
(293,51,o),
(283,59,o),
(270,60,cs),
(262,61,o),
(255,62,o),
(250,63,cs),
(245,64,o),
(242,65,o),
(242,68,cs),
(242,73,o),
(267,126,o),
(321,214,c),
(529,214,l),
(529,195,o),
(529,178,o),
(529,161,cs),
(528,144,o),
(528,122,o),
(528,96,cs),
(528,82,o),
(522,73,o),
(511,68,cs),
(500,63,o),
(478,60,o),
(447,60,cs),
(420,60,o),
(408,55,o),
(408,32,cs),
(408,8,o),
(434,0,o),
(454,0,cs),
(495,0,o),
(535,0,o),
(576,1,cs),
(616,2,o),
(656,2,o),
(697,2,cs),
(746,2,o),
(794,2,o),
(841,1,cs),
(888,0,o),
(936,0,o),
(985,0,cs),
(1014,0,o),
(1024,10,o),
(1027,33,cs),
(1040,131,o),
(1043,248,o),
(1043,277,cs),
(1043,296,o),
(1036,326,o),
(1002,326,cs),
(967,326,o),
(957,300,o),
(956,273,cs),
(951,182,o),
(943,131,o),
(943,121,cs),
(940,87,o),
(921,84,o),
(900,84,cs),
(622,84,l),
(622,377,l),
(643,378,o),
(664,379,o),
(685,379,cs),
(704,379,o),
(720,379,o),
(732,379,cs),
(744,378,o),
(755,378,o),
(764,378,cs),
(803,378,o),
(812,338,o),
(812,309,cs),
(812,292,o),
(825,270,o),
(853,270,cs),
(885,270,o),
(895,288,o),
(895,307,cs),
(895,326,o),
(895,344,o),
(894,363,cs),
(893,382,o),
(893,401,o),
(893,420,cs),
(893,439,o),
(893,458,o),
(894,477,cs),
(895,495,o),
(895,514,o),
(895,533,cs),
(895,548,o),
(885,570,o),
(854,570,cs),
(831,570,o),
(810,565,o),
(810,530,cs),
(810,509,o),
(809,493,o),
(807,482,cs),
(804,470,o),
(800,464,o),
(793,464,cs),
(794,464,o),
(734,461,o),
(685,461,cs),
(674,461,o),
(663,461,o),
(653,462,cs),
(643,463,o),
(633,463,o),
(622,464,c),
(622,737,l),
(874,737,ls),
(898,737,o),
(911,732,o),
(911,709,cs),
(911,645,ls),
(911,627,o),
(913,599,o),
(955,599,cs),
(988,599,o),
(999,626,o),
(999,651,cs),
(999,785,ls),
(999,813,o),
(990,821,o),
(971,821,cs),
(911,821,o),
(862,820,o),
(823,820,cs),
(783,820,o),
(740,819,o),
(693,819,cs),
(641,819,o),
(551,821,o),
(452,821,cs),
(431,821,o),
(394,821,o),
(394,785,cs),
(394,763,o),
(418,757,o),
(434,757,cs),
(449,757,o),
(468,758,o),
(483,751,c),
(443,675,o),
(391,566,o),
(325,428,cs),
(264,304,o),
(200,175,o),
(155,101,cs),
(140,77,o),
(127,66,o),
(98,63,cs),
(99,63,o),
(45,57,o),
(-3,57,cs),
(-24,57,o),
(-42,48,o),
(-42,27,cs),
(-42,7,o),
(-28,0,o),
(-5,0,cs)
);
},
{
closed = 1;
nodes = (
(389,296,o),
(364,297,o),
(341,298,c),
(385,416,o),
(494,584,o),
(524,664,c),
(524,660,ls),
(524,572,o),
(530,535,o),
(530,425,cs),
(530,396,o),
(530,372,o),
(530,352,cs),
(530,331,o),
(530,313,o),
(529,297,c),
(510,296,o),
(490,296,o),
(471,296,cs),
(452,296,o),
(432,296,o),
(413,296,cs)
);
}
);
userData = {
assembly = "NPUSHB[ ]	/* 14 values pushed */
73 1 10 7 181 1 9 10 161 1 15 3 3 66
MPPEM[ ]	/* MeasurePixelPerEm */
PUSHB[ ]	/* 1 value pushed */
9
LT[ ]	/* LessThan */
IF[ ]	/* If */
NPUSHB[ ]	/* 85 values pushed */
0 7 8 10 10 7 96 0 9 10 12 10 9 96 17 1 0 14 16 14 0 16 104 0 12 0 13 3 12 13 91 18 1 16 0 3 15 16 3 89 0 10 10 8 84 0 8 8 12 67 0 14 14 11 83 0 11 11 23 67 0 15 15 1 84 4 1 1 1 13 67 6 5 2 2 2 1 83 4 1 1 1 13 1 68
ELSE[ ]	/* Else */
MPPEM[ ]	/* MeasurePixelPerEm */
PUSHB[ ]	/* 1 value pushed */
20
LT[ ]	/* LessThan */
IF[ ]	/* If */
NPUSHB[ ]	/* 86 values pushed */
0 7 8 10 10 7 96 0 9 10 12 10 9 12 104 17 1 0 14 16 14 0 16 104 0 12 0 13 3 12 13 91 18 1 16 0 3 15 16 3 89 0 10 10 8 84 0 8 8 12 67 0 14 14 11 83 0 11 11 23 67 0 15 15 1 84 4 1 1 1 13 67 6 5 2 2 2 1 83 4 1 1 1 13 1 68
ELSE[ ]	/* Else */
MPPEM[ ]	/* MeasurePixelPerEm */
PUSHB[ ]	/* 1 value pushed */
45
LT[ ]	/* LessThan */
IF[ ]	/* If */
NPUSHB[ ]	/* 84 values pushed */
0 7 8 10 10 7 96 0 9 10 12 10 9 12 104 17 1 0 14 16 14 0 16 104 0 11 0 14 0 11 14 91 0 12 0 13 3 12 13 91 18 1 16 0 3 15 16 3 89 0 10 10 8 84 0 8 8 12 67 0 15 15 1 84 4 1 1 1 13 67 6 5 2 2 2 1 83 4 1 1 1 13 1 68
ELSE[ ]	/* Else */
NPUSHB[ ]	/* 84 values pushed */
0 7 8 10 10 7 96 0 9 10 12 10 9 12 104 17 1 0 14 16 14 0 16 104 0 11 0 14 0 11 14 91 0 12 0 13 3 12 13 91 18 1 16 0 3 15 16 3 89 0 10 10 8 84 0 8 8 14 67 0 15 15 1 84 4 1 1 1 13 67 6 5 2 2 2 1 83 4 1 1 1 13 1 68
EIF[ ]	/* EndIf */
EIF[ ]	/* EndIf */
EIF[ ]	/* EndIf */
NPUSHB[ ]	/* 44 values pushed */
172 169 1 0 169 188 172 186 157 155 154 147 141 139 129 127 123 114 113 111 104 102 97 84 77 74 63 62 61 57 53 45 32 31 26 24 20 12 0 168 1 168 19 15
CALL[ ]	/* CallFunction */";
};
width = 1076;
},
{
layerId = "62092E79-60F6-4D0B-8A38-B9DDC6B60A9E";
shapes = (
{
closed = 1;
nodes = (
(10,0,o),
(32,0,o),
(54,1,cs),
(76,2,o),
(98,2,o),
(119,2,cs),
(140,2,o),
(161,2,o),
(181,1,cs),
(200,0,o),
(221,0,o),
(242,0,cs),
(269,0,o),
(284,6,o),
(284,25,cs),
(284,46,o),
(261,49,o),
(248,49,cs),
(240,50,o),
(233,50,o),
(227,51,cs),
(220,51,o),
(217,56,o),
(217,65,cs),
(217,76,o),
(245,132,o),
(299,223,c),
(526,223,l),
(526,201,o),
(526,180,o),
(526,160,cs),
(525,140,o),
(525,115,o),
(525,84,cs),
(525,70,o),
(519,61,o),
(508,56,cs),
(497,51,o),
(475,48,o),
(444,48,cs),
(417,48,o),
(405,44,o),
(405,24,cs),
(405,5,o),
(431,0,o),
(451,0,cs),
(532,1,o),
(613,2,o),
(694,2,cs),
(740,2,o),
(785,2,o),
(828,1,cs),
(871,0,o),
(915,0,o),
(961,0,cs),
(989,0,o),
(1000,6,o),
(1003,33,cs),
(1016,165,o),
(1019,266,o),
(1019,277,cs),
(1019,292,o),
(1018,320,o),
(991,320,cs),
(963,320,o),
(954,300,o),
(953,273,cs),
(949,208,o),
(946,171,o),
(940,103,cs),
(937,69,o),
(918,66,o),
(897,66,cs),
(598,66,l),
(598,386,l),
(626,387,o),
(654,388,o),
(682,388,cs),
(701,388,o),
(717,388,o),
(729,388,cs),
(741,387,o),
(752,387,o),
(761,387,cs),
(800,387,o),
(809,340,o),
(809,309,cs),
(809,292,o),
(820,274,o),
(840,274,cs),
(861,274,o),
(871,287,o),
(871,307,cs),
(871,326,o),
(871,344,o),
(870,363,cs),
(869,382,o),
(869,401,o),
(869,420,cs),
(869,439,o),
(869,458,o),
(870,477,cs),
(871,495,o),
(871,514,o),
(871,533,cs),
(871,548,o),
(864,566,o),
(841,566,cs),
(821,566,o),
(807,558,o),
(807,530,cs),
(807,512,o),
(806,455,o),
(790,455,cs),
(791,455,o),
(731,452,o),
(682,452,cs),
(667,452,o),
(653,452,o),
(640,453,cs),
(626,454,o),
(612,454,o),
(598,455,c),
(598,755,l),
(871,755,ls),
(886,755,o),
(908,754,o),
(908,727,cs),
(908,645,ls),
(908,625,o),
(911,601,o),
(942,601,cs),
(969,601,o),
(975,626,o),
(975,651,cs),
(975,785,ls),
(975,813,o),
(966,821,o),
(947,821,cs),
(892,821,o),
(846,820,o),
(810,820,cs),
(773,820,o),
(733,819,o),
(690,819,cs),
(638,819,o),
(548,821,o),
(449,821,cs),
(423,821,o),
(398,817,o),
(398,792,cs),
(398,771,o),
(422,769,o),
(438,769,cs),
(453,769,o),
(472,770,o),
(487,763,c),
(449,691,o),
(384,557,o),
(321,428,cs),
(261,305,o),
(187,160,o),
(145,89,cs),
(130,65,o),
(117,54,o),
(88,51,cs),
(89,51,o),
(31,45,o),
(-9,45,cs),
(-28,45,o),
(-41,38,o),
(-41,22,cs),
(-41,6,o),
(-30,0,o),
(-11,0,cs)
);
},
{
closed = 1;
nodes = (
(394,287,o),
(379,287,o),
(364,288,cs),
(349,289,o),
(334,289,o),
(319,289,c),
(343,348,o),
(379,420,o),
(426,508,cs),
(464,580,o),
(508,665,o),
(521,698,c),
(521,694,ls),
(521,655,o),
(523,614,o),
(524,582,cs),
(525,545,o),
(527,500,o),
(527,425,cs),
(527,394,o),
(527,368,o),
(527,347,cs),
(527,325,o),
(527,305,o),
(526,288,c),
(507,287,o),
(487,287,o),
(468,287,cs),
(449,287,o),
(429,287,o),
(410,287,cs)
);
}
);
userData = {
assembly = "NPUSHB[ ]	/* 10 values pushed */
73 1 12 9 183 1 11 12 2 66
MPPEM[ ]	/* MeasurePixelPerEm */
PUSHB[ ]	/* 1 value pushed */
20
LT[ ]	/* LessThan */
IF[ ]	/* If */
NPUSHB[ ]	/* 88 values pushed */
0 9 10 12 12 9 96 0 11 12 14 12 11 14 104 19 1 0 16 18 16 0 18 104 0 14 0 15 3 14 15 91 20 1 18 0 3 17 18 3 89 0 12 12 10 84 0 10 10 12 67 0 16 16 13 83 0 13 13 15 67 0 17 17 1 84 6 1 1 1 13 67 8 7 5 4 4 2 2 1 83 6 1 1 1 13 1 68
ELSE[ ]	/* Else */
MPPEM[ ]	/* MeasurePixelPerEm */
PUSHB[ ]	/* 1 value pushed */
45
LT[ ]	/* LessThan */
IF[ ]	/* If */
NPUSHB[ ]	/* 86 values pushed */
0 9 10 12 12 9 96 0 11 12 14 12 11 14 104 19 1 0 16 18 16 0 18 104 0 13 0 16 0 13 16 91 0 14 0 15 3 14 15 91 20 1 18 0 3 17 18 3 89 0 12 12 10 84 0 10 10 12 67 0 17 17 1 84 6 1 1 1 13 67 8 7 5 4 4 2 2 1 83 6 1 1 1 13 1 68
ELSE[ ]	/* Else */
NPUSHB[ ]	/* 86 values pushed */
0 9 10 12 12 9 96 0 11 12 14 12 11 14 104 19 1 0 16 18 16 0 18 104 0 13 0 16 0 13 16 91 0 14 0 15 3 14 15 91 20 1 18 0 3 17 18 3 89 0 12 12 10 84 0 10 10 14 67 0 17 17 1 84 6 1 1 1 13 67 8 7 5 4 4 2 2 1 83 6 1 1 1 13 1 68
EIF[ ]	/* EndIf */
EIF[ ]	/* EndIf */
NPUSHB[ ]	/* 48 values pushed */
174 171 1 0 171 192 174 190 159 157 156 149 143 141 131 129 123 114 113 111 102 100 95 82 77 74 63 62 61 57 53 45 41 40 39 38 32 31 26 24 20 12 0 170 1 170 21 15
CALL[ ]	/* CallFunction */";
};
width = 1054;
},
{
layerId = "E59D8378-1062-4241-9A8F-EEB295F00E05";
shapes = (
{
closed = 1;
nodes = (
(23,1,o),
(62,2,o),
(105,2,cs),
(126,2,o),
(148,2,o),
(170,1,cs),
(191,0,o),
(213,0,o),
(234,0,cs),
(247,0,o),
(257,2,o),
(263,5,cs),
(268,8,o),
(271,12,o),
(271,15,cs),
(271,30,o),
(253,29,o),
(240,29,cs),
(221,29,o),
(173,26,o),
(173,45,cs),
(173,64,o),
(228,159,o),
(268,238,c),
(522,238,l),
(522,167,o),
(521,132,o),
(521,64,cs),
(521,50,o),
(515,41,o),
(504,36,cs),
(493,31,o),
(471,28,o),
(440,28,cs),
(427,28,o),
(417,27,o),
(411,25,cs),
(404,23,o),
(401,18,o),
(401,11,cs),
(401,0,o),
(427,0,o),
(447,0,cs),
(528,1,o),
(609,2,o),
(690,2,cs),
(731,2,o),
(770,2,o),
(809,1,cs),
(847,0,o),
(886,0,o),
(927,0,cs),
(954,0,o),
(966,0,o),
(969,33,cs),
(980,139,o),
(985,285,o),
(985,277,cs),
(985,293,o),
(985,310,o),
(966,310,cs),
(963,310,o),
(959,307,o),
(956,302,cs),
(952,296,o),
(950,286,o),
(949,273,cs),
(944,166,o),
(938,100,o),
(936,73,cs),
(933,39,o),
(914,36,o),
(893,36,cs),
(564,36,l),
(564,401,l),
(603,402,o),
(639,403,o),
(678,403,cs),
(697,403,o),
(713,403,o),
(725,403,cs),
(737,402,o),
(748,402,o),
(757,402,cs),
(797,402,o),
(805,346,o),
(805,309,cs),
(805,292,o),
(813,280,o),
(822,280,cs),
(825,280,o),
(828,282,o),
(832,285,cs),
(835,288,o),
(837,296,o),
(837,307,cs),
(837,326,o),
(837,344,o),
(836,363,cs),
(835,382,o),
(835,401,o),
(835,420,cs),
(835,439,o),
(835,458,o),
(836,477,cs),
(837,495,o),
(837,514,o),
(837,533,cs),
(837,548,o),
(836,560,o),
(820,560,cs),
(806,560,o),
(803,541,o),
(803,530,cs),
(803,471,o),
(797,440,o),
(786,440,cs),
(787,440,o),
(727,437,o),
(678,437,cs),
(659,437,o),
(640,437,o),
(621,438,cs),
(602,439,o),
(583,439,o),
(564,440,c),
(564,785,l),
(867,785,ls),
(880,785,o),
(904,782,o),
(904,757,cs),
(904,645,ls),
(904,626,o),
(904,605,o),
(924,605,cs),
(939,605,o),
(941,626,o),
(941,651,cs),
(941,785,ls),
(941,813,o),
(932,821,o),
(913,821,cs),
(833,821,o),
(749,819,o),
(686,819,cs),
(634,819,o),
(544,821,o),
(445,821,cs),
(425,821,o),
(404,819,o),
(404,804,cs),
(404,789,o),
(421,789,o),
(444,789,cs),
(459,789,o),
(478,790,o),
(493,783,c),
(454,708,o),
(392,580,o),
(317,429,cs),
(242,278,o),
(175,148,o),
(131,69,cs),
(116,45,o),
(103,34,o),
(74,31,cs),
(75,31,o),
(22,25,o),
(-18,25,cs),
(-33,25,o),
(-40,21,o),
(-40,14,cs),
(-40,5,o),
(-33,0,o),
(-20,0,cs)
);
},
{
closed = 1;
nodes = (
(385,272,o),
(365,272,o),
(346,273,cs),
(327,274,o),
(308,274,o),
(288,274,c),
(314,335,o),
(362,431,o),
(409,529,cs),
(458,632,o),
(500,716,o),
(517,754,c),
(517,750,ls),
(517,633,o),
(523,568,o),
(523,425,cs),
(523,391,o),
(523,362,o),
(523,338,cs),
(523,314,o),
(523,292,o),
(522,273,c),
(503,272,o),
(483,272,o),
(464,272,cs),
(445,272,o),
(425,272,o),
(406,272,cs)
);
}
);
userData = {
assembly = "PUSHB[ ]	/* 7 values pushed */
179 73 2 10 8 1 66
MPPEM[ ]	/* MeasurePixelPerEm */
PUSHB[ ]	/* 1 value pushed */
20
LT[ ]	/* LessThan */
IF[ ]	/* If */
NPUSHB[ ]	/* 81 values pushed */
0 10 8 13 8 10 13 104 18 1 0 15 14 15 0 14 104 0 13 0 14 17 13 14 91 19 1 17 0 3 16 17 3 89 11 1 8 8 9 83 0 9 9 12 67 0 15 15 12 83 0 12 12 15 67 0 16 16 1 83 5 1 1 1 13 67 7 6 4 3 2 2 1 83 5 1 1 1 13 1 68
ELSE[ ]	/* Else */
MPPEM[ ]	/* MeasurePixelPerEm */
PUSHB[ ]	/* 1 value pushed */
45
LT[ ]	/* LessThan */
IF[ ]	/* If */
NPUSHB[ ]	/* 79 values pushed */
0 10 8 13 8 10 13 104 18 1 0 15 14 15 0 14 104 0 12 0 15 0 12 15 91 0 13 0 14 17 13 14 91 19 1 17 0 3 16 17 3 89 11 1 8 8 9 83 0 9 9 12 67 0 16 16 1 83 5 1 1 1 13 67 7 6 4 3 2 2 1 83 5 1 1 1 13 1 68
ELSE[ ]	/* Else */
NPUSHB[ ]	/* 79 values pushed */
0 10 8 13 8 10 13 104 18 1 0 15 14 15 0 14 104 0 12 0 15 0 12 15 91 0 13 0 14 17 13 14 91 19 1 17 0 3 16 17 3 89 11 1 8 8 9 83 0 9 9 14 67 0 16 16 1 83 5 1 1 1 13 67 7 6 4 3 2 2 1 83 5 1 1 1 13 1 68
EIF[ ]	/* EndIf */
EIF[ ]	/* EndIf */
NPUSHB[ ]	/* 46 values pushed */
170 167 1 0 167 188 170 186 155 153 152 145 139 137 127 125 117 108 107 105 100 98 93 81 77 74 63 62 60 57 55 47 43 40 32 31 24 22 18 10 0 166 1 166 20 15
CALL[ ]	/* CallFunction */";
};
width = 1023;
}
);
note = AE;
unicode = 198;
},
{
glyphname = AEacute;
kernLeft = AE;
kernRight = AE;
lastChange = "2024-06-14 08:59:27 +0000";
layers = (
{
layerId = m01;
shapes = (
{
closed = 1;
nodes = (
(16,0,o),
(39,0,o),
(62,1,cs),
(85,2,o),
(108,2,o),
(129,2,cs),
(150,2,o),
(170,2,o),
(189,1,cs),
(207,0,o),
(227,0,o),
(248,0,cs),
(275,0,o),
(293,4,o),
(293,31,cs),
(293,51,o),
(283,59,o),
(270,60,cs),
(262,61,o),
(255,62,o),
(250,63,cs),
(245,64,o),
(242,65,o),
(242,68,cs),
(242,73,o),
(267,126,o),
(321,214,c),
(529,214,l),
(529,195,o),
(529,178,o),
(529,161,cs),
(528,144,o),
(528,122,o),
(528,96,cs),
(528,82,o),
(522,73,o),
(511,68,cs),
(500,63,o),
(478,60,o),
(447,60,cs),
(420,60,o),
(408,55,o),
(408,32,cs),
(408,8,o),
(434,0,o),
(454,0,cs),
(495,0,o),
(535,0,o),
(576,1,cs),
(616,2,o),
(656,2,o),
(697,2,cs),
(746,2,o),
(794,2,o),
(841,1,cs),
(888,0,o),
(936,0,o),
(985,0,cs),
(1014,0,o),
(1024,10,o),
(1027,33,cs),
(1040,131,o),
(1043,248,o),
(1043,277,cs),
(1043,296,o),
(1036,326,o),
(1002,326,cs),
(967,326,o),
(957,300,o),
(956,273,cs),
(951,182,o),
(943,131,o),
(943,121,cs),
(940,87,o),
(921,84,o),
(900,84,cs),
(622,84,l),
(622,377,l),
(643,378,o),
(664,379,o),
(685,379,cs),
(704,379,o),
(720,379,o),
(732,379,cs),
(744,378,o),
(755,378,o),
(764,378,cs),
(803,378,o),
(812,338,o),
(812,309,cs),
(812,292,o),
(825,270,o),
(853,270,cs),
(885,270,o),
(895,288,o),
(895,307,cs),
(895,326,o),
(895,344,o),
(894,363,cs),
(893,382,o),
(893,401,o),
(893,420,cs),
(893,439,o),
(893,458,o),
(894,477,cs),
(895,495,o),
(895,514,o),
(895,533,cs),
(895,548,o),
(885,570,o),
(854,570,cs),
(831,570,o),
(810,565,o),
(810,530,cs),
(810,509,o),
(809,493,o),
(807,482,cs),
(804,470,o),
(800,464,o),
(793,464,cs),
(794,464,o),
(734,461,o),
(685,461,cs),
(674,461,o),
(663,461,o),
(653,462,cs),
(643,463,o),
(633,463,o),
(622,464,c),
(622,737,l),
(874,737,ls),
(898,737,o),
(911,732,o),
(911,709,cs),
(911,645,ls),
(911,627,o),
(913,599,o),
(955,599,cs),
(988,599,o),
(999,626,o),
(999,651,cs),
(999,785,ls),
(999,813,o),
(990,821,o),
(971,821,cs),
(911,821,o),
(862,820,o),
(823,820,cs),
(783,820,o),
(740,819,o),
(693,819,cs),
(641,819,o),
(551,821,o),
(452,821,cs),
(431,821,o),
(394,821,o),
(394,785,cs),
(394,763,o),
(418,757,o),
(434,757,cs),
(449,757,o),
(468,758,o),
(483,751,c),
(443,675,o),
(391,566,o),
(325,428,cs),
(264,304,o),
(200,175,o),
(155,101,cs),
(140,77,o),
(127,66,o),
(98,63,cs),
(99,63,o),
(45,57,o),
(-3,57,cs),
(-24,57,o),
(-42,48,o),
(-42,27,cs),
(-42,7,o),
(-28,0,o),
(-5,0,cs)
);
},
{
closed = 1;
nodes = (
(389,296,o),
(364,297,o),
(341,298,c),
(385,416,o),
(494,584,o),
(524,664,c),
(524,660,ls),
(524,572,o),
(530,535,o),
(530,425,cs),
(530,396,o),
(530,372,o),
(530,352,cs),
(530,331,o),
(530,313,o),
(529,297,c),
(510,296,o),
(490,296,o),
(471,296,cs),
(452,296,o),
(432,296,o),
(413,296,cs)
);
},
{
closed = 1;
nodes = (
(585,841,o),
(671,897,o),
(671,936,cs),
(671,953,o),
(657,972,o),
(630,972,cs),
(592,972,o),
(516,898,o),
(516,871,cs),
(516,856,o),
(531,841,o),
(552,841,cs)
);
}
);
userData = {
assembly = "NPUSHB[ ]	/* 14 values pushed */
89 1 12 9 197 1 11 12 177 1 17 5 3 66
MPPEM[ ]	/* MeasurePixelPerEm */
PUSHB[ ]	/* 1 value pushed */
9
LT[ ]	/* LessThan */
IF[ ]	/* If */
NPUSHB[ ]	/* 95 values pushed */
0 1 0 1 106 0 0 10 0 106 0 9 10 12 12 9 96 0 11 12 14 12 11 96 19 1 2 16 18 16 2 18 104 0 14 0 15 5 14 15 91 20 1 18 0 5 17 18 5 89 0 12 12 10 84 0 10 10 12 67 0 16 16 13 83 0 13 13 23 67 0 17 17 3 84 6 1 3 3 13 67 8 7 2 4 4 3 83 6 1 3 3 13 3 68
ELSE[ ]	/* Else */
MPPEM[ ]	/* MeasurePixelPerEm */
PUSHB[ ]	/* 1 value pushed */
20
LT[ ]	/* LessThan */
IF[ ]	/* If */
NPUSHB[ ]	/* 96 values pushed */
0 1 0 1 106 0 0 10 0 106 0 9 10 12 12 9 96 0 11 12 14 12 11 14 104 19 1 2 16 18 16 2 18 104 0 14 0 15 5 14 15 91 20 1 18 0 5 17 18 5 89 0 12 12 10 84 0 10 10 12 67 0 16 16 13 83 0 13 13 23 67 0 17 17 3 84 6 1 3 3 13 67 8 7 2 4 4 3 83 6 1 3 3 13 3 68
ELSE[ ]	/* Else */
MPPEM[ ]	/* MeasurePixelPerEm */
PUSHB[ ]	/* 1 value pushed */
45
LT[ ]	/* LessThan */
IF[ ]	/* If */
NPUSHB[ ]	/* 94 values pushed */
0 1 0 1 106 0 0 10 0 106 0 9 10 12 12 9 96 0 11 12 14 12 11 14 104 19 1 2 16 18 16 2 18 104 0 13 0 16 2 13 16 91 0 14 0 15 5 14 15 91 20 1 18 0 5 17 18 5 89 0 12 12 10 84 0 10 10 12 67 0 17 17 3 84 6 1 3 3 13 67 8 7 2 4 4 3 83 6 1 3 3 13 3 68
ELSE[ ]	/* Else */
NPUSHB[ ]	/* 94 values pushed */
0 1 0 1 106 0 0 10 0 106 0 9 10 12 12 9 96 0 11 12 14 12 11 14 104 19 1 2 16 18 16 2 18 104 0 13 0 16 2 13 16 91 0 14 0 15 5 14 15 91 20 1 18 0 5 17 18 5 89 0 12 12 10 84 0 10 10 14 67 0 17 17 3 84 6 1 3 3 13 67 8 7 2 4 4 3 83 6 1 3 3 13 3 68
EIF[ ]	/* EndIf */
EIF[ ]	/* EndIf */
EIF[ ]	/* EndIf */
NPUSHB[ ]	/* 46 values pushed */
188 185 17 16 185 204 188 202 173 171 170 163 157 155 145 143 139 130 129 127 120 118 113 100 93 90 79 78 77 73 69 61 48 47 42 40 36 28 16 184 17 184 38 36 21 17
CALL[ ]	/* CallFunction */";
};
width = 1076;
},
{
layerId = "62092E79-60F6-4D0B-8A38-B9DDC6B60A9E";
shapes = (
{
closed = 1;
nodes = (
(10,0,o),
(32,0,o),
(54,1,cs),
(76,2,o),
(98,2,o),
(119,2,cs),
(140,2,o),
(161,2,o),
(181,1,cs),
(200,0,o),
(221,0,o),
(242,0,cs),
(269,0,o),
(284,6,o),
(284,25,cs),
(284,46,o),
(261,49,o),
(248,49,cs),
(240,50,o),
(233,50,o),
(227,51,cs),
(220,51,o),
(217,56,o),
(217,65,cs),
(217,76,o),
(245,132,o),
(299,223,c),
(526,223,l),
(526,201,o),
(526,180,o),
(526,160,cs),
(525,140,o),
(525,115,o),
(525,84,cs),
(525,70,o),
(519,61,o),
(508,56,cs),
(497,51,o),
(475,48,o),
(444,48,cs),
(417,48,o),
(405,44,o),
(405,24,cs),
(405,5,o),
(431,0,o),
(451,0,cs),
(532,1,o),
(613,2,o),
(694,2,cs),
(740,2,o),
(785,2,o),
(828,1,cs),
(871,0,o),
(915,0,o),
(961,0,cs),
(989,0,o),
(1000,6,o),
(1003,33,cs),
(1016,165,o),
(1019,266,o),
(1019,277,cs),
(1019,292,o),
(1018,320,o),
(991,320,cs),
(963,320,o),
(954,300,o),
(953,273,cs),
(949,208,o),
(946,171,o),
(940,103,cs),
(937,69,o),
(918,66,o),
(897,66,cs),
(598,66,l),
(598,386,l),
(626,387,o),
(654,388,o),
(682,388,cs),
(701,388,o),
(717,388,o),
(729,388,cs),
(741,387,o),
(752,387,o),
(761,387,cs),
(800,387,o),
(809,340,o),
(809,309,cs),
(809,292,o),
(820,274,o),
(840,274,cs),
(861,274,o),
(871,287,o),
(871,307,cs),
(871,326,o),
(871,344,o),
(870,363,cs),
(869,382,o),
(869,401,o),
(869,420,cs),
(869,439,o),
(869,458,o),
(870,477,cs),
(871,495,o),
(871,514,o),
(871,533,cs),
(871,548,o),
(864,566,o),
(841,566,cs),
(821,566,o),
(807,558,o),
(807,530,cs),
(807,512,o),
(806,455,o),
(790,455,cs),
(791,455,o),
(731,452,o),
(682,452,cs),
(667,452,o),
(653,452,o),
(640,453,cs),
(626,454,o),
(612,454,o),
(598,455,c),
(598,755,l),
(871,755,ls),
(886,755,o),
(908,754,o),
(908,727,cs),
(908,645,ls),
(908,625,o),
(911,601,o),
(942,601,cs),
(969,601,o),
(975,626,o),
(975,651,cs),
(975,785,ls),
(975,813,o),
(966,821,o),
(947,821,cs),
(892,821,o),
(846,820,o),
(810,820,cs),
(773,820,o),
(733,819,o),
(690,819,cs),
(638,819,o),
(548,821,o),
(449,821,cs),
(423,821,o),
(398,817,o),
(398,792,cs),
(398,771,o),
(422,769,o),
(438,769,cs),
(453,769,o),
(472,770,o),
(487,763,c),
(449,691,o),
(384,557,o),
(321,428,cs),
(261,305,o),
(187,160,o),
(145,89,cs),
(130,65,o),
(117,54,o),
(88,51,cs),
(89,51,o),
(31,45,o),
(-9,45,cs),
(-28,45,o),
(-41,38,o),
(-41,22,cs),
(-41,6,o),
(-30,0,o),
(-11,0,cs)
);
},
{
closed = 1;
nodes = (
(394,287,o),
(379,287,o),
(364,288,cs),
(349,289,o),
(334,289,o),
(319,289,c),
(343,348,o),
(379,420,o),
(426,508,cs),
(464,580,o),
(508,665,o),
(521,698,c),
(521,694,ls),
(521,655,o),
(523,614,o),
(524,582,cs),
(525,545,o),
(527,500,o),
(527,425,cs),
(527,394,o),
(527,368,o),
(527,347,cs),
(527,325,o),
(527,305,o),
(526,288,c),
(507,287,o),
(487,287,o),
(468,287,cs),
(449,287,o),
(429,287,o),
(410,287,cs)
);
},
{
closed = 1;
nodes = (
(572,854,o),
(660,908,o),
(660,941,cs),
(660,960,o),
(648,972,o),
(628,972,cs),
(599,972,o),
(522,904,o),
(522,877,cs),
(522,864,o),
(531,854,o),
(546,854,cs)
);
}
);
userData = {
assembly = "NPUSHB[ ]	/* 10 values pushed */
89 1 14 11 199 1 13 14 2 66
MPPEM[ ]	/* MeasurePixelPerEm */
PUSHB[ ]	/* 1 value pushed */
20
LT[ ]	/* LessThan */
IF[ ]	/* If */
NPUSHB[ ]	/* 98 values pushed */
0 1 0 1 106 0 0 12 0 106 0 11 12 14 14 11 96 0 13 14 16 14 13 16 104 21 1 2 18 20 18 2 20 104 0 16 0 17 5 16 17 91 22 1 20 0 5 19 20 5 89 0 14 14 12 84 0 12 12 12 67 0 18 18 15 83 0 15 15 15 67 0 19 19 3 84 8 1 3 3 13 67 10 9 7 6 4 4 4 3 83 8 1 3 3 13 3 68
ELSE[ ]	/* Else */
MPPEM[ ]	/* MeasurePixelPerEm */
PUSHB[ ]	/* 1 value pushed */
45
LT[ ]	/* LessThan */
IF[ ]	/* If */
NPUSHB[ ]	/* 96 values pushed */
0 1 0 1 106 0 0 12 0 106 0 11 12 14 14 11 96 0 13 14 16 14 13 16 104 21 1 2 18 20 18 2 20 104 0 15 0 18 2 15 18 91 0 16 0 17 5 16 17 91 22 1 20 0 5 19 20 5 89 0 14 14 12 84 0 12 12 12 67 0 19 19 3 84 8 1 3 3 13 67 10 9 7 6 4 4 4 3 83 8 1 3 3 13 3 68
ELSE[ ]	/* Else */
NPUSHB[ ]	/* 96 values pushed */
0 1 0 1 106 0 0 12 0 106 0 11 12 14 14 11 96 0 13 14 16 14 13 16 104 21 1 2 18 20 18 2 20 104 0 15 0 18 2 15 18 91 0 16 0 17 5 16 17 91 22 1 20 0 5 19 20 5 89 0 14 14 12 84 0 12 12 14 67 0 19 19 3 84 8 1 3 3 13 67 10 9 7 6 4 4 4 3 83 8 1 3 3 13 3 68
EIF[ ]	/* EndIf */
EIF[ ]	/* EndIf */
NPUSHB[ ]	/* 50 values pushed */
190 187 17 16 187 208 190 206 175 173 172 165 159 157 147 145 139 130 129 127 118 116 111 98 93 90 79 78 77 73 69 61 57 56 55 54 48 47 42 40 36 28 16 186 17 186 38 36 23 17
CALL[ ]	/* CallFunction */";
};
width = 1054;
},
{
layerId = "E59D8378-1062-4241-9A8F-EEB295F00E05";
shapes = (
{
closed = 1;
nodes = (
(23,1,o),
(62,2,o),
(105,2,cs),
(126,2,o),
(148,2,o),
(170,1,cs),
(191,0,o),
(213,0,o),
(234,0,cs),
(247,0,o),
(257,2,o),
(263,5,cs),
(268,8,o),
(271,12,o),
(271,15,cs),
(271,30,o),
(253,29,o),
(240,29,cs),
(221,29,o),
(173,26,o),
(173,45,cs),
(173,64,o),
(228,159,o),
(268,238,c),
(522,238,l),
(522,167,o),
(521,132,o),
(521,64,cs),
(521,50,o),
(515,41,o),
(504,36,cs),
(493,31,o),
(471,28,o),
(440,28,cs),
(427,28,o),
(417,27,o),
(411,25,cs),
(404,23,o),
(401,18,o),
(401,11,cs),
(401,0,o),
(427,0,o),
(447,0,cs),
(528,1,o),
(609,2,o),
(690,2,cs),
(731,2,o),
(770,2,o),
(809,1,cs),
(847,0,o),
(886,0,o),
(927,0,cs),
(954,0,o),
(966,0,o),
(969,33,cs),
(980,139,o),
(985,285,o),
(985,277,cs),
(985,293,o),
(985,310,o),
(966,310,cs),
(963,310,o),
(959,307,o),
(956,302,cs),
(952,296,o),
(950,286,o),
(949,273,cs),
(944,166,o),
(938,100,o),
(936,73,cs),
(933,39,o),
(914,36,o),
(893,36,cs),
(564,36,l),
(564,401,l),
(603,402,o),
(639,403,o),
(678,403,cs),
(697,403,o),
(713,403,o),
(725,403,cs),
(737,402,o),
(748,402,o),
(757,402,cs),
(797,402,o),
(805,346,o),
(805,309,cs),
(805,292,o),
(813,280,o),
(822,280,cs),
(825,280,o),
(828,282,o),
(832,285,cs),
(835,288,o),
(837,296,o),
(837,307,cs),
(837,326,o),
(837,344,o),
(836,363,cs),
(835,382,o),
(835,401,o),
(835,420,cs),
(835,439,o),
(835,458,o),
(836,477,cs),
(837,495,o),
(837,514,o),
(837,533,cs),
(837,548,o),
(836,560,o),
(820,560,cs),
(806,560,o),
(803,541,o),
(803,530,cs),
(803,471,o),
(797,440,o),
(786,440,cs),
(787,440,o),
(727,437,o),
(678,437,cs),
(659,437,o),
(640,437,o),
(621,438,cs),
(602,439,o),
(583,439,o),
(564,440,c),
(564,785,l),
(867,785,ls),
(880,785,o),
(904,782,o),
(904,757,cs),
(904,645,ls),
(904,626,o),
(904,605,o),
(924,605,cs),
(939,605,o),
(941,626,o),
(941,651,cs),
(941,785,ls),
(941,813,o),
(932,821,o),
(913,821,cs),
(833,821,o),
(749,819,o),
(686,819,cs),
(634,819,o),
(544,821,o),
(445,821,cs),
(425,821,o),
(404,819,o),
(404,804,cs),
(404,789,o),
(421,789,o),
(444,789,cs),
(459,789,o),
(478,790,o),
(493,783,c),
(454,708,o),
(392,580,o),
(317,429,cs),
(242,278,o),
(175,148,o),
(131,69,cs),
(116,45,o),
(103,34,o),
(74,31,cs),
(75,31,o),
(22,25,o),
(-18,25,cs),
(-33,25,o),
(-40,21,o),
(-40,14,cs),
(-40,5,o),
(-33,0,o),
(-20,0,cs)
);
},
{
closed = 1;
nodes = (
(385,272,o),
(365,272,o),
(346,273,cs),
(327,274,o),
(308,274,o),
(288,274,c),
(314,335,o),
(362,431,o),
(409,529,cs),
(458,632,o),
(500,716,o),
(517,754,c),
(517,750,ls),
(517,633,o),
(523,568,o),
(523,425,cs),
(523,391,o),
(523,362,o),
(523,338,cs),
(523,314,o),
(523,292,o),
(522,273,c),
(503,272,o),
(483,272,o),
(464,272,cs),
(445,272,o),
(425,272,o),
(406,272,cs)
);
},
{
closed = 1;
nodes = (
(556,876,o),
(644,929,o),
(644,950,cs),
(644,969,o),
(636,972,o),
(625,972,cs),
(605,972,o),
(530,911,o),
(530,887,cs),
(530,880,o),
(533,876,o),
(538,876,cs)
);
}
);
userData = {
assembly = "PUSHB[ ]	/* 7 values pushed */
194 88 2 12 10 1 66
MPPEM[ ]	/* MeasurePixelPerEm */
PUSHB[ ]	/* 1 value pushed */
20
LT[ ]	/* LessThan */
IF[ ]	/* If */
NPUSHB[ ]	/* 91 values pushed */
0 1 0 1 106 0 0 11 0 106 0 12 10 15 10 12 15 104 20 1 2 17 16 17 2 16 104 0 15 0 16 19 15 16 91 21 1 19 0 5 18 19 5 89 13 1 10 10 11 83 0 11 11 12 67 0 17 17 14 83 0 14 14 15 67 0 18 18 3 83 7 1 3 3 13 67 9 8 6 3 4 4 3 83 7 1 3 3 13 3 68
ELSE[ ]	/* Else */
MPPEM[ ]	/* MeasurePixelPerEm */
PUSHB[ ]	/* 1 value pushed */
45
LT[ ]	/* LessThan */
IF[ ]	/* If */
NPUSHB[ ]	/* 89 values pushed */
0 1 0 1 106 0 0 11 0 106 0 12 10 15 10 12 15 104 20 1 2 17 16 17 2 16 104 0 14 0 17 2 14 17 91 0 15 0 16 19 15 16 91 21 1 19 0 5 18 19 5 89 13 1 10 10 11 83 0 11 11 12 67 0 18 18 3 83 7 1 3 3 13 67 9 8 6 3 4 4 3 83 7 1 3 3 13 3 68
ELSE[ ]	/* Else */
NPUSHB[ ]	/* 89 values pushed */
0 1 0 1 106 0 0 11 0 106 0 12 10 15 10 12 15 104 20 1 2 17 16 17 2 16 104 0 14 0 17 2 14 17 91 0 15 0 16 19 15 16 91 21 1 19 0 5 18 19 5 89 13 1 10 10 11 83 0 11 11 14 67 0 18 18 3 83 7 1 3 3 13 67 9 8 6 3 4 4 3 83 7 1 3 3 13 3 68
EIF[ ]	/* EndIf */
EIF[ ]	/* EndIf */
NPUSHB[ ]	/* 48 values pushed */
185 182 16 15 182 203 185 201 170 168 167 160 154 152 142 140 132 123 122 120 115 113 108 96 92 89 78 77 75 72 70 62 58 55 47 46 39 37 33 25 15 181 16 181 37 36 22 17
CALL[ ]	/* CallFunction */";
};
width = 1023;
}
);
note = AEacute;
unicode = 508;
},
{
glyphname = B;
kernLeft = B;
kernRight = B;
lastChange = "2024-06-14 08:59:27 +0000";
layers = (
{
layerId = m01;
shapes = (
{
closed = 1;
nodes = (
(308,0,ls),
(500,0,o),
(676,57,o),
(676,220,cs),
(676,325,o),
(603,400,o),
(488,421,c),
(579,445,o),
(634,519,o),
(634,612,cs),
(634,752,o),
(504,821,o),
(367,821,cs),
(366,821,o),
(229,818,o),
(79,818,cs),
(58,818,o),
(40,801,o),
(40,780,cs),
(40,755,o),
(49,738,o),
(80,738,cs),
(119,738,o),
(127,732,o),
(130,701,cs),
(134,609,o),
(138,453,o),
(138,313,cs),
(138,288,o),
(138,257,o),
(138,220,cs),
(137,183,o),
(137,143,o),
(137,100,cs),
(137,80,o),
(105,76,o),
(81,76,cs),
(56,76,o),
(46,58,o),
(46,35,cs),
(46,12,o),
(59,0,o),
(94,0,cs)
);
},
{
closed = 1;
nodes = (
(229,368,l),
(242,369,o),
(254,369,o),
(264,370,cs),
(274,371,o),
(289,371,o),
(308,371,cs),
(443,371,o),
(581,354,o),
(581,222,cs),
(581,167,o),
(551,133,o),
(492,111,cs),
(432,89,o),
(345,80,o),
(229,80,c)
);
},
{
closed = 1;
nodes = (
(277,453,o),
(261,453,o),
(252,454,cs),
(242,454,o),
(234,455,o),
(229,456,c),
(229,737,l),
(234,738,o),
(243,739,o),
(256,740,cs),
(269,741,o),
(287,741,o),
(310,741,cs),
(424,741,o),
(541,713,o),
(541,605,cs),
(541,487,o),
(433,453,o),
(299,453,cs)
);
}
);
userData = {
assembly = "NPUSHB[ ]	/* 12 values pushed */
68 67 13 3 7 1 35 1 4 7 2 66
MPPEM[ ]	/* MeasurePixelPerEm */
PUSHB[ ]	/* 1 value pushed */
20
LT[ ]	/* LessThan */
IF[ ]	/* If */
NPUSHB[ ]	/* 36 values pushed */
10 6 2 1 1 2 83 0 2 2 12 67 9 1 4 4 7 83 0 7 7 15 67 5 8 2 0 0 3 83 0 3 3 13 3 68
ELSE[ ]	/* Else */
MPPEM[ ]	/* MeasurePixelPerEm */
PUSHB[ ]	/* 1 value pushed */
45
LT[ ]	/* LessThan */
IF[ ]	/* If */
NPUSHB[ ]	/* 34 values pushed */
0 7 9 1 4 0 7 4 91 10 6 2 1 1 2 83 0 2 2 12 67 5 8 2 0 0 3 83 0 3 3 13 3 68
ELSE[ ]	/* Else */
NPUSHB[ ]	/* 34 values pushed */
0 7 9 1 4 0 7 4 91 10 6 2 1 1 2 83 0 2 2 14 67 5 8 2 0 0 3 83 0 3 3 13 3 68
EIF[ ]	/* EndIf */
EIF[ ]	/* EndIf */
NPUSHB[ ]	/* 30 values pushed */
65 64 53 50 1 0 72 69 64 80 65 80 55 54 50 63 53 63 45 42 28 21 17 15 0 49 1 49 11 15
CALL[ ]	/* CallFunction */";
};
width = 705;
},
{
layerId = "62092E79-60F6-4D0B-8A38-B9DDC6B60A9E";
shapes = (
{
closed = 1;
nodes = (
(289,0,ls),
(481,0,o),
(657,57,o),
(657,220,cs),
(657,325,o),
(584,400,o),
(469,421,c),
(560,445,o),
(615,519,o),
(615,612,cs),
(615,752,o),
(485,821,o),
(348,821,cs),
(349,821,o),
(215,818,o),
(67,818,cs),
(52,818,o),
(41,809,o),
(41,794,cs),
(41,777,o),
(50,769,o),
(67,769,cs),
(111,769,o),
(131,769,o),
(132,733,cs),
(135,667,o),
(140,473,o),
(140,313,cs),
(140,286,o),
(140,250,o),
(140,206,cs),
(139,162,o),
(139,117,o),
(139,72,cs),
(139,49,o),
(93,48,o),
(67,48,cs),
(50,48,o),
(38,44,o),
(38,25,cs),
(38,6,o),
(56,0,o),
(89,0,cs)
);
},
{
closed = 1;
nodes = (
(210,377,l),
(232,377,o),
(259,380,o),
(289,380,cs),
(432,380,o),
(583,362,o),
(583,222,cs),
(583,149,o),
(534,106,o),
(458,85,cs),
(386,65,o),
(297,62,o),
(210,62,c)
);
},
{
closed = 1;
nodes = (
(258,444,o),
(241,444,o),
(229,445,cs),
(216,445,o),
(210,446,o),
(210,447,cs),
(210,753,l),
(217,754,o),
(224,754,o),
(233,755,cs),
(248,756,o),
(268,757,o),
(291,757,cs),
(415,757,o),
(543,727,o),
(543,605,cs),
(543,451,o),
(368,444,o),
(280,444,cs)
);
}
);
userData = {
assembly = "NPUSHB[ ]	/* 10 values pushed */
72 1 8 7 34 1 4 8 2 66
MPPEM[ ]	/* MeasurePixelPerEm */
PUSHB[ ]	/* 1 value pushed */
20
LT[ ]	/* LessThan */
IF[ ]	/* If */
NPUSHB[ ]	/* 49 values pushed */
0 1 2 7 7 1 96 9 1 0 6 3 6 0 96 11 1 7 7 2 84 0 2 2 12 67 5 10 2 4 4 8 83 0 8 8 15 67 0 6 6 3 83 0 3 3 13 3 68
ELSE[ ]	/* Else */
MPPEM[ ]	/* MeasurePixelPerEm */
PUSHB[ ]	/* 1 value pushed */
45
LT[ ]	/* LessThan */
IF[ ]	/* If */
NPUSHB[ ]	/* 47 values pushed */
0 1 2 7 7 1 96 9 1 0 6 3 6 0 96 0 8 5 10 2 4 6 8 4 91 11 1 7 7 2 84 0 2 2 12 67 0 6 6 3 83 0 3 3 13 3 68
ELSE[ ]	/* Else */
NPUSHB[ ]	/* 47 values pushed */
0 1 2 7 7 1 96 9 1 0 6 3 6 0 96 0 8 5 10 2 4 6 8 4 91 11 1 7 7 2 84 0 2 2 14 67 0 6 6 3 83 0 3 3 13 3 68
EIF[ ]	/* EndIf */
EIF[ ]	/* EndIf */
NPUSHB[ ]	/* 32 values pushed */
69 67 52 49 2 0 77 74 67 85 69 85 57 55 54 53 49 66 52 66 44 41 27 20 17 15 0 48 2 48 12 15
CALL[ ]	/* CallFunction */";
};
width = 689;
},
{
layerId = "E59D8378-1062-4241-9A8F-EEB295F00E05";
shapes = (
{
closed = 1;
nodes = (
(262,0,ls),
(454,0,o),
(630,57,o),
(630,220,cs),
(630,325,o),
(557,400,o),
(442,421,c),
(533,445,o),
(588,519,o),
(588,612,cs),
(588,752,o),
(458,821,o),
(321,821,cs),
(322,821,o),
(191,818,o),
(50,818,cs),
(35,818,o),
(24,815,o),
(24,804,cs),
(24,796,o),
(31,789,o),
(50,789,cs),
(107,789,o),
(134,788,o),
(135,753,cs),
(138,679,o),
(143,484,o),
(143,313,cs),
(143,283,o),
(143,244,o),
(143,197,cs),
(142,150,o),
(142,101,o),
(142,52,cs),
(142,29,o),
(85,28,o),
(50,28,cs),
(33,28,o),
(21,23,o),
(21,12,cs),
(21,6,o),
(26,3,o),
(35,2,cs),
(44,1,o),
(57,0,o),
(72,0,cs)
);
},
{
closed = 1;
nodes = (
(183,392,l),
(205,392,o),
(232,395,o),
(262,395,cs),
(421,395,o),
(586,375,o),
(586,222,cs),
(586,134,o),
(532,85,o),
(451,60,cs),
(372,35,o),
(278,32,o),
(183,32,c)
);
},
{
closed = 1;
nodes = (
(231,429,o),
(214,429,o),
(202,430,cs),
(189,430,o),
(183,431,o),
(183,432,cs),
(183,783,l),
(190,784,o),
(197,784,o),
(206,785,cs),
(221,786,o),
(241,787,o),
(264,787,cs),
(403,787,o),
(546,751,o),
(546,605,cs),
(546,519,o),
(494,474,o),
(436,453,cs),
(372,431,o),
(301,429,o),
(253,429,cs)
);
}
);
userData = {
assembly = "NPUSHB[ ]	/* 10 values pushed */
73 1 8 1 35 1 4 8 2 66
MPPEM[ ]	/* MeasurePixelPerEm */
PUSHB[ ]	/* 1 value pushed */
20
LT[ ]	/* LessThan */
IF[ ]	/* If */
NPUSHB[ ]	/* 37 values pushed */
11 7 2 1 1 2 83 0 2 2 12 67 5 10 2 4 4 8 83 0 8 8 15 67 6 9 2 0 0 3 83 0 3 3 13 3 68
ELSE[ ]	/* Else */
MPPEM[ ]	/* MeasurePixelPerEm */
PUSHB[ ]	/* 1 value pushed */
45
LT[ ]	/* LessThan */
IF[ ]	/* If */
NPUSHB[ ]	/* 35 values pushed */
0 8 5 10 2 4 0 8 4 91 11 7 2 1 1 2 83 0 2 2 12 67 6 9 2 0 0 3 83 0 3 3 13 3 68
ELSE[ ]	/* Else */
NPUSHB[ ]	/* 41 values pushed */
9 1 0 6 3 6 0 96 0 8 5 10 2 4 6 8 4 91 11 7 2 1 1 2 83 0 2 2 14 67 0 6 6 3 83 0 3 3 13 3 68
EIF[ ]	/* EndIf */
EIF[ ]	/* EndIf */
NPUSHB[ ]	/* 32 values pushed */
70 68 53 50 2 0 79 75 68 88 70 88 58 56 55 54 50 67 53 67 45 42 28 21 17 15 0 49 2 49 12 15
CALL[ ]	/* CallFunction */";
};
width = 666;
}
);
note = B;
unicode = 66;
},
{
glyphname = C;
kernLeft = C;
kernRight = C;
lastChange = "2024-06-14 08:59:27 +0000";
layers = (
{
layerId = m01;
shapes = (
{
closed = 1;
nodes = (
(437,-14,o),
(512,24,o),
(560,73,cs),
(607,121,o),
(628,179,o),
(628,222,cs),
(628,243,o),
(616,253,o),
(592,253,cs),
(567,253,o),
(558,244,o),
(546,207,cs),
(512,104,o),
(453,66,o),
(337,66,cs),
(268,66,o),
(216,105,o),
(182,166,cs),
(148,227,o),
(130,312,o),
(130,404,cs),
(130,585,o),
(216,759,o),
(343,759,cs),
(472,759,o),
(519,638,o),
(522,524,cs),
(523,473,o),
(538,465,o),
(570,465,cs),
(603,465,o),
(613,481,o),
(613,513,cs),
(613,534,o),
(613,555,o),
(612,574,cs),
(611,593,o),
(611,613,o),
(611,634,cs),
(611,658,o),
(612,684,o),
(613,711,cs),
(614,738,o),
(615,764,o),
(615,787,cs),
(615,803,o),
(610,829,o),
(570,829,cs),
(538,829,o),
(532,812,o),
(532,793,cs),
(532,792,o),
(532,786,o),
(533,775,cs),
(533,764,o),
(534,742,o),
(536,707,c),
(513,767,o),
(450,838,o),
(342,838,cs),
(174,838,o),
(34,649,o),
(34,405,cs),
(34,104,o),
(186,-14,o),
(329,-14,cs)
);
}
);
userData = {
assembly = "PUSHB[ ]	/* 6 values pushed */
20 1 3 4 1 66
MPPEM[ ]	/* MeasurePixelPerEm */
PUSHB[ ]	/* 1 value pushed */
27
LT[ ]	/* LessThan */
IF[ ]	/* If */
NPUSHB[ ]	/* 41 values pushed */
0 6 3 5 3 6 5 104 0 4 4 1 83 2 1 1 1 20 67 0 3 3 1 83 2 1 1 1 20 67 0 5 5 0 83 0 0 0 21 0 68
ELSE[ ]	/* Else */
MPPEM[ ]	/* MeasurePixelPerEm */
PUSHB[ ]	/* 1 value pushed */
45
LT[ ]	/* LessThan */
IF[ ]	/* If */
NPUSHB[ ]	/* 39 values pushed */
0 6 3 5 3 6 5 104 0 4 4 1 83 0 1 1 20 67 0 3 3 2 83 0 2 2 12 67 0 5 5 0 83 0 0 0 21 0 68
ELSE[ ]	/* Else */
NPUSHB[ ]	/* 35 values pushed */
0 6 3 5 3 6 5 104 0 1 0 4 3 1 4 91 0 2 0 3 6 2 3 91 0 5 5 0 83 0 0 0 21 0 68
EIF[ ]	/* EndIf */
EIF[ ]	/* EndIf */
NPUSHB[ ]	/* 9 values pushed */
38 40 38 44 41 40 36 7 22
CALL[ ]	/* CallFunction */";
};
width = 661;
},
{
layerId = "62092E79-60F6-4D0B-8A38-B9DDC6B60A9E";
shapes = (
{
closed = 1;
nodes = (
(432,-14,o),
(502,23,o),
(546,71,cs),
(590,119,o),
(610,176,o),
(610,219,cs),
(610,239,o),
(600,249,o),
(581,249,cs),
(557,249,o),
(554,230,o),
(549,203,cs),
(533,115,o),
(455,48,o),
(340,48,cs),
(188,48,o),
(112,206,o),
(112,404,cs),
(112,600,o),
(208,777,o),
(346,777,cs),
(477,777,o),
(525,659,o),
(525,527,cs),
(525,478,o),
(537,468,o),
(561,468,cs),
(590,468,o),
(595,490,o),
(595,502,cs),
(595,523,o),
(595,545,o),
(594,568,cs),
(593,591,o),
(593,613,o),
(593,634,cs),
(593,658,o),
(594,684,o),
(595,713,cs),
(596,741,o),
(597,767,o),
(597,790,cs),
(597,801,o),
(593,823,o),
(561,823,cs),
(537,823,o),
(528,804,o),
(528,788,c),
(528,788,o),
(530,751,o),
(533,702,c),
(510,761,o),
(454,838,o),
(345,838,cs),
(177,838,o),
(37,649,o),
(37,405,cs),
(37,104,o),
(189,-14,o),
(332,-14,cs)
);
}
);
userData = {
assembly = "NPUSHB[ ]	/* 10 values pushed */
25 1 4 2 20 1 3 4 2 66
MPPEM[ ]	/* MeasurePixelPerEm */
PUSHB[ ]	/* 1 value pushed */
45
LT[ ]	/* LessThan */
IF[ ]	/* If */
NPUSHB[ ]	/* 39 values pushed */
0 6 3 5 3 6 5 104 0 4 4 1 83 0 1 1 20 67 0 3 3 2 83 0 2 2 12 67 0 5 5 0 83 0 0 0 21 0 68
ELSE[ ]	/* Else */
NPUSHB[ ]	/* 37 values pushed */
0 6 3 5 3 6 5 104 0 1 0 4 3 1 4 91 0 3 3 2 83 0 2 2 14 67 0 5 5 0 83 0 0 0 21 0 68
EIF[ ]	/* EndIf */
NPUSHB[ ]	/* 9 values pushed */
38 40 38 44 43 40 36 7 22
CALL[ ]	/* CallFunction */";
};
width = 646;
},
{
layerId = "E59D8378-1062-4241-9A8F-EEB295F00E05";
shapes = (
{
closed = 1;
nodes = (
(511,-14,o),
(584,126,o),
(584,214,cs),
(584,233,o),
(579,243,o),
(570,243,cs),
(556,243,o),
(556,213,o),
(553,197,cs),
(529,95,o),
(464,18,o),
(344,18,cs),
(171,18,o),
(86,192,o),
(86,404,cs),
(86,615,o),
(195,807,o),
(350,807,cs),
(481,807,o),
(529,677,o),
(529,532,cs),
(529,503,o),
(531,473,o),
(550,473,cs),
(567,473,o),
(569,488,o),
(569,507,cs),
(569,528,o),
(569,550,o),
(568,571,cs),
(567,592,o),
(567,613,o),
(567,634,cs),
(567,658,o),
(568,684,o),
(569,713,cs),
(570,741,o),
(571,767,o),
(571,790,cs),
(571,799,o),
(564,813,o),
(551,813,cs),
(538,813,o),
(532,805,o),
(532,788,c),
(532,788,o),
(534,751,o),
(537,702,c),
(514,761,o),
(458,838,o),
(349,838,cs),
(181,838,o),
(41,649,o),
(41,405,cs),
(41,104,o),
(193,-14,o),
(336,-14,cs)
);
}
);
userData = {
assembly = "PUSHB[ ]	/* 7 values pushed */
25 20 2 3 4 1 66
MPPEM[ ]	/* MeasurePixelPerEm */
PUSHB[ ]	/* 1 value pushed */
45
LT[ ]	/* LessThan */
IF[ ]	/* If */
NPUSHB[ ]	/* 39 values pushed */
0 6 3 5 3 6 5 104 0 4 4 1 83 0 1 1 20 67 0 3 3 2 83 0 2 2 14 67 0 5 5 0 83 0 0 0 21 0 68
ELSE[ ]	/* Else */
NPUSHB[ ]	/* 37 values pushed */
0 6 3 5 3 6 5 104 0 1 0 4 3 1 4 91 0 3 3 2 83 0 2 2 14 67 0 5 5 0 83 0 0 0 21 0 68
EIF[ ]	/* EndIf */
NPUSHB[ ]	/* 9 values pushed */
40 40 38 42 42 40 36 7 22
CALL[ ]	/* CallFunction */";
};
width = 625;
}
);
note = C;
unicode = 67;
},
{
glyphname = Cacute;
kernLeft = C;
kernRight = C;
lastChange = "2024-06-14 08:59:27 +0000";
layers = (
{
layerId = m01;
shapes = (
{
closed = 1;
nodes = (
(437,-14,o),
(512,24,o),
(560,73,cs),
(607,121,o),
(628,179,o),
(628,222,cs),
(628,243,o),
(616,253,o),
(592,253,cs),
(567,253,o),
(558,244,o),
(546,207,cs),
(512,104,o),
(453,66,o),
(337,66,cs),
(268,66,o),
(216,105,o),
(182,166,cs),
(148,227,o),
(130,312,o),
(130,404,cs),
(130,585,o),
(216,759,o),
(343,759,cs),
(472,759,o),
(519,638,o),
(522,524,cs),
(523,473,o),
(538,465,o),
(570,465,cs),
(603,465,o),
(613,481,o),
(613,513,cs),
(613,534,o),
(613,555,o),
(612,574,cs),
(611,593,o),
(611,613,o),
(611,634,cs),
(611,658,o),
(612,684,o),
(613,711,cs),
(614,738,o),
(615,764,o),
(615,787,cs),
(615,803,o),
(610,829,o),
(570,829,cs),
(538,829,o),
(532,812,o),
(532,793,cs),
(532,792,o),
(532,786,o),
(533,775,cs),
(533,764,o),
(534,742,o),
(536,707,c),
(513,767,o),
(450,838,o),
(342,838,cs),
(174,838,o),
(34,649,o),
(34,405,cs),
(34,104,o),
(186,-14,o),
(329,-14,cs)
);
},
{
closed = 1;
nodes = (
(351,840,o),
(436,897,o),
(436,935,cs),
(436,954,o),
(422,972,o),
(395,972,cs),
(357,972,o),
(281,898,o),
(281,871,cs),
(281,855,o),
(296,840,o),
(317,840,cs)
);
}
);
userData = {
assembly = "PUSHB[ ]	/* 6 values pushed */
36 1 5 6 1 66
MPPEM[ ]	/* MeasurePixelPerEm */
PUSHB[ ]	/* 1 value pushed */
9
LT[ ]	/* LessThan */
IF[ ]	/* If */
NPUSHB[ ]	/* 52 values pushed */
0 1 0 3 1 94 0 0 3 0 106 0 8 5 7 5 8 7 104 0 6 6 3 83 4 1 3 3 20 67 0 5 5 3 83 4 1 3 3 20 67 0 7 7 2 83 0 2 2 21 2 68
ELSE[ ]	/* Else */
MPPEM[ ]	/* MeasurePixelPerEm */
PUSHB[ ]	/* 1 value pushed */
27
LT[ ]	/* LessThan */
IF[ ]	/* If */
NPUSHB[ ]	/* 51 values pushed */
0 1 0 1 106 0 0 3 0 106 0 8 5 7 5 8 7 104 0 6 6 3 83 4 1 3 3 20 67 0 5 5 3 83 4 1 3 3 20 67 0 7 7 2 83 0 2 2 21 2 68
ELSE[ ]	/* Else */
MPPEM[ ]	/* MeasurePixelPerEm */
PUSHB[ ]	/* 1 value pushed */
45
LT[ ]	/* LessThan */
IF[ ]	/* If */
NPUSHB[ ]	/* 49 values pushed */
0 1 0 1 106 0 0 3 0 106 0 8 5 7 5 8 7 104 0 6 6 3 83 0 3 3 20 67 0 5 5 4 83 0 4 4 12 67 0 7 7 2 83 0 2 2 21 2 68
ELSE[ ]	/* Else */
NPUSHB[ ]	/* 45 values pushed */
0 1 0 1 106 0 0 3 0 106 0 8 5 7 5 8 7 104 0 3 0 6 5 3 6 92 0 4 0 5 8 4 5 91 0 7 7 2 83 0 2 2 21 2 68
EIF[ ]	/* EndIf */
EIF[ ]	/* EndIf */
EIF[ ]	/* EndIf */
NPUSHB[ ]	/* 11 values pushed */
38 40 38 44 41 40 38 38 36 9 24
CALL[ ]	/* CallFunction */";
};
width = 661;
},
{
layerId = "62092E79-60F6-4D0B-8A38-B9DDC6B60A9E";
shapes = (
{
closed = 1;
nodes = (
(432,-14,o),
(502,23,o),
(546,71,cs),
(590,119,o),
(610,176,o),
(610,219,cs),
(610,239,o),
(600,249,o),
(581,249,cs),
(557,249,o),
(554,230,o),
(549,203,cs),
(533,115,o),
(455,48,o),
(340,48,cs),
(188,48,o),
(112,206,o),
(112,404,cs),
(112,600,o),
(208,777,o),
(346,777,cs),
(477,777,o),
(525,659,o),
(525,527,cs),
(525,478,o),
(537,468,o),
(561,468,cs),
(590,468,o),
(595,490,o),
(595,502,cs),
(595,523,o),
(595,545,o),
(594,568,cs),
(593,591,o),
(593,613,o),
(593,634,cs),
(593,658,o),
(594,684,o),
(595,713,cs),
(596,741,o),
(597,767,o),
(597,790,cs),
(597,801,o),
(593,823,o),
(561,823,cs),
(537,823,o),
(528,804,o),
(528,788,c),
(528,788,o),
(530,751,o),
(533,702,c),
(510,761,o),
(454,838,o),
(345,838,cs),
(177,838,o),
(37,649,o),
(37,405,cs),
(37,104,o),
(189,-14,o),
(332,-14,cs)
);
},
{
closed = 1;
nodes = (
(353,854,o),
(441,908,o),
(441,941,cs),
(441,960,o),
(429,972,o),
(409,972,cs),
(380,972,o),
(303,904,o),
(303,877,cs),
(303,864,o),
(312,854,o),
(327,854,cs)
);
}
);
userData = {
assembly = "NPUSHB[ ]	/* 10 values pushed */
41 1 6 4 36 1 5 6 2 66
MPPEM[ ]	/* MeasurePixelPerEm */
PUSHB[ ]	/* 1 value pushed */
45
LT[ ]	/* LessThan */
IF[ ]	/* If */
NPUSHB[ ]	/* 49 values pushed */
0 1 0 1 106 0 0 3 0 106 0 8 5 7 5 8 7 104 0 6 6 3 83 0 3 3 20 67 0 5 5 4 83 0 4 4 12 67 0 7 7 2 84 0 2 2 21 2 68
ELSE[ ]	/* Else */
NPUSHB[ ]	/* 47 values pushed */
0 1 0 1 106 0 0 3 0 106 0 8 5 7 5 8 7 104 0 3 0 6 5 3 6 91 0 5 5 4 83 0 4 4 14 67 0 7 7 2 84 0 2 2 21 2 68
EIF[ ]	/* EndIf */
NPUSHB[ ]	/* 11 values pushed */
38 40 38 44 43 40 38 38 36 9 24
CALL[ ]	/* CallFunction */";
};
width = 646;
},
{
layerId = "E59D8378-1062-4241-9A8F-EEB295F00E05";
shapes = (
{
closed = 1;
nodes = (
(511,-14,o),
(584,126,o),
(584,214,cs),
(584,233,o),
(579,243,o),
(570,243,cs),
(556,243,o),
(556,213,o),
(553,197,cs),
(529,95,o),
(464,18,o),
(344,18,cs),
(171,18,o),
(86,192,o),
(86,404,cs),
(86,615,o),
(195,807,o),
(350,807,cs),
(481,807,o),
(529,677,o),
(529,532,cs),
(529,503,o),
(531,473,o),
(550,473,cs),
(567,473,o),
(569,488,o),
(569,507,cs),
(569,528,o),
(569,550,o),
(568,571,cs),
(567,592,o),
(567,613,o),
(567,634,cs),
(567,658,o),
(568,684,o),
(569,713,cs),
(570,741,o),
(571,767,o),
(571,790,cs),
(571,799,o),
(564,813,o),
(551,813,cs),
(538,813,o),
(532,805,o),
(532,788,c),
(532,788,o),
(534,751,o),
(537,702,c),
(514,761,o),
(458,838,o),
(349,838,cs),
(181,838,o),
(41,649,o),
(41,405,cs),
(41,104,o),
(193,-14,o),
(336,-14,cs)
);
},
{
closed = 1;
nodes = (
(317,875,o),
(405,928,o),
(405,949,cs),
(405,968,o),
(397,971,o),
(386,971,cs),
(366,971,o),
(291,910,o),
(291,886,cs),
(291,879,o),
(294,875,o),
(299,875,cs)
);
}
);
userData = {
assembly = "PUSHB[ ]	/* 7 values pushed */
40 35 2 5 6 1 66
MPPEM[ ]	/* MeasurePixelPerEm */
PUSHB[ ]	/* 1 value pushed */
9
LT[ ]	/* LessThan */
IF[ ]	/* If */
NPUSHB[ ]	/* 50 values pushed */
0 1 0 3 1 94 0 0 3 0 106 0 8 5 7 5 8 7 104 0 6 6 3 83 0 3 3 20 67 0 5 5 4 83 0 4 4 14 67 0 7 7 2 83 0 2 2 21 2 68
ELSE[ ]	/* Else */
MPPEM[ ]	/* MeasurePixelPerEm */
PUSHB[ ]	/* 1 value pushed */
45
LT[ ]	/* LessThan */
IF[ ]	/* If */
NPUSHB[ ]	/* 49 values pushed */
0 1 0 1 106 0 0 3 0 106 0 8 5 7 5 8 7 104 0 6 6 3 83 0 3 3 20 67 0 5 5 4 83 0 4 4 14 67 0 7 7 2 83 0 2 2 21 2 68
ELSE[ ]	/* Else */
NPUSHB[ ]	/* 47 values pushed */
0 1 0 1 106 0 0 3 0 106 0 8 5 7 5 8 7 104 0 3 0 6 5 3 6 92 0 5 5 4 83 0 4 4 14 67 0 7 7 2 83 0 2 2 21 2 68
EIF[ ]	/* EndIf */
EIF[ ]	/* EndIf */
NPUSHB[ ]	/* 11 values pushed */
40 40 38 42 42 40 38 37 36 9 24
CALL[ ]	/* CallFunction */";
};
width = 625;
}
);
note = Cacute;
unicode = 262;
},
{
glyphname = Ccaron;
kernLeft = C;
kernRight = C;
lastChange = "2024-06-14 08:59:27 +0000";
layers = (
{
layerId = m01;
shapes = (
{
closed = 1;
nodes = (
(437,-14,o),
(512,24,o),
(560,73,cs),
(607,121,o),
(628,179,o),
(628,222,cs),
(628,243,o),
(616,253,o),
(592,253,cs),
(567,253,o),
(558,244,o),
(546,207,cs),
(512,104,o),
(453,66,o),
(337,66,cs),
(268,66,o),
(216,105,o),
(182,166,cs),
(148,227,o),
(130,312,o),
(130,404,cs),
(130,585,o),
(216,759,o),
(343,759,cs),
(472,759,o),
(519,638,o),
(522,524,cs),
(523,473,o),
(538,465,o),
(570,465,cs),
(603,465,o),
(613,481,o),
(613,513,cs),
(613,534,o),
(613,555,o),
(612,574,cs),
(611,593,o),
(611,613,o),
(611,634,cs),
(611,658,o),
(612,684,o),
(613,711,cs),
(614,738,o),
(615,764,o),
(615,787,cs),
(615,803,o),
(610,829,o),
(570,829,cs),
(538,829,o),
(532,812,o),
(532,793,cs),
(532,792,o),
(532,786,o),
(533,775,cs),
(533,764,o),
(534,742,o),
(536,707,c),
(516,761,o),
(459,827,o),
(365,837,c),
(405,855,o),
(478,917,o),
(478,951,cs),
(478,960,o),
(476,972,o),
(465,972,cs),
(459,972,o),
(404,960,o),
(345,922,c),
(310,948,o),
(244,972,o),
(226,972,cs),
(218,972,o),
(213,965,o),
(213,958,cs),
(213,916,o),
(290,855,o),
(326,837,c),
(246,832,o),
(172,782,o),
(120,705,cs),
(67,628,o),
(34,522,o),
(34,405,cs),
(34,104,o),
(186,-14,o),
(329,-14,cs)
);
}
);
userData = {
assembly = "NPUSHB[ ]	/* 11 values pushed */
41 28 2 1 2 46 1 5 6 2 66
MPPEM[ ]	/* MeasurePixelPerEm */
PUSHB[ ]	/* 1 value pushed */
39
LT[ ]	/* LessThan */
IF[ ]	/* If */
NPUSHB[ ]	/* 47 values pushed */
3 1 2 1 2 106 0 8 5 7 5 8 7 104 0 6 6 1 83 4 1 1 1 20 67 0 5 5 1 83 4 1 1 1 20 67 0 7 7 0 83 0 0 0 21 0 68
ELSE[ ]	/* Else */
MPPEM[ ]	/* MeasurePixelPerEm */
PUSHB[ ]	/* 1 value pushed */
45
LT[ ]	/* LessThan */
IF[ ]	/* If */
NPUSHB[ ]	/* 45 values pushed */
3 1 2 1 2 106 0 8 5 7 5 8 7 104 0 6 6 1 83 0 1 1 20 67 0 5 5 4 83 0 4 4 12 67 0 7 7 0 83 0 0 0 21 0 68
ELSE[ ]	/* Else */
NPUSHB[ ]	/* 41 values pushed */
3 1 2 1 2 106 0 8 5 7 5 8 7 104 0 1 0 6 5 1 6 91 0 4 0 5 8 4 5 91 0 7 7 0 83 0 0 0 21 0 68
EIF[ ]	/* EndIf */
EIF[ ]	/* EndIf */
NPUSHB[ ]	/* 16 values pushed */
93 91 85 83 75 73 67 65 53 51 40 39 24 36 9 19
CALL[ ]	/* CallFunction */";
};
width = 661;
},
{
layerId = "62092E79-60F6-4D0B-8A38-B9DDC6B60A9E";
shapes = (
{
closed = 1;
nodes = (
(432,-14,o),
(502,23,o),
(546,71,cs),
(590,119,o),
(610,176,o),
(610,219,cs),
(610,239,o),
(600,249,o),
(581,249,cs),
(557,249,o),
(554,230,o),
(549,203,cs),
(533,115,o),
(455,48,o),
(340,48,cs),
(188,48,o),
(112,206,o),
(112,404,cs),
(112,600,o),
(208,777,o),
(346,777,cs),
(477,777,o),
(525,659,o),
(525,527,cs),
(525,478,o),
(537,468,o),
(561,468,cs),
(590,468,o),
(595,490,o),
(595,502,cs),
(595,523,o),
(595,545,o),
(594,568,cs),
(593,591,o),
(593,613,o),
(593,634,cs),
(593,658,o),
(594,684,o),
(595,713,cs),
(596,741,o),
(597,767,o),
(597,790,cs),
(597,801,o),
(593,823,o),
(561,823,cs),
(537,823,o),
(528,804,o),
(528,788,c),
(528,788,o),
(530,751,o),
(533,702,c),
(510,761,o),
(454,838,o),
(345,838,cs),
(177,838,o),
(37,649,o),
(37,405,cs),
(37,104,o),
(189,-14,o),
(332,-14,cs)
);
},
{
closed = 1;
nodes = (
(366,847,o),
(472,919,o),
(472,955,cs),
(472,964,o),
(469,972,o),
(461,972,cs),
(453,972,o),
(405,959,o),
(341,921,c),
(301,945,o),
(240,972,o),
(222,972,cs),
(215,972,o),
(211,968,o),
(211,959,cs),
(211,918,o),
(319,847,o),
(341,847,cs)
);
}
);
userData = {
assembly = "NPUSHB[ ]	/* 14 values pushed */
20 1 1 0 50 1 7 5 45 1 6 7 3 66
MPPEM[ ]	/* MeasurePixelPerEm */
PUSHB[ ]	/* 1 value pushed */
45
LT[ ]	/* LessThan */
IF[ ]	/* If */
NPUSHB[ ]	/* 51 values pushed */
2 10 2 0 1 0 106 0 1 4 1 106 0 9 6 8 6 9 8 104 0 7 7 4 83 0 4 4 20 67 0 6 6 5 83 0 5 5 12 67 0 8 8 3 83 0 3 3 21 3 68
ELSE[ ]	/* Else */
NPUSHB[ ]	/* 49 values pushed */
2 10 2 0 1 0 106 0 1 4 1 106 0 9 6 8 6 9 8 104 0 4 0 7 6 4 7 91 0 6 6 5 83 0 5 5 14 67 0 8 8 3 83 0 3 3 21 3 68
EIF[ ]	/* EndIf */
NPUSHB[ ]	/* 26 values pushed */
1 0 94 92 86 84 76 74 68 66 54 52 41 39 31 29 16 14 9 7 0 24 1 24 11 15
CALL[ ]	/* CallFunction */";
};
width = 646;
},
{
layerId = "E59D8378-1062-4241-9A8F-EEB295F00E05";
shapes = (
{
closed = 1;
nodes = (
(511,-14,o),
(584,126,o),
(584,214,cs),
(584,233,o),
(579,243,o),
(570,243,cs),
(556,243,o),
(556,213,o),
(553,197,cs),
(529,95,o),
(464,18,o),
(344,18,cs),
(171,18,o),
(86,192,o),
(86,404,cs),
(86,615,o),
(195,807,o),
(350,807,cs),
(481,807,o),
(529,677,o),
(529,532,cs),
(529,503,o),
(531,473,o),
(550,473,cs),
(567,473,o),
(569,488,o),
(569,507,cs),
(569,528,o),
(569,550,o),
(568,571,cs),
(567,592,o),
(567,613,o),
(567,634,cs),
(567,658,o),
(568,684,o),
(569,713,cs),
(570,741,o),
(571,767,o),
(571,790,cs),
(571,799,o),
(564,813,o),
(551,813,cs),
(538,813,o),
(532,805,o),
(532,788,c),
(532,788,o),
(534,751,o),
(537,702,c),
(514,761,o),
(458,838,o),
(349,838,cs),
(181,838,o),
(41,649,o),
(41,405,cs),
(41,104,o),
(193,-14,o),
(336,-14,cs)
);
},
{
closed = 1;
nodes = (
(368,876,o),
(473,936,o),
(473,961,cs),
(473,968,o),
(470,972,o),
(465,972,cs),
(458,972,o),
(410,954,o),
(345,920,c),
(296,941,o),
(237,972,o),
(226,972,cs),
(221,972,o),
(218,968,o),
(218,961,cs),
(218,937,o),
(321,876,o),
(345,876,cs)
);
}
);
userData = {
assembly = "NPUSHB[ ]	/* 11 values pushed */
19 1 1 0 49 44 2 6 7 2 66
MPPEM[ ]	/* MeasurePixelPerEm */
PUSHB[ ]	/* 1 value pushed */
45
LT[ ]	/* LessThan */
IF[ ]	/* If */
NPUSHB[ ]	/* 51 values pushed */
2 10 2 0 1 0 106 0 1 4 1 106 0 9 6 8 6 9 8 104 0 7 7 4 83 0 4 4 20 67 0 6 6 5 83 0 5 5 14 67 0 8 8 3 83 0 3 3 21 3 68
ELSE[ ]	/* Else */
NPUSHB[ ]	/* 49 values pushed */
2 10 2 0 1 0 106 0 1 4 1 106 0 9 6 8 6 9 8 104 0 4 0 7 6 4 7 91 0 6 6 5 83 0 5 5 14 67 0 8 8 3 83 0 3 3 21 3 68
EIF[ ]	/* EndIf */
NPUSHB[ ]	/* 26 values pushed */
1 0 92 90 82 80 72 70 64 62 52 50 40 38 30 28 15 13 8 6 0 23 1 23 11 15
CALL[ ]	/* CallFunction */";
};
width = 625;
}
);
note = Ccaron;
unicode = 268;
},
{
glyphname = Ccedilla;
kernLeft = C;
kernRight = C;
lastChange = "2024-06-14 08:59:27 +0000";
layers = (
{
layerId = m01;
shapes = (
{
closed = 1;
nodes = (
(460,-190,o),
(519,-164,o),
(519,-112,cs),
(519,-73,o),
(486,-49,o),
(442,-49,cs),
(414,-49,o),
(394,-59,o),
(362,-78,c),
(374,-11,l),
(465,-2,o),
(529,38,o),
(570,84,cs),
(610,130,o),
(628,183,o),
(628,222,cs),
(628,243,o),
(616,253,o),
(592,253,cs),
(567,253,o),
(558,244,o),
(546,207,cs),
(512,104,o),
(453,66,o),
(337,66,cs),
(268,66,o),
(216,105,o),
(182,166,cs),
(148,227,o),
(130,312,o),
(130,404,cs),
(130,585,o),
(216,759,o),
(343,759,cs),
(472,759,o),
(519,638,o),
(522,524,cs),
(523,473,o),
(538,465,o),
(570,465,cs),
(603,465,o),
(613,481,o),
(613,513,cs),
(613,534,o),
(613,555,o),
(612,574,cs),
(611,593,o),
(611,613,o),
(611,634,cs),
(611,658,o),
(612,684,o),
(613,711,cs),
(614,738,o),
(615,764,o),
(615,787,cs),
(615,803,o),
(610,829,o),
(570,829,cs),
(538,829,o),
(532,812,o),
(532,793,cs),
(532,792,o),
(532,786,o),
(533,775,cs),
(533,764,o),
(534,742,o),
(536,707,c),
(513,767,o),
(450,838,o),
(342,838,cs),
(174,838,o),
(34,649,o),
(34,405,cs),
(34,129,o),
(161,8,o),
(293,-11,c),
(292,-20,o),
(290,-30,o),
(289,-43,cs),
(288,-56,o),
(286,-69,o),
(283,-80,cs),
(282,-85,o),
(280,-93,o),
(280,-97,cs),
(280,-112,o),
(287,-130,o),
(318,-130,cs),
(360,-130,o),
(374,-102,o),
(408,-102,cs),
(419,-102,o),
(431,-107,o),
(431,-118,cs),
(431,-126,o),
(428,-132,o),
(422,-135,cs),
(416,-138,o),
(404,-140,o),
(386,-140,cs),
(313,-140,o),
(311,-160,o),
(311,-168,cs),
(311,-177,o),
(317,-182,o),
(330,-185,cs),
(342,-188,o),
(362,-190,o),
(390,-190,cs)
);
}
);
userData = {
assembly = "NPUSHB[ ]	/* 14 values pushed */
60 1 7 8 45 1 0 9 6 1 3 0 3 66
MPPEM[ ]	/* MeasurePixelPerEm */
PUSHB[ ]	/* 1 value pushed */
20
LT[ ]	/* LessThan */
IF[ ]	/* If */
NPUSHB[ ]	/* 64 values pushed */
0 10 7 9 7 10 9 104 0 0 9 3 9 0 3 104 0 3 4 9 3 4 102 0 9 0 4 2 9 4 91 0 8 8 5 83 6 1 5 5 20 67 0 7 7 5 83 6 1 5 5 20 67 0 2 2 1 83 0 1 1 17 1 68
ELSE[ ]	/* Else */
MPPEM[ ]	/* MeasurePixelPerEm */
PUSHB[ ]	/* 1 value pushed */
27
LT[ ]	/* LessThan */
IF[ ]	/* If */
NPUSHB[ ]	/* 61 values pushed */
0 10 7 9 7 10 9 104 0 0 9 3 9 0 3 104 0 3 4 9 3 4 102 0 9 0 4 2 9 4 91 0 2 0 1 2 1 87 0 8 8 5 83 6 1 5 5 20 67 0 7 7 5 83 6 1 5 5 20 7 68
ELSE[ ]	/* Else */
MPPEM[ ]	/* MeasurePixelPerEm */
PUSHB[ ]	/* 1 value pushed */
45
LT[ ]	/* LessThan */
IF[ ]	/* If */
NPUSHB[ ]	/* 59 values pushed */
0 10 7 9 7 10 9 104 0 0 9 3 9 0 3 104 0 3 4 9 3 4 102 0 9 0 4 2 9 4 91 0 2 0 1 2 1 87 0 8 8 5 83 0 5 5 20 67 0 7 7 6 83 0 6 6 12 7 68
ELSE[ ]	/* Else */
NPUSHB[ ]	/* 63 values pushed */
0 10 7 9 7 10 9 104 0 0 9 3 9 0 3 104 0 3 4 9 3 4 102 0 5 0 8 7 5 8 91 0 6 0 7 10 6 7 91 0 9 0 4 2 9 4 91 0 2 1 1 2 79 0 2 2 1 83 0 1 2 1 71
EIF[ ]	/* EndIf */
EIF[ ]	/* EndIf */
EIF[ ]	/* EndIf */
NPUSHB[ ]	/* 19 values pushed */
107 105 99 97 89 87 81 79 67 65 56 54 35 36 38 38 40 11 20
CALL[ ]	/* CallFunction */";
};
width = 661;
},
{
layerId = "62092E79-60F6-4D0B-8A38-B9DDC6B60A9E";
shapes = (
{
closed = 1;
nodes = (
(432,-14,o),
(502,23,o),
(546,71,cs),
(590,119,o),
(610,176,o),
(610,219,cs),
(610,239,o),
(600,249,o),
(581,249,cs),
(557,249,o),
(554,230,o),
(549,203,cs),
(533,115,o),
(455,48,o),
(340,48,cs),
(188,48,o),
(112,206,o),
(112,404,cs),
(112,600,o),
(208,777,o),
(346,777,cs),
(477,777,o),
(525,659,o),
(525,527,cs),
(525,478,o),
(537,468,o),
(561,468,cs),
(590,468,o),
(595,490,o),
(595,502,cs),
(595,523,o),
(595,545,o),
(594,568,cs),
(593,591,o),
(593,613,o),
(593,634,cs),
(593,658,o),
(594,684,o),
(595,713,cs),
(596,741,o),
(597,767,o),
(597,790,cs),
(597,801,o),
(593,823,o),
(561,823,cs),
(537,823,o),
(528,804,o),
(528,788,c),
(528,788,o),
(530,751,o),
(533,702,c),
(510,761,o),
(454,838,o),
(345,838,cs),
(177,838,o),
(37,649,o),
(37,405,cs),
(37,104,o),
(189,-14,o),
(332,-14,cs)
);
},
{
closed = 1;
nodes = (
(465,-181,o),
(524,-155,o),
(524,-103,cs),
(524,-64,o),
(491,-40,o),
(447,-40,cs),
(419,-40,o),
(399,-50,o),
(367,-69,c),
(380,3,l),
(361,7,l),
(321,7,l),
(321,7,l),
(320,1,o),
(318,-10,o),
(317,-26,cs),
(315,-42,o),
(312,-57,o),
(309,-71,cs),
(308,-76,o),
(306,-84,o),
(306,-88,cs),
(306,-99,o),
(312,-113,o),
(335,-113,cs),
(366,-113,o),
(390,-85,o),
(426,-85,cs),
(435,-85,o),
(457,-90,o),
(457,-109,cs),
(457,-136,o),
(434,-139,o),
(391,-139,cs),
(364,-139,o),
(348,-141,o),
(341,-146,cs),
(334,-151,o),
(330,-156,o),
(330,-161,cs),
(330,-170,o),
(336,-175,o),
(347,-177,cs),
(358,-180,o),
(374,-181,o),
(395,-181,cs)
);
}
);
userData = {
assembly = "NPUSHB[ ]	/* 18 values pushed */
26 1 4 2 21 1 3 4 72 1 0 12 73 1 10 7 4 66
MPPEM[ ]	/* MeasurePixelPerEm */
PUSHB[ ]	/* 1 value pushed */
11
LT[ ]	/* LessThan */
IF[ ]	/* If */
NPUSHB[ ]	/* 72 values pushed */
0 6 3 5 3 6 5 104 13 1 12 5 0 5 12 96 0 11 10 9 0 11 96 0 7 0 10 11 7 10 91 0 4 4 1 83 0 1 1 20 67 0 3 3 2 83 0 2 2 12 67 0 5 5 0 83 0 0 0 21 67 0 9 9 8 83 0 8 8 17 8 68
ELSE[ ]	/* Else */
MPPEM[ ]	/* MeasurePixelPerEm */
PUSHB[ ]	/* 1 value pushed */
24
LT[ ]	/* LessThan */
IF[ ]	/* If */
NPUSHB[ ]	/* 73 values pushed */
0 6 3 5 3 6 5 104 13 1 12 5 0 5 12 96 0 11 10 9 10 11 9 104 0 7 0 10 11 7 10 91 0 4 4 1 83 0 1 1 20 67 0 3 3 2 83 0 2 2 12 67 0 5 5 0 83 0 0 0 21 67 0 9 9 8 83 0 8 8 17 8 68
ELSE[ ]	/* Else */
MPPEM[ ]	/* MeasurePixelPerEm */
PUSHB[ ]	/* 1 value pushed */
31
LT[ ]	/* LessThan */
IF[ ]	/* If */
NPUSHB[ ]	/* 70 values pushed */
0 6 3 5 3 6 5 104 13 1 12 5 0 5 12 96 0 11 10 9 10 11 9 104 0 7 0 10 11 7 10 91 0 9 0 8 9 8 87 0 4 4 1 83 0 1 1 20 67 0 3 3 2 83 0 2 2 12 67 0 5 5 0 83 0 0 0 21 0 68
ELSE[ ]	/* Else */
MPPEM[ ]	/* MeasurePixelPerEm */
PUSHB[ ]	/* 1 value pushed */
45
LT[ ]	/* LessThan */
IF[ ]	/* If */
NPUSHB[ ]	/* 71 values pushed */
0 6 3 5 3 6 5 104 13 1 12 5 0 5 12 0 104 0 11 10 9 10 11 9 104 0 7 0 10 11 7 10 91 0 9 0 8 9 8 87 0 4 4 1 83 0 1 1 20 67 0 3 3 2 83 0 2 2 12 67 0 5 5 0 83 0 0 0 21 0 68
ELSE[ ]	/* Else */
NPUSHB[ ]	/* 69 values pushed */
0 6 3 5 3 6 5 104 13 1 12 5 0 5 12 0 104 0 11 10 9 10 11 9 104 0 1 0 4 3 1 4 91 0 7 0 10 11 7 10 91 0 9 0 8 9 8 87 0 3 3 2 83 0 2 2 14 67 0 5 5 0 83 0 0 0 21 0 68
EIF[ ]	/* EndIf */
EIF[ ]	/* EndIf */
EIF[ ]	/* EndIf */
EIF[ ]	/* EndIf */
NPUSHB[ ]	/* 23 values pushed */
71 71 71 110 71 110 102 100 97 95 91 89 38 37 38 40 38 44 43 40 37 14 35
CALL[ ]	/* CallFunction */";
};
width = 646;
},
{
layerId = "E59D8378-1062-4241-9A8F-EEB295F00E05";
shapes = (
{
closed = 1;
nodes = (
(436,-206,o),
(495,-180,o),
(495,-128,cs),
(495,-89,o),
(462,-65,o),
(418,-65,cs),
(390,-65,o),
(370,-75,o),
(338,-94,c),
(353,-13,l),
(519,-5,o),
(584,134,o),
(584,214,cs),
(584,233,o),
(579,243,o),
(570,243,cs),
(556,243,o),
(556,213,o),
(553,197,cs),
(529,95,o),
(464,18,o),
(344,18,cs),
(171,18,o),
(86,192,o),
(86,404,cs),
(86,615,o),
(195,807,o),
(350,807,cs),
(481,807,o),
(529,677,o),
(529,532,cs),
(529,503,o),
(531,473,o),
(550,473,cs),
(567,473,o),
(569,488,o),
(569,507,cs),
(569,528,o),
(569,550,o),
(568,571,cs),
(567,592,o),
(567,613,o),
(567,634,cs),
(567,658,o),
(568,684,o),
(569,713,cs),
(570,741,o),
(571,767,o),
(571,790,cs),
(571,799,o),
(564,813,o),
(551,813,cs),
(538,813,o),
(532,805,o),
(532,788,c),
(532,788,o),
(534,751,o),
(537,702,c),
(514,761,o),
(458,838,o),
(349,838,cs),
(181,838,o),
(41,649,o),
(41,405,cs),
(41,260,o),
(77,156,o),
(130,89,cs),
(182,21,o),
(253,-11,o),
(324,-14,c),
(321,-37,o),
(314,-75,o),
(310,-96,cs),
(309,-101,o),
(307,-109,o),
(307,-113,cs),
(307,-118,o),
(312,-125,o),
(323,-125,cs),
(345,-125,o),
(379,-97,o),
(415,-97,cs),
(444,-97,o),
(458,-115,o),
(458,-134,cs),
(458,-165,o),
(423,-177,o),
(362,-177,cs),
(349,-177,o),
(339,-177,o),
(332,-178,cs),
(325,-179,o),
(321,-183,o),
(321,-189,cs),
(321,-194,o),
(324,-198,o),
(330,-201,cs),
(335,-204,o),
(347,-206,o),
(366,-206,cs)
);
}
);
userData = {
assembly = "NPUSHB[ ]	/* 11 values pushed */
63 58 2 9 10 6 1 4 1 2 66
MPPEM[ ]	/* MeasurePixelPerEm */
PUSHB[ ]	/* 1 value pushed */
11
LT[ ]	/* LessThan */
IF[ ]	/* If */
NPUSHB[ ]	/* 65 values pushed */
0 12 9 11 9 12 11 104 0 5 4 3 0 5 96 0 1 0 4 5 1 4 91 0 10 10 7 83 0 7 7 20 67 0 9 9 8 83 0 8 8 14 67 0 11 11 0 83 6 1 0 0 21 67 0 3 3 2 83 0 2 2 17 2 68
ELSE[ ]	/* Else */
MPPEM[ ]	/* MeasurePixelPerEm */
PUSHB[ ]	/* 1 value pushed */
39
LT[ ]	/* LessThan */
IF[ ]	/* If */
NPUSHB[ ]	/* 66 values pushed */
0 12 9 11 9 12 11 104 0 5 4 3 4 5 3 104 0 1 0 4 5 1 4 91 0 10 10 7 83 0 7 7 20 67 0 9 9 8 83 0 8 8 14 67 0 11 11 0 83 6 1 0 0 24 67 0 3 3 2 83 0 2 2 17 2 68
ELSE[ ]	/* Else */
MPPEM[ ]	/* MeasurePixelPerEm */
PUSHB[ ]	/* 1 value pushed */
45
LT[ ]	/* LessThan */
IF[ ]	/* If */
NPUSHB[ ]	/* 63 values pushed */
0 12 9 11 9 12 11 104 0 5 4 3 4 5 3 104 0 1 0 4 5 1 4 91 0 3 0 2 3 2 87 0 10 10 7 83 0 7 7 20 67 0 9 9 8 83 0 8 8 14 67 0 11 11 0 83 6 1 0 0 24 0 68
ELSE[ ]	/* Else */
NPUSHB[ ]	/* 61 values pushed */
0 12 9 11 9 12 11 104 0 5 4 3 4 5 3 104 0 7 0 10 9 7 10 91 0 1 0 4 5 1 4 91 0 3 0 2 3 2 87 0 9 9 8 83 0 8 8 14 67 0 11 11 0 83 6 1 0 0 24 0 68
EIF[ ]	/* EndIf */
EIF[ ]	/* EndIf */
EIF[ ]	/* EndIf */
NPUSHB[ ]	/* 19 values pushed */
106 104 96 94 86 84 78 76 42 40 24 35 36 36 38 35 20 13 24
CALL[ ]	/* CallFunction */";
};
width = 625;
}
);
note = Ccedilla;
unicode = 199;
},
{
glyphname = Ccircumflex;
kernLeft = C;
kernRight = C;
lastChange = "2024-06-14 08:59:27 +0000";
layers = (
{
layerId = m01;
shapes = (
{
closed = 1;
nodes = (
(437,-14,o),
(512,24,o),
(560,73,cs),
(607,121,o),
(628,179,o),
(628,222,cs),
(628,243,o),
(616,253,o),
(592,253,cs),
(567,253,o),
(558,244,o),
(546,207,cs),
(512,104,o),
(453,66,o),
(337,66,cs),
(268,66,o),
(216,105,o),
(182,166,cs),
(148,227,o),
(130,312,o),
(130,404,cs),
(130,585,o),
(216,759,o),
(343,759,cs),
(472,759,o),
(519,638,o),
(522,524,cs),
(523,473,o),
(538,465,o),
(570,465,cs),
(603,465,o),
(613,481,o),
(613,513,cs),
(613,534,o),
(613,555,o),
(612,574,cs),
(611,593,o),
(611,613,o),
(611,634,cs),
(611,658,o),
(612,684,o),
(613,711,cs),
(614,738,o),
(615,764,o),
(615,787,cs),
(615,803,o),
(610,829,o),
(570,829,cs),
(538,829,o),
(532,812,o),
(532,793,cs),
(532,792,o),
(532,786,o),
(533,775,cs),
(533,764,o),
(534,742,o),
(536,707,c),
(513,767,o),
(450,838,o),
(342,838,cs),
(174,838,o),
(34,649,o),
(34,405,cs),
(34,104,o),
(186,-14,o),
(329,-14,cs)
);
},
{
closed = 1;
nodes = (
(225,830,o),
(240,835,o),
(263,844,cs),
(286,853,o),
(310,865,o),
(337,880,c),
(364,865,o),
(389,853,o),
(412,844,cs),
(435,835,o),
(450,830,o),
(457,830,cs),
(468,830,o),
(470,842,o),
(470,851,cs),
(470,892,o),
(361,972,o),
(337,972,cs),
(326,972,o),
(291,950,o),
(264,928,cs),
(233,903,o),
(205,871,o),
(205,844,cs),
(205,837,o),
(209,830,o),
(218,830,cs)
);
}
);
userData = {
assembly = "NPUSHB[ ]	/* 10 values pushed */
3 1 4 2 42 1 6 7 2 66
MPPEM[ ]	/* MeasurePixelPerEm */
PUSHB[ ]	/* 1 value pushed */
9
LT[ ]	/* LessThan */
IF[ ]	/* If */
NPUSHB[ ]	/* 57 values pushed */
0 2 4 4 2 94 1 10 2 0 4 7 4 0 7 104 0 9 6 8 6 9 8 104 0 7 7 4 83 5 1 4 4 20 67 0 6 6 4 83 5 1 4 4 20 67 0 8 8 3 83 0 3 3 21 3 68
ELSE[ ]	/* Else */
MPPEM[ ]	/* MeasurePixelPerEm */
PUSHB[ ]	/* 1 value pushed */
27
LT[ ]	/* LessThan */
IF[ ]	/* If */
NPUSHB[ ]	/* 56 values pushed */
0 2 4 2 106 1 10 2 0 4 7 4 0 7 104 0 9 6 8 6 9 8 104 0 7 7 4 83 5 1 4 4 20 67 0 6 6 4 83 5 1 4 4 20 67 0 8 8 3 83 0 3 3 21 3 68
ELSE[ ]	/* Else */
MPPEM[ ]	/* MeasurePixelPerEm */
PUSHB[ ]	/* 1 value pushed */
45
LT[ ]	/* LessThan */
IF[ ]	/* If */
NPUSHB[ ]	/* 54 values pushed */
0 2 4 2 106 1 10 2 0 4 5 4 0 5 104 0 9 6 8 6 9 8 104 0 7 7 4 83 0 4 4 20 67 0 6 6 5 83 0 5 5 12 67 0 8 8 3 83 0 3 3 21 3 68
ELSE[ ]	/* Else */
NPUSHB[ ]	/* 50 values pushed */
0 2 4 2 106 1 10 2 0 4 5 4 0 5 104 0 9 6 8 6 9 8 104 0 4 0 7 6 4 7 92 0 5 0 6 9 5 6 91 0 8 8 3 83 0 3 3 21 3 68
EIF[ ]	/* EndIf */
EIF[ ]	/* EndIf */
EIF[ ]	/* EndIf */
NPUSHB[ ]	/* 26 values pushed */
1 0 89 87 81 79 71 69 63 61 49 47 38 36 28 26 15 13 7 5 0 21 1 21 11 15
CALL[ ]	/* CallFunction */";
};
width = 661;
},
{
layerId = "62092E79-60F6-4D0B-8A38-B9DDC6B60A9E";
shapes = (
{
closed = 1;
nodes = (
(432,-14,o),
(502,23,o),
(546,71,cs),
(590,119,o),
(610,176,o),
(610,219,cs),
(610,239,o),
(600,249,o),
(581,249,cs),
(557,249,o),
(554,230,o),
(549,203,cs),
(533,115,o),
(455,48,o),
(340,48,cs),
(188,48,o),
(112,206,o),
(112,404,cs),
(112,600,o),
(208,777,o),
(346,777,cs),
(477,777,o),
(525,659,o),
(525,527,cs),
(525,478,o),
(537,468,o),
(561,468,cs),
(590,468,o),
(595,490,o),
(595,502,cs),
(595,523,o),
(595,545,o),
(594,568,cs),
(593,591,o),
(593,613,o),
(593,634,cs),
(593,658,o),
(594,684,o),
(595,713,cs),
(596,741,o),
(597,767,o),
(597,790,cs),
(597,801,o),
(593,823,o),
(561,823,cs),
(537,823,o),
(528,804,o),
(528,788,c),
(528,788,o),
(530,751,o),
(533,702,c),
(510,761,o),
(454,838,o),
(345,838,cs),
(177,838,o),
(37,649,o),
(37,405,cs),
(37,104,o),
(189,-14,o),
(332,-14,cs)
);
},
{
closed = 1;
nodes = (
(240,847,o),
(301,874,o),
(341,898,c),
(405,860,o),
(453,847,o),
(461,847,cs),
(469,847,o),
(472,855,o),
(472,864,cs),
(472,900,o),
(365,972,o),
(341,972,cs),
(319,972,o),
(211,901,o),
(211,860,cs),
(211,851,o),
(215,847,o),
(222,847,cs)
);
}
);
userData = {
assembly = "NPUSHB[ ]	/* 14 values pushed */
5 1 0 2 50 1 7 5 45 1 6 7 3 66
MPPEM[ ]	/* MeasurePixelPerEm */
PUSHB[ ]	/* 1 value pushed */
9
LT[ ]	/* LessThan */
IF[ ]	/* If */
NPUSHB[ ]	/* 52 values pushed */
0 2 0 4 2 94 1 10 2 0 4 0 106 0 9 6 8 6 9 8 104 0 7 7 4 83 0 4 4 20 67 0 6 6 5 83 0 5 5 12 67 0 8 8 3 83 0 3 3 21 3 68
ELSE[ ]	/* Else */
MPPEM[ ]	/* MeasurePixelPerEm */
PUSHB[ ]	/* 1 value pushed */
45
LT[ ]	/* LessThan */
IF[ ]	/* If */
NPUSHB[ ]	/* 51 values pushed */
0 2 0 2 106 1 10 2 0 4 0 106 0 9 6 8 6 9 8 104 0 7 7 4 83 0 4 4 20 67 0 6 6 5 83 0 5 5 12 67 0 8 8 3 83 0 3 3 21 3 68
ELSE[ ]	/* Else */
NPUSHB[ ]	/* 49 values pushed */
0 2 0 2 106 1 10 2 0 4 0 106 0 9 6 8 6 9 8 104 0 4 0 7 6 4 7 92 0 6 6 5 83 0 5 5 14 67 0 8 8 3 83 0 3 3 21 3 68
EIF[ ]	/* EndIf */
EIF[ ]	/* EndIf */
NPUSHB[ ]	/* 26 values pushed */
1 0 94 92 86 84 76 74 68 66 54 52 41 39 31 29 18 16 11 9 0 24 1 24 11 15
CALL[ ]	/* CallFunction */";
};
width = 646;
},
{
layerId = "E59D8378-1062-4241-9A8F-EEB295F00E05";
shapes = (
{
closed = 1;
nodes = (
(511,-14,o),
(584,126,o),
(584,214,cs),
(584,233,o),
(579,243,o),
(570,243,cs),
(556,243,o),
(556,213,o),
(553,197,cs),
(529,95,o),
(464,18,o),
(344,18,cs),
(171,18,o),
(86,192,o),
(86,404,cs),
(86,615,o),
(195,807,o),
(350,807,cs),
(481,807,o),
(529,677,o),
(529,532,cs),
(529,503,o),
(531,473,o),
(550,473,cs),
(567,473,o),
(569,488,o),
(569,507,cs),
(569,528,o),
(569,550,o),
(568,571,cs),
(567,592,o),
(567,613,o),
(567,634,cs),
(567,658,o),
(568,684,o),
(569,713,cs),
(570,741,o),
(571,767,o),
(571,790,cs),
(571,799,o),
(564,813,o),
(551,813,cs),
(538,813,o),
(532,805,o),
(532,788,c),
(532,788,o),
(534,751,o),
(537,702,c),
(514,761,o),
(458,838,o),
(349,838,cs),
(181,838,o),
(41,649,o),
(41,405,cs),
(41,104,o),
(193,-14,o),
(336,-14,cs)
);
},
{
closed = 1;
nodes = (
(245,875,o),
(316,908,o),
(347,928,c),
(401,890,o),
(469,875,o),
(467,875,cs),
(472,875,o),
(475,879,o),
(475,886,cs),
(475,911,o),
(373,972,o),
(347,972,cs),
(324,972,o),
(220,911,o),
(220,886,cs),
(220,879,o),
(223,875,o),
(228,875,cs)
);
}
);
userData = {
assembly = "NPUSHB[ ]	/* 11 values pushed */
5 1 0 2 49 44 2 6 7 2 66
MPPEM[ ]	/* MeasurePixelPerEm */
PUSHB[ ]	/* 1 value pushed */
9
LT[ ]	/* LessThan */
IF[ ]	/* If */
NPUSHB[ ]	/* 52 values pushed */
0 2 0 4 2 94 1 10 2 0 4 0 106 0 9 6 8 6 9 8 104 0 7 7 4 83 0 4 4 20 67 0 6 6 5 83 0 5 5 14 67 0 8 8 3 83 0 3 3 21 3 68
ELSE[ ]	/* Else */
MPPEM[ ]	/* MeasurePixelPerEm */
PUSHB[ ]	/* 1 value pushed */
45
LT[ ]	/* LessThan */
IF[ ]	/* If */
NPUSHB[ ]	/* 51 values pushed */
0 2 0 2 106 1 10 2 0 4 0 106 0 9 6 8 6 9 8 104 0 7 7 4 83 0 4 4 20 67 0 6 6 5 83 0 5 5 14 67 0 8 8 3 83 0 3 3 21 3 68
ELSE[ ]	/* Else */
NPUSHB[ ]	/* 49 values pushed */
0 2 0 2 106 1 10 2 0 4 0 106 0 9 6 8 6 9 8 104 0 4 0 7 6 4 7 92 0 6 6 5 83 0 5 5 14 67 0 8 8 3 83 0 3 3 21 3 68
EIF[ ]	/* EndIf */
EIF[ ]	/* EndIf */
NPUSHB[ ]	/* 26 values pushed */
1 0 92 90 82 80 72 70 64 62 52 50 40 38 30 28 18 16 11 9 0 23 1 23 11 15
CALL[ ]	/* CallFunction */";
};
width = 625;
}
);
note = Ccircumflex;
unicode = 264;
},
{
glyphname = Cdotaccent;
kernLeft = C;
kernRight = C;
lastChange = "2024-06-14 08:59:27 +0000";
layers = (
{
layerId = m01;
shapes = (
{
closed = 1;
nodes = (
(437,-14,o),
(512,24,o),
(560,73,cs),
(607,121,o),
(628,179,o),
(628,222,cs),
(628,243,o),
(616,253,o),
(592,253,cs),
(567,253,o),
(558,244,o),
(546,207,cs),
(512,104,o),
(453,66,o),
(337,66,cs),
(268,66,o),
(216,105,o),
(182,166,cs),
(148,227,o),
(130,312,o),
(130,404,cs),
(130,585,o),
(216,759,o),
(343,759,cs),
(472,759,o),
(519,638,o),
(522,524,cs),
(523,473,o),
(538,465,o),
(570,465,cs),
(603,465,o),
(613,481,o),
(613,513,cs),
(613,534,o),
(613,555,o),
(612,574,cs),
(611,593,o),
(611,613,o),
(611,634,cs),
(611,658,o),
(612,684,o),
(613,711,cs),
(614,738,o),
(615,764,o),
(615,787,cs),
(615,803,o),
(610,829,o),
(570,829,cs),
(538,829,o),
(532,812,o),
(532,793,cs),
(532,792,o),
(532,786,o),
(533,775,cs),
(533,764,o),
(534,742,o),
(536,707,c),
(513,767,o),
(450,838,o),
(342,838,cs),
(174,838,o),
(34,649,o),
(34,405,cs),
(34,104,o),
(186,-14,o),
(329,-14,cs)
);
},
{
closed = 1;
nodes = (
(373,840,o),
(410,855,o),
(410,910,cs),
(410,946,o),
(382,971,o),
(350,971,cs),
(302,971,o),
(284,933,o),
(284,906,cs),
(284,863,o),
(310,840,o),
(343,840,cs)
);
}
);
userData = {
assembly = "PUSHB[ ]	/* 6 values pushed */
20 1 3 4 1 66
MPPEM[ ]	/* MeasurePixelPerEm */
PUSHB[ ]	/* 1 value pushed */
27
LT[ ]	/* LessThan */
IF[ ]	/* If */
NPUSHB[ ]	/* 49 values pushed */
0 6 3 5 3 6 5 104 0 7 0 8 1 7 8 91 0 4 4 1 83 2 1 1 1 20 67 0 3 3 1 83 2 1 1 1 20 67 0 5 5 0 83 0 0 0 21 0 68
ELSE[ ]	/* Else */
MPPEM[ ]	/* MeasurePixelPerEm */
PUSHB[ ]	/* 1 value pushed */
45
LT[ ]	/* LessThan */
IF[ ]	/* If */
NPUSHB[ ]	/* 47 values pushed */
0 6 3 5 3 6 5 104 0 7 0 8 1 7 8 91 0 4 4 1 83 0 1 1 20 67 0 3 3 2 83 0 2 2 12 67 0 5 5 0 83 0 0 0 21 0 68
ELSE[ ]	/* Else */
NPUSHB[ ]	/* 43 values pushed */
0 6 3 5 3 6 5 104 0 7 0 8 1 7 8 91 0 1 0 4 3 1 4 91 0 2 0 3 6 2 3 91 0 5 5 0 83 0 0 0 21 0 68
EIF[ ]	/* EndIf */
EIF[ ]	/* EndIf */
NPUSHB[ ]	/* 11 values pushed */
38 37 38 40 38 44 41 40 36 9 24
CALL[ ]	/* CallFunction */";
};
width = 661;
},
{
layerId = "62092E79-60F6-4D0B-8A38-B9DDC6B60A9E";
shapes = (
{
closed = 1;
nodes = (
(432,-14,o),
(502,23,o),
(546,71,cs),
(590,119,o),
(610,176,o),
(610,219,cs),
(610,239,o),
(600,249,o),
(581,249,cs),
(557,249,o),
(554,230,o),
(549,203,cs),
(533,115,o),
(455,48,o),
(340,48,cs),
(188,48,o),
(112,206,o),
(112,404,cs),
(112,600,o),
(208,777,o),
(346,777,cs),
(477,777,o),
(525,659,o),
(525,527,cs),
(525,478,o),
(537,468,o),
(561,468,cs),
(590,468,o),
(595,490,o),
(595,502,cs),
(595,523,o),
(595,545,o),
(594,568,cs),
(593,591,o),
(593,613,o),
(593,634,cs),
(593,658,o),
(594,684,o),
(595,713,cs),
(596,741,o),
(597,767,o),
(597,790,cs),
(597,801,o),
(593,823,o),
(561,823,cs),
(537,823,o),
(528,804,o),
(528,788,c),
(528,788,o),
(530,751,o),
(533,702,c),
(510,761,o),
(454,838,o),
(345,838,cs),
(177,838,o),
(37,649,o),
(37,405,cs),
(37,104,o),
(189,-14,o),
(332,-14,cs)
);
},
{
closed = 1;
nodes = (
(370,859,o),
(401,872,o),
(401,920,cs),
(401,951,o),
(379,972,o),
(352,972,cs),
(310,972,o),
(296,936,o),
(296,916,cs),
(296,880,o),
(318,859,o),
(345,859,cs)
);
}
);
userData = {
assembly = "NPUSHB[ ]	/* 10 values pushed */
26 1 4 2 21 1 3 4 2 66
MPPEM[ ]	/* MeasurePixelPerEm */
PUSHB[ ]	/* 1 value pushed */
45
LT[ ]	/* LessThan */
IF[ ]	/* If */
NPUSHB[ ]	/* 47 values pushed */
0 6 3 5 3 6 5 104 0 7 0 8 1 7 8 91 0 4 4 1 83 0 1 1 20 67 0 3 3 2 83 0 2 2 12 67 0 5 5 0 83 0 0 0 21 0 68
ELSE[ ]	/* Else */
NPUSHB[ ]	/* 45 values pushed */
0 6 3 5 3 6 5 104 0 7 0 8 1 7 8 91 0 1 0 4 3 1 4 91 0 3 3 2 83 0 2 2 14 67 0 5 5 0 83 0 0 0 21 0 68
EIF[ ]	/* EndIf */
NPUSHB[ ]	/* 11 values pushed */
36 37 38 40 38 44 43 40 37 9 35
CALL[ ]	/* CallFunction */";
};
width = 646;
},
{
layerId = "E59D8378-1062-4241-9A8F-EEB295F00E05";
shapes = (
{
closed = 1;
nodes = (
(511,-14,o),
(584,126,o),
(584,214,cs),
(584,233,o),
(579,243,o),
(570,243,cs),
(556,243,o),
(556,213,o),
(553,197,cs),
(529,95,o),
(464,18,o),
(344,18,cs),
(171,18,o),
(86,192,o),
(86,404,cs),
(86,615,o),
(195,807,o),
(350,807,cs),
(481,807,o),
(529,677,o),
(529,532,cs),
(529,503,o),
(531,473,o),
(550,473,cs),
(567,473,o),
(569,488,o),
(569,507,cs),
(569,528,o),
(569,550,o),
(568,571,cs),
(567,592,o),
(567,613,o),
(567,634,cs),
(567,658,o),
(568,684,o),
(569,713,cs),
(570,741,o),
(571,767,o),
(571,790,cs),
(571,799,o),
(564,813,o),
(551,813,cs),
(538,813,o),
(532,805,o),
(532,788,c),
(532,788,o),
(534,751,o),
(537,702,c),
(514,761,o),
(458,838,o),
(349,838,cs),
(181,838,o),
(41,649,o),
(41,405,cs),
(41,104,o),
(193,-14,o),
(336,-14,cs)
);
},
{
closed = 1;
nodes = (
(367,889,o),
(389,899,o),
(389,935,cs),
(389,958,o),
(374,972,o),
(355,972,cs),
(327,972,o),
(314,945,o),
(314,931,cs),
(314,907,o),
(329,889,o),
(348,889,cs)
);
}
);
userData = {
assembly = "PUSHB[ ]	/* 7 values pushed */
25 20 2 3 4 1 66
MPPEM[ ]	/* MeasurePixelPerEm */
PUSHB[ ]	/* 1 value pushed */
45
LT[ ]	/* LessThan */
IF[ ]	/* If */
NPUSHB[ ]	/* 47 values pushed */
0 6 3 5 3 6 5 104 0 7 0 8 1 7 8 91 0 4 4 1 83 0 1 1 20 67 0 3 3 2 83 0 2 2 14 67 0 5 5 0 83 0 0 0 21 0 68
ELSE[ ]	/* Else */
NPUSHB[ ]	/* 45 values pushed */
0 6 3 5 3 6 5 104 0 7 0 8 1 7 8 91 0 1 0 4 3 1 4 91 0 3 3 2 83 0 2 2 14 67 0 5 5 0 83 0 0 0 21 0 68
EIF[ ]	/* EndIf */
NPUSHB[ ]	/* 11 values pushed */
36 37 40 40 38 42 42 40 36 9 24
CALL[ ]	/* CallFunction */";
};
width = 625;
}
);
note = Cdotaccent;
unicode = 266;
},
{
glyphname = D;
kernLeft = B;
kernRight = D;
lastChange = "2024-06-14 08:59:27 +0000";
layers = (
{
layerId = m01;
shapes = (
{
closed = 1;
nodes = (
(289,0,ls),
(552,0,o),
(682,200,o),
(682,439,cs),
(682,580,o),
(629,676,o),
(554,736,cs),
(479,796,o),
(383,821,o),
(299,821,cs),
(218,821,o),
(143,821,o),
(76,818,cs),
(53,817,o),
(41,800,o),
(41,776,cs),
(41,751,o),
(53,738,o),
(78,738,cs),
(107,738,o),
(132,731,o),
(132,696,cs),
(132,634,o),
(139,488,o),
(139,437,cs),
(139,364,o),
(139,303,o),
(139,254,cs),
(138,203,o),
(138,151,o),
(138,97,cs),
(138,89,o),
(134,83,o),
(125,80,cs),
(116,77,o),
(102,74,o),
(83,73,cs),
(56,70,o),
(41,62,o),
(41,31,cs),
(41,10,o),
(53,0,o),
(78,0,cs)
);
},
{
closed = 1;
nodes = (
(252,82,o),
(231,84,o),
(231,92,cs),
(231,734,l),
(241,735,o),
(251,736,o),
(262,737,cs),
(273,738,o),
(283,738,o),
(293,738,cs),
(499,738,o),
(586,601,o),
(586,439,cs),
(586,235,o),
(499,82,o),
(293,82,cs)
);
}
);
userData = {
assembly = "MPPEM[ ]	/* MeasurePixelPerEm */
PUSHB[ ]	/* 1 value pushed */
45
LT[ ]	/* LessThan */
IF[ ]	/* If */
NPUSHB[ ]	/* 24 values pushed */
4 6 3 3 2 2 0 83 0 0 0 12 67 0 5 5 1 83 0 1 1 13 1 68
ELSE[ ]	/* Else */
NPUSHB[ ]	/* 24 values pushed */
4 6 3 3 2 2 0 83 0 0 0 14 67 0 5 5 1 83 0 1 1 13 1 68
EIF[ ]	/* EndIf */
NPUSHB[ ]	/* 16 values pushed */
41 40 50 47 43 42 40 58 41 58 39 37 56 82 7 17
CALL[ ]	/* CallFunction */";
};
width = 715;
},
{
layerId = "62092E79-60F6-4D0B-8A38-B9DDC6B60A9E";
shapes = (
{
closed = 1;
nodes = (
(269,0,ls),
(532,0,o),
(662,200,o),
(662,439,cs),
(662,580,o),
(609,676,o),
(534,736,cs),
(459,796,o),
(363,821,o),
(279,821,cs),
(198,821,o),
(130,821,o),
(63,818,cs),
(48,817,o),
(42,805,o),
(42,794,cs),
(42,781,o),
(49,769,o),
(65,769,cs),
(103,769,o),
(133,766,o),
(133,727,cs),
(133,669,o),
(140,487,o),
(140,437,cs),
(140,361,o),
(140,296,o),
(140,241,cs),
(139,185,o),
(139,128,o),
(139,72,cs),
(139,48,o),
(94,48,o),
(70,48,cs),
(47,48,o),
(39,41,o),
(39,24,cs),
(39,7,o),
(52,0,o),
(75,0,cs)
);
},
{
closed = 1;
nodes = (
(232,64,o),
(211,66,o),
(211,74,cs),
(211,752,l),
(221,753,o),
(231,754,o),
(242,755,cs),
(253,756,o),
(263,756,o),
(273,756,cs),
(490,756,o),
(587,613,o),
(587,439,cs),
(587,223,o),
(491,64,o),
(273,64,cs)
);
}
);
userData = {
assembly = "MPPEM[ ]	/* MeasurePixelPerEm */
PUSHB[ ]	/* 1 value pushed */
45
LT[ ]	/* LessThan */
IF[ ]	/* If */
NPUSHB[ ]	/* 37 values pushed */
0 3 0 4 4 3 96 0 2 6 1 6 2 96 5 7 2 4 4 0 84 0 0 0 12 67 0 6 6 1 83 0 1 1 13 1 68
ELSE[ ]	/* Else */
NPUSHB[ ]	/* 37 values pushed */
0 3 0 4 4 3 96 0 2 6 1 6 2 96 5 7 2 4 4 0 84 0 0 0 14 67 0 6 6 1 83 0 1 1 13 1 68
EIF[ ]	/* EndIf */
NPUSHB[ ]	/* 17 values pushed */
47 46 56 53 49 48 46 64 47 64 41 39 52 56 64 8 18
CALL[ ]	/* CallFunction */";
};
width = 698;
},
{
layerId = "E59D8378-1062-4241-9A8F-EEB295F00E05";
shapes = (
{
closed = 1;
nodes = (
(241,0,ls),
(504,0,o),
(634,200,o),
(634,439,cs),
(634,580,o),
(581,676,o),
(506,736,cs),
(431,796,o),
(335,821,o),
(251,821,cs),
(170,821,o),
(112,821,o),
(45,818,cs),
(31,817,o),
(24,813,o),
(24,805,cs),
(24,798,o),
(30,789,o),
(47,789,cs),
(103,789,o),
(135,787,o),
(135,747,cs),
(135,676,o),
(142,506,o),
(142,437,cs),
(142,356,o),
(142,287,o),
(142,230,cs),
(141,171,o),
(141,111,o),
(141,52,cs),
(141,28,o),
(87,28,o),
(52,28,cs),
(41,28,o),
(33,27,o),
(28,24,cs),
(23,21,o),
(21,17,o),
(21,12,cs),
(21,7,o),
(24,3,o),
(31,2,cs),
(37,1,o),
(46,0,o),
(57,0,cs)
);
},
{
closed = 1;
nodes = (
(204,34,o),
(183,36,o),
(183,44,cs),
(183,782,l),
(193,783,o),
(203,784,o),
(214,785,cs),
(225,786,o),
(235,786,o),
(245,786,cs),
(484,786,o),
(589,630,o),
(589,439,cs),
(589,209,o),
(485,34,o),
(245,34,cs)
);
}
);
userData = {
assembly = "MPPEM[ ]	/* MeasurePixelPerEm */
PUSHB[ ]	/* 1 value pushed */
45
LT[ ]	/* LessThan */
IF[ ]	/* If */
NPUSHB[ ]	/* 38 values pushed */
0 5 3 6 3 5 96 0 2 6 1 6 2 96 8 4 2 3 3 0 83 7 1 0 0 12 67 0 6 6 1 83 0 1 1 13 1 68
ELSE[ ]	/* Else */
NPUSHB[ ]	/* 38 values pushed */
0 5 3 6 3 5 96 0 2 6 1 6 2 96 8 4 2 3 3 0 83 7 1 0 0 14 67 0 6 6 1 83 0 1 1 13 1 68
EIF[ ]	/* EndIf */
NPUSHB[ ]	/* 24 values pushed */
46 45 4 0 55 52 48 47 45 63 46 63 41 38 22 19 15 12 0 44 4 44 9 15
CALL[ ]	/* CallFunction */";
};
width = 674;
}
);
note = D;
unicode = 68;
},
{
glyphname = Dcaron;
kernLeft = B;
kernRight = D;
lastChange = "2024-06-14 08:59:27 +0000";
layers = (
{
layerId = m01;
shapes = (
{
closed = 1;
nodes = (
(289,0,ls),
(552,0,o),
(682,200,o),
(682,439,cs),
(682,580,o),
(629,676,o),
(554,736,cs),
(479,796,o),
(383,821,o),
(299,821,cs),
(218,821,o),
(143,821,o),
(76,818,cs),
(53,817,o),
(41,800,o),
(41,776,cs),
(41,751,o),
(53,738,o),
(78,738,cs),
(107,738,o),
(132,731,o),
(132,696,cs),
(132,634,o),
(139,488,o),
(139,437,cs),
(139,364,o),
(139,303,o),
(139,254,cs),
(138,203,o),
(138,151,o),
(138,97,cs),
(138,89,o),
(134,83,o),
(125,80,cs),
(116,77,o),
(102,74,o),
(83,73,cs),
(56,70,o),
(41,62,o),
(41,31,cs),
(41,10,o),
(53,0,o),
(78,0,cs)
);
},
{
closed = 1;
nodes = (
(252,82,o),
(231,84,o),
(231,92,cs),
(231,734,l),
(241,735,o),
(251,736,o),
(262,737,cs),
(273,738,o),
(283,738,o),
(293,738,cs),
(499,738,o),
(586,601,o),
(586,439,cs),
(586,235,o),
(499,82,o),
(293,82,cs)
);
},
{
closed = 1;
nodes = (
(346,830,o),
(456,909,o),
(456,951,cs),
(456,960,o),
(454,972,o),
(443,972,cs),
(426,972,o),
(364,952,o),
(323,922,c),
(286,949,o),
(223,972,o),
(204,972,cs),
(195,972,o),
(191,965,o),
(191,958,cs),
(191,931,o),
(219,901,o),
(250,875,cs),
(277,852,o),
(312,830,o),
(323,830,cs)
);
}
);
userData = {
assembly = "PUSHB[ ]	/* 6 values pushed */
21 1 1 0 1 66
MPPEM[ ]	/* MeasurePixelPerEm */
PUSHB[ ]	/* 1 value pushed */
45
LT[ ]	/* LessThan */
IF[ ]	/* If */
NPUSHB[ ]	/* 36 values pushed */
2 9 2 0 1 0 106 0 1 3 1 106 7 10 6 3 5 5 3 83 0 3 3 12 67 0 8 8 4 84 0 4 4 13 4 68
ELSE[ ]	/* Else */
NPUSHB[ ]	/* 36 values pushed */
2 9 2 0 1 0 106 0 1 3 1 106 7 10 6 3 5 5 3 83 0 3 3 14 67 0 8 8 4 84 0 4 4 13 4 68
EIF[ ]	/* EndIf */
NPUSHB[ ]	/* 28 values pushed */
67 66 1 0 76 73 69 68 66 84 67 84 65 63 44 41 33 28 17 15 9 7 0 25 1 25 11 15
CALL[ ]	/* CallFunction */";
};
width = 715;
},
{
layerId = "62092E79-60F6-4D0B-8A38-B9DDC6B60A9E";
shapes = (
{
closed = 1;
nodes = (
(269,0,ls),
(532,0,o),
(662,200,o),
(662,439,cs),
(662,580,o),
(609,676,o),
(534,736,cs),
(459,796,o),
(363,821,o),
(279,821,cs),
(198,821,o),
(130,821,o),
(63,818,cs),
(48,817,o),
(42,805,o),
(42,794,cs),
(42,781,o),
(49,769,o),
(65,769,cs),
(103,769,o),
(133,766,o),
(133,727,cs),
(133,669,o),
(140,487,o),
(140,437,cs),
(140,361,o),
(140,296,o),
(140,241,cs),
(139,185,o),
(139,128,o),
(139,72,cs),
(139,48,o),
(94,48,o),
(70,48,cs),
(47,48,o),
(39,41,o),
(39,24,cs),
(39,7,o),
(52,0,o),
(75,0,cs)
);
},
{
closed = 1;
nodes = (
(232,64,o),
(211,66,o),
(211,74,cs),
(211,752,l),
(221,753,o),
(231,754,o),
(242,755,cs),
(253,756,o),
(263,756,o),
(273,756,cs),
(490,756,o),
(587,613,o),
(587,439,cs),
(587,223,o),
(491,64,o),
(273,64,cs)
);
},
{
closed = 1;
nodes = (
(328,847,o),
(434,919,o),
(434,955,cs),
(434,964,o),
(431,972,o),
(423,972,cs),
(415,972,o),
(367,959,o),
(303,921,c),
(263,945,o),
(202,972,o),
(184,972,cs),
(177,972,o),
(173,968,o),
(173,959,cs),
(173,918,o),
(281,847,o),
(303,847,cs)
);
}
);
userData = {
assembly = "PUSHB[ ]	/* 6 values pushed */
20 1 1 0 1 66
MPPEM[ ]	/* MeasurePixelPerEm */
PUSHB[ ]	/* 1 value pushed */
45
LT[ ]	/* LessThan */
IF[ ]	/* If */
NPUSHB[ ]	/* 49 values pushed */
2 10 2 0 1 0 106 0 1 3 1 106 0 6 3 7 7 6 96 0 5 9 4 9 5 96 8 11 2 7 7 3 84 0 3 3 12 67 0 9 9 4 84 0 4 4 13 4 68
ELSE[ ]	/* Else */
NPUSHB[ ]	/* 49 values pushed */
2 10 2 0 1 0 106 0 1 3 1 106 0 6 3 7 7 6 96 0 5 9 4 9 5 96 8 11 2 7 7 3 84 0 3 3 14 67 0 9 9 4 84 0 4 4 13 4 68
EIF[ ]	/* EndIf */
NPUSHB[ ]	/* 30 values pushed */
72 71 1 0 81 78 74 73 71 89 72 89 66 64 47 44 40 37 29 25 16 14 9 7 0 24 1 24 12 15
CALL[ ]	/* CallFunction */";
};
width = 698;
},
{
layerId = "E59D8378-1062-4241-9A8F-EEB295F00E05";
shapes = (
{
closed = 1;
nodes = (
(241,0,ls),
(504,0,o),
(634,200,o),
(634,439,cs),
(634,580,o),
(581,676,o),
(506,736,cs),
(431,796,o),
(335,821,o),
(251,821,cs),
(170,821,o),
(112,821,o),
(45,818,cs),
(31,817,o),
(24,813,o),
(24,805,cs),
(24,798,o),
(30,789,o),
(47,789,cs),
(103,789,o),
(135,787,o),
(135,747,cs),
(135,676,o),
(142,506,o),
(142,437,cs),
(142,356,o),
(142,287,o),
(142,230,cs),
(141,171,o),
(141,111,o),
(141,52,cs),
(141,28,o),
(87,28,o),
(52,28,cs),
(41,28,o),
(33,27,o),
(28,24,cs),
(23,21,o),
(21,17,o),
(21,12,cs),
(21,7,o),
(24,3,o),
(31,2,cs),
(37,1,o),
(46,0,o),
(57,0,cs)
);
},
{
closed = 1;
nodes = (
(204,34,o),
(183,36,o),
(183,44,cs),
(183,782,l),
(193,783,o),
(203,784,o),
(214,785,cs),
(225,786,o),
(235,786,o),
(245,786,cs),
(484,786,o),
(589,630,o),
(589,439,cs),
(589,209,o),
(485,34,o),
(245,34,cs)
);
},
{
closed = 1;
nodes = (
(301,875,o),
(403,936,o),
(403,961,cs),
(403,968,o),
(400,972,o),
(395,972,cs),
(383,972,o),
(326,941,o),
(275,919,c),
(221,942,o),
(168,972,o),
(156,972,cs),
(151,972,o),
(148,968,o),
(148,961,cs),
(148,936,o),
(252,875,o),
(275,875,cs)
);
}
);
userData = {
assembly = "PUSHB[ ]	/* 6 values pushed */
19 1 1 0 1 66
MPPEM[ ]	/* MeasurePixelPerEm */
PUSHB[ ]	/* 1 value pushed */
45
LT[ ]	/* LessThan */
IF[ ]	/* If */
NPUSHB[ ]	/* 50 values pushed */
2 10 2 0 1 0 106 0 1 3 1 106 0 8 6 9 6 8 96 0 5 9 4 9 5 96 12 7 2 6 6 3 83 11 1 3 3 12 67 0 9 9 4 84 0 4 4 13 4 68
ELSE[ ]	/* Else */
NPUSHB[ ]	/* 50 values pushed */
2 10 2 0 1 0 106 0 1 3 1 106 0 8 6 9 6 8 96 0 5 9 4 9 5 96 12 7 2 6 6 3 83 11 1 3 3 14 67 0 9 9 4 84 0 4 4 13 4 68
EIF[ ]	/* EndIf */
NPUSHB[ ]	/* 34 values pushed */
70 69 28 24 1 0 79 76 72 71 69 87 70 87 65 62 46 43 39 36 24 68 28 68 15 13 8 6 0 23 1 23 13 15
CALL[ ]	/* CallFunction */";
};
width = 674;
}
);
note = Dcaron;
unicode = 270;
},
{
glyphname = Dcroat;
kernLeft = B;
kernRight = D;
lastChange = "2024-06-14 08:59:27 +0000";
layers = (
{
layerId = m01;
shapes = (
{
closed = 1;
nodes = (
(292,0,ls),
(555,0,o),
(685,200,o),
(685,439,cs),
(685,580,o),
(632,676,o),
(557,736,cs),
(482,796,o),
(386,821,o),
(302,821,cs),
(221,821,o),
(146,821,o),
(79,818,cs),
(56,817,o),
(44,800,o),
(44,776,cs),
(44,751,o),
(56,738,o),
(81,738,cs),
(110,738,o),
(135,731,o),
(135,696,cs),
(135,652,o),
(142,571,o),
(142,452,c),
(116,452,l),
(98,452,ls),
(75,452,o),
(65,426,o),
(65,409,cs),
(65,394,o),
(80,365,o),
(98,365,cs),
(141,365,l),
(141,97,ls),
(141,89,o),
(137,83,o),
(128,80,cs),
(119,77,o),
(105,74,o),
(86,73,cs),
(59,70,o),
(44,62,o),
(44,31,cs),
(44,10,o),
(56,0,o),
(81,0,cs)
);
},
{
closed = 1;
nodes = (
(255,82,o),
(234,84,o),
(234,92,cs),
(234,366,l),
(294,366,l),
(339,366,ls),
(367,366,o),
(375,398,o),
(375,412,cs),
(375,429,o),
(362,452,o),
(347,452,cs),
(297,452,l),
(234,452,l),
(234,734,l),
(296,734,ls),
(502,734,o),
(589,601,o),
(589,439,cs),
(589,235,o),
(502,82,o),
(296,82,cs)
);
}
);
userData = {
assembly = "MPPEM[ ]	/* MeasurePixelPerEm */
PUSHB[ ]	/* 1 value pushed */
20
LT[ ]	/* LessThan */
IF[ ]	/* If */
NPUSHB[ ]	/* 36 values pushed */
6 10 5 3 4 4 0 83 0 0 0 12 67 8 1 2 2 3 83 7 1 3 3 15 67 0 9 9 1 83 0 1 1 13 1 68
ELSE[ ]	/* Else */
MPPEM[ ]	/* MeasurePixelPerEm */
PUSHB[ ]	/* 1 value pushed */
45
LT[ ]	/* LessThan */
IF[ ]	/* If */
NPUSHB[ ]	/* 34 values pushed */
7 1 3 8 1 2 9 3 2 91 6 10 5 3 4 4 0 83 0 0 0 12 67 0 9 9 1 83 0 1 1 13 1 68
ELSE[ ]	/* Else */
NPUSHB[ ]	/* 34 values pushed */
7 1 3 8 1 2 9 3 2 91 6 10 5 3 4 4 0 83 0 0 0 14 67 0 9 9 1 83 0 1 1 13 1 68
EIF[ ]	/* EndIf */
EIF[ ]	/* EndIf */
NPUSHB[ ]	/* 21 values pushed */
53 52 77 74 70 66 60 56 55 54 52 85 53 85 39 70 44 56 82 11 20
CALL[ ]	/* CallFunction */";
};
width = 718;
},
{
layerId = "62092E79-60F6-4D0B-8A38-B9DDC6B60A9E";
shapes = (
{
closed = 1;
nodes = (
(271,0,ls),
(534,0,o),
(664,200,o),
(664,439,cs),
(664,580,o),
(611,676,o),
(536,736,cs),
(461,796,o),
(365,821,o),
(281,821,cs),
(200,821,o),
(132,821,o),
(65,818,cs),
(50,817,o),
(44,805,o),
(44,794,cs),
(44,781,o),
(51,769,o),
(67,769,cs),
(105,769,o),
(135,766,o),
(135,727,cs),
(135,670,o),
(142,499,o),
(142,443,c),
(77,443,ls),
(58,443,o),
(51,422,o),
(51,409,cs),
(51,397,o),
(62,374,o),
(77,374,cs),
(142,374,l),
(142,241,l),
(142,72,ls),
(142,48,o),
(96,48,o),
(72,48,cs),
(49,48,o),
(41,41,o),
(41,24,cs),
(41,7,o),
(54,0,o),
(77,0,cs)
);
},
{
closed = 1;
nodes = (
(234,64,o),
(213,66,o),
(213,74,cs),
(213,375,l),
(318,375,ls),
(339,375,o),
(347,400,o),
(347,412,cs),
(347,425,o),
(337,444,o),
(326,444,cs),
(213,444,l),
(213,752,l),
(275,752,ls),
(508,752,o),
(589,613,o),
(589,439,cs),
(589,223,o),
(493,64,o),
(275,64,cs)
);
}
);
userData = {
assembly = "MPPEM[ ]	/* MeasurePixelPerEm */
PUSHB[ ]	/* 1 value pushed */
20
LT[ ]	/* LessThan */
IF[ ]	/* If */
NPUSHB[ ]	/* 48 values pushed */
0 5 2 6 6 5 96 0 4 8 3 8 4 96 7 10 2 6 6 2 84 0 2 2 12 67 0 1 1 0 83 9 1 0 0 15 67 0 8 8 3 83 0 3 3 13 3 68
ELSE[ ]	/* Else */
MPPEM[ ]	/* MeasurePixelPerEm */
PUSHB[ ]	/* 1 value pushed */
45
LT[ ]	/* LessThan */
IF[ ]	/* If */
NPUSHB[ ]	/* 46 values pushed */
0 5 2 6 6 5 96 0 4 8 3 8 4 96 9 1 0 0 1 8 0 1 91 7 10 2 6 6 2 84 0 2 2 12 67 0 8 8 3 83 0 3 3 13 3 68
ELSE[ ]	/* Else */
NPUSHB[ ]	/* 46 values pushed */
0 5 2 6 6 5 96 0 4 8 3 8 4 96 9 1 0 0 1 8 0 1 91 7 10 2 6 6 2 84 0 2 2 14 67 0 8 8 3 83 0 3 3 13 3 68
EIF[ ]	/* EndIf */
EIF[ ]	/* EndIf */
NPUSHB[ ]	/* 28 values pushed */
74 73 1 0 83 80 76 75 73 91 74 91 68 66 49 46 42 39 31 27 14 7 0 26 1 18 11 15
CALL[ ]	/* CallFunction */";
};
width = 700;
},
{
layerId = "E59D8378-1062-4241-9A8F-EEB295F00E05";
shapes = (
{
closed = 1;
nodes = (
(241,0,ls),
(504,0,o),
(634,200,o),
(634,439,cs),
(634,580,o),
(581,676,o),
(506,736,cs),
(431,796,o),
(335,821,o),
(251,821,cs),
(170,821,o),
(112,821,o),
(45,818,cs),
(31,817,o),
(24,813,o),
(24,805,cs),
(24,798,o),
(30,789,o),
(47,789,cs),
(103,789,o),
(135,787,o),
(135,747,cs),
(135,676,o),
(142,506,o),
(142,437,cs),
(142,426,l),
(47,426,ls),
(36,426,o),
(31,416,o),
(31,409,cs),
(31,402,o),
(38,389,o),
(47,389,cs),
(141,389,l),
(141,52,ls),
(141,28,o),
(87,28,o),
(52,28,cs),
(41,28,o),
(33,27,o),
(28,24,cs),
(23,21,o),
(21,17,o),
(21,12,cs),
(21,7,o),
(24,3,o),
(31,2,cs),
(37,1,o),
(46,0,o),
(57,0,cs)
);
},
{
closed = 1;
nodes = (
(204,34,o),
(183,36,o),
(183,44,cs),
(183,389,l),
(243,389,l),
(288,389,ls),
(303,389,o),
(307,405,o),
(307,412,cs),
(307,419,o),
(301,426,o),
(296,426,cs),
(183,426,l),
(183,782,l),
(245,782,ls),
(484,782,o),
(589,630,o),
(589,439,cs),
(589,209,o),
(485,34,o),
(245,34,cs)
);
}
);
userData = {
assembly = "MPPEM[ ]	/* MeasurePixelPerEm */
PUSHB[ ]	/* 1 value pushed */
20
LT[ ]	/* LessThan */
IF[ ]	/* If */
NPUSHB[ ]	/* 50 values pushed */
0 7 5 4 5 7 96 0 2 10 1 10 2 96 12 6 2 5 5 0 83 11 1 0 0 12 67 9 1 3 3 4 83 8 1 4 4 15 67 0 10 10 1 83 0 1 1 13 1 68
ELSE[ ]	/* Else */
MPPEM[ ]	/* MeasurePixelPerEm */
PUSHB[ ]	/* 1 value pushed */
45
LT[ ]	/* LessThan */
IF[ ]	/* If */
NPUSHB[ ]	/* 48 values pushed */
0 7 5 4 5 7 96 0 2 10 1 10 2 96 8 1 4 9 1 3 10 4 3 91 12 6 2 5 5 0 83 11 1 0 0 12 67 0 10 10 1 83 0 1 1 13 1 68
ELSE[ ]	/* Else */
NPUSHB[ ]	/* 48 values pushed */
0 7 5 4 5 7 96 0 2 10 1 10 2 96 8 1 4 9 1 3 10 4 3 91 12 6 2 5 5 0 83 11 1 0 0 14 67 0 10 10 1 83 0 1 1 13 1 68
EIF[ ]	/* EndIf */
EIF[ ]	/* EndIf */
NPUSHB[ ]	/* 32 values pushed */
57 56 4 0 79 76 72 68 64 60 59 58 56 87 57 87 52 49 40 36 32 30 22 19 15 12 0 55 4 55 13 15
CALL[ ]	/* CallFunction */";
};
width = 674;
}
);
note = Dcroat;
unicode = 272;
},
{
glyphname = E;
kernLeft = B;
kernRight = AE;
lastChange = "2024-06-14 08:59:27 +0000";
layers = (
{
layerId = m01;
shapes = (
{
closed = 1;
nodes = (
(164,0,o),
(258,2,o),
(356,2,cs),
(397,2,o),
(436,2,o),
(475,1,cs),
(513,0,o),
(552,0,o),
(593,0,cs),
(626,0,o),
(632,5,o),
(635,33,cs),
(648,164,o),
(651,274,o),
(651,285,cs),
(651,308,o),
(632,318,o),
(613,318,cs),
(589,318,o),
(565,310,o),
(564,281,cs),
(559,201,o),
(555,183,o),
(551,121,cs),
(548,87,o),
(529,84,o),
(508,84,cs),
(230,84,l),
(230,377,l),
(280,377,o),
(267,379,o),
(318,379,cs),
(331,379,o),
(342,379,o),
(351,379,cs),
(360,378,o),
(367,378,o),
(372,378,cs),
(407,378,o),
(420,338,o),
(420,310,cs),
(420,293,o),
(426,275,o),
(461,275,cs),
(489,275,o),
(503,286,o),
(503,308,cs),
(503,323,o),
(503,341,o),
(502,361,cs),
(501,381,o),
(501,401,o),
(501,420,cs),
(501,439,o),
(501,458,o),
(502,476,cs),
(503,493,o),
(503,512,o),
(503,531,cs),
(503,563,o),
(483,570,o),
(460,570,cs),
(432,570,o),
(418,553,o),
(418,533,cs),
(418,512,o),
(417,464,o),
(401,464,cs),
(402,464,o),
(355,461,o),
(318,461,cs),
(284,461,o),
(265,462,o),
(230,464,c),
(230,737,l),
(482,737,ls),
(505,737,o),
(519,733,o),
(519,709,cs),
(519,637,ls),
(519,618,o),
(531,597,o),
(566,597,cs),
(595,597,o),
(607,607,o),
(607,643,cs),
(607,785,ls),
(607,813,o),
(598,821,o),
(579,821,cs),
(499,821,o),
(415,819,o),
(352,819,cs),
(296,819,o),
(200,821,o),
(94,821,cs),
(51,821,o),
(37,816,o),
(37,781,cs),
(37,758,o),
(60,747,o),
(93,747,cs),
(121,747,o),
(132,747,o),
(132,708,cs),
(132,606,o),
(138,543,o),
(138,425,cs),
(138,349,o),
(137,287,o),
(137,247,cs),
(137,205,o),
(136,158,o),
(136,109,cs),
(136,86,o),
(128,76,o),
(89,73,cs),
(61,72,o),
(38,62,o),
(38,33,cs),
(38,10,o),
(51,0,o),
(86,0,cs)
);
}
);
userData = {
assembly = "MPPEM[ ]	/* MeasurePixelPerEm */
PUSHB[ ]	/* 1 value pushed */
22
LT[ ]	/* LessThan */
IF[ ]	/* If */
NPUSHB[ ]	/* 10 values pushed */
75 1 7 8 127 1 2 9 2 66
ELSE[ ]	/* Else */
NPUSHB[ ]	/* 10 values pushed */
75 1 7 8 127 1 11 9 2 66
EIF[ ]	/* EndIf */
MPPEM[ ]	/* MeasurePixelPerEm */
PUSHB[ ]	/* 1 value pushed */
20
LT[ ]	/* LessThan */
IF[ ]	/* If */
NPUSHB[ ]	/* 58 values pushed */
0 5 3 8 3 5 8 104 12 1 0 10 9 10 0 9 104 0 8 0 9 2 8 9 91 6 1 3 3 4 83 0 4 4 12 67 0 10 10 7 83 0 7 7 23 67 11 1 2 2 1 84 0 1 1 13 1 68
ELSE[ ]	/* Else */
MPPEM[ ]	/* MeasurePixelPerEm */
PUSHB[ ]	/* 1 value pushed */
22
LT[ ]	/* LessThan */
IF[ ]	/* If */
NPUSHB[ ]	/* 56 values pushed */
0 5 3 8 3 5 8 104 12 1 0 10 9 10 0 9 104 0 7 0 10 0 7 10 91 0 8 0 9 2 8 9 91 6 1 3 3 4 83 0 4 4 12 67 11 1 2 2 1 84 0 1 1 13 1 68
ELSE[ ]	/* Else */
MPPEM[ ]	/* MeasurePixelPerEm */
PUSHB[ ]	/* 1 value pushed */
24
LT[ ]	/* LessThan */
IF[ ]	/* If */
NPUSHB[ ]	/* 62 values pushed */
0 5 3 8 3 5 8 104 12 1 0 10 9 10 0 9 104 0 2 11 1 11 2 96 0 7 0 10 0 7 10 91 0 8 0 9 11 8 9 91 6 1 3 3 4 83 0 4 4 12 67 0 11 11 1 84 0 1 1 13 1 68
ELSE[ ]	/* Else */
MPPEM[ ]	/* MeasurePixelPerEm */
PUSHB[ ]	/* 1 value pushed */
45
LT[ ]	/* LessThan */
IF[ ]	/* If */
NPUSHB[ ]	/* 68 values pushed */
0 3 4 6 6 3 96 0 5 6 8 6 5 8 104 12 1 0 10 9 10 0 9 104 0 2 11 1 11 2 96 0 7 0 10 0 7 10 91 0 8 0 9 11 8 9 91 0 6 6 4 84 0 4 4 12 67 0 11 11 1 84 0 1 1 13 1 68
ELSE[ ]	/* Else */
NPUSHB[ ]	/* 68 values pushed */
0 3 4 6 6 3 96 0 5 6 8 6 5 8 104 12 1 0 10 9 10 0 9 104 0 2 11 1 11 2 96 0 7 0 10 0 7 10 91 0 8 0 9 11 8 9 91 0 6 6 4 84 0 4 4 14 67 0 11 11 1 84 0 1 1 13 1 68
EIF[ ]	/* EndIf */
EIF[ ]	/* EndIf */
EIF[ ]	/* EndIf */
EIF[ ]	/* EndIf */
NPUSHB[ ]	/* 30 values pushed */
1 0 123 121 120 111 105 103 94 92 86 76 74 72 67 65 60 48 44 42 26 24 20 10 0 134 1 134 13 15
CALL[ ]	/* CallFunction */";
};
width = 684;
},
{
layerId = "62092E79-60F6-4D0B-8A38-B9DDC6B60A9E";
shapes = (
{
closed = 1;
nodes = (
(125,0,o),
(167,0,o),
(211,1,cs),
(254,2,o),
(296,2,o),
(337,2,cs),
(378,2,o),
(417,2,o),
(456,1,cs),
(494,0,o),
(533,0,o),
(574,0,cs),
(601,0,o),
(613,0,o),
(616,33,cs),
(627,142,o),
(632,292,o),
(632,282,cs),
(632,302,o),
(621,315,o),
(602,315,cs),
(585,315,o),
(567,306,o),
(566,278,cs),
(561,186,o),
(555,129,o),
(553,103,cs),
(550,69,o),
(531,66,o),
(510,66,cs),
(211,66,l),
(211,386,l),
(250,387,o),
(271,388,o),
(310,388,cs),
(325,388,o),
(338,388,o),
(348,388,cs),
(358,387,o),
(367,387,o),
(374,387,cs),
(413,387,o),
(422,334,o),
(422,306,cs),
(422,289,o),
(428,277,o),
(453,277,cs),
(470,277,o),
(484,281,o),
(484,304,cs),
(484,323,o),
(484,342,o),
(483,362,cs),
(482,381,o),
(482,401,o),
(482,420,cs),
(482,439,o),
(482,459,o),
(483,478,cs),
(484,497,o),
(484,516,o),
(484,535,cs),
(484,558,o),
(471,566,o),
(452,566,cs),
(428,566,o),
(420,547,o),
(420,532,cs),
(420,510,o),
(419,455,o),
(403,455,cs),
(404,455,o),
(353,452,o),
(310,452,cs),
(291,452,o),
(274,452,o),
(260,453,cs),
(246,454,o),
(230,454,o),
(211,455,c),
(211,755,l),
(484,755,ls),
(499,755,o),
(521,754,o),
(521,727,cs),
(521,640,ls),
(521,621,o),
(528,600,o),
(557,600,cs),
(580,600,o),
(588,614,o),
(588,646,cs),
(588,785,ls),
(588,813,o),
(579,821,o),
(560,821,cs),
(480,821,o),
(396,819,o),
(333,819,cs),
(279,819,o),
(185,821,o),
(82,821,cs),
(62,821,o),
(41,818,o),
(41,794,cs),
(41,777,o),
(58,769,o),
(81,769,cs),
(96,769,o),
(134,769,o),
(134,730,cs),
(134,618,o),
(140,561,o),
(140,425,cs),
(140,345,o),
(139,279,o),
(139,233,cs),
(139,186,o),
(138,136,o),
(138,84,cs),
(138,56,o),
(116,48,o),
(77,48,cs),
(50,48,o),
(38,42,o),
(38,21,cs),
(38,2,o),
(61,0,o),
(84,0,cs)
);
}
);
userData = {
assembly = "MPPEM[ ]	/* MeasurePixelPerEm */
PUSHB[ ]	/* 1 value pushed */
20
LT[ ]	/* LessThan */
IF[ ]	/* If */
NPUSHB[ ]	/* 70 values pushed */
0 3 4 6 6 3 96 0 5 6 8 6 5 8 104 12 1 0 10 9 10 0 9 104 0 2 11 1 11 2 96 0 8 0 9 11 8 9 91 0 6 6 4 84 0 4 4 12 67 0 10 10 7 83 0 7 7 15 67 0 11 11 1 84 0 1 1 13 1 68
ELSE[ ]	/* Else */
MPPEM[ ]	/* MeasurePixelPerEm */
PUSHB[ ]	/* 1 value pushed */
45
LT[ ]	/* LessThan */
IF[ ]	/* If */
NPUSHB[ ]	/* 68 values pushed */
0 3 4 6 6 3 96 0 5 6 8 6 5 8 104 12 1 0 10 9 10 0 9 104 0 2 11 1 11 2 96 0 7 0 10 0 7 10 91 0 8 0 9 11 8 9 91 0 6 6 4 84 0 4 4 12 67 0 11 11 1 84 0 1 1 13 1 68
ELSE[ ]	/* Else */
NPUSHB[ ]	/* 68 values pushed */
0 3 4 6 6 3 96 0 5 6 8 6 5 8 104 12 1 0 10 9 10 0 9 104 0 2 11 1 11 2 96 0 7 0 10 0 7 10 91 0 8 0 9 11 8 9 91 0 6 6 4 84 0 4 4 14 67 0 11 11 1 84 0 1 1 13 1 68
EIF[ ]	/* EndIf */
EIF[ ]	/* EndIf */
NPUSHB[ ]	/* 30 values pushed */
1 0 122 120 119 112 106 104 94 92 86 77 76 74 67 65 60 48 44 41 24 22 18 10 0 133 1 133 13 15
CALL[ ]	/* CallFunction */";
};
width = 667;
},
{
layerId = "E59D8378-1062-4241-9A8F-EEB295F00E05";
shapes = (
{
closed = 1;
nodes = (
(148,1,o),
(229,2,o),
(310,2,cs),
(351,2,o),
(390,2,o),
(429,1,cs),
(467,0,o),
(506,0,o),
(547,0,cs),
(574,0,o),
(586,0,o),
(589,33,cs),
(600,139,o),
(605,285,o),
(605,277,cs),
(605,293,o),
(605,310,o),
(586,310,cs),
(583,310,o),
(579,307,o),
(576,302,cs),
(572,296,o),
(570,286,o),
(569,273,cs),
(564,166,o),
(558,100,o),
(556,73,cs),
(553,39,o),
(534,36,o),
(513,36,cs),
(184,36,l),
(184,401,l),
(223,402,o),
(259,403,o),
(298,403,cs),
(317,403,o),
(333,403,o),
(345,403,cs),
(357,402,o),
(368,402,o),
(377,402,cs),
(417,402,o),
(425,346,o),
(425,309,cs),
(425,292,o),
(433,280,o),
(442,280,cs),
(445,280,o),
(448,282,o),
(452,285,cs),
(455,288,o),
(457,296,o),
(457,307,cs),
(457,326,o),
(457,344,o),
(456,363,cs),
(455,382,o),
(455,401,o),
(455,420,cs),
(455,439,o),
(455,458,o),
(456,477,cs),
(457,495,o),
(457,514,o),
(457,533,cs),
(457,548,o),
(456,560,o),
(440,560,cs),
(426,560,o),
(423,541,o),
(423,530,cs),
(423,471,o),
(417,440,o),
(406,440,cs),
(407,440,o),
(347,437,o),
(298,437,cs),
(279,437,o),
(260,437,o),
(241,438,cs),
(222,439,o),
(203,439,o),
(184,440,c),
(184,785,l),
(487,785,ls),
(500,785,o),
(524,782,o),
(524,757,cs),
(524,645,ls),
(524,626,o),
(524,605,o),
(544,605,cs),
(559,605,o),
(561,626,o),
(561,651,cs),
(561,785,ls),
(561,813,o),
(552,821,o),
(533,821,cs),
(453,821,o),
(369,819,o),
(306,819,cs),
(254,819,o),
(164,821,o),
(65,821,cs),
(45,821,o),
(24,819,o),
(24,804,cs),
(24,789,o),
(41,789,o),
(64,789,cs),
(93,789,o),
(137,788,o),
(137,750,cs),
(137,633,o),
(143,568,o),
(143,425,cs),
(143,340,o),
(142,270,o),
(142,222,cs),
(142,173,o),
(141,120,o),
(141,64,cs),
(141,50,o),
(135,41,o),
(124,36,cs),
(113,31,o),
(91,28,o),
(60,28,cs),
(47,28,o),
(37,27,o),
(31,25,cs),
(24,23,o),
(21,18,o),
(21,11,cs),
(21,0,o),
(47,0,o),
(67,0,cs)
);
}
);
userData = {
assembly = "MPPEM[ ]	/* MeasurePixelPerEm */
PUSHB[ ]	/* 1 value pushed */
20
LT[ ]	/* LessThan */
IF[ ]	/* If */
NPUSHB[ ]	/* 64 values pushed */
0 5 3 8 3 5 8 104 12 1 0 10 9 10 0 9 104 0 2 11 1 11 2 96 0 8 0 9 11 8 9 91 6 1 3 3 4 83 0 4 4 12 67 0 10 10 7 83 0 7 7 15 67 0 11 11 1 83 0 1 1 13 1 68
ELSE[ ]	/* Else */
MPPEM[ ]	/* MeasurePixelPerEm */
PUSHB[ ]	/* 1 value pushed */
45
LT[ ]	/* LessThan */
IF[ ]	/* If */
NPUSHB[ ]	/* 62 values pushed */
0 5 3 8 3 5 8 104 12 1 0 10 9 10 0 9 104 0 2 11 1 11 2 96 0 7 0 10 0 7 10 91 0 8 0 9 11 8 9 91 6 1 3 3 4 83 0 4 4 12 67 0 11 11 1 83 0 1 1 13 1 68
ELSE[ ]	/* Else */
NPUSHB[ ]	/* 62 values pushed */
0 5 3 8 3 5 8 104 12 1 0 10 9 10 0 9 104 0 2 11 1 11 2 96 0 7 0 10 0 7 10 91 0 8 0 9 11 8 9 91 6 1 3 3 4 83 0 4 4 14 67 0 11 11 1 83 0 1 1 13 1 68
EIF[ ]	/* EndIf */
EIF[ ]	/* EndIf */
NPUSHB[ ]	/* 30 values pushed */
1 0 122 120 119 112 106 104 94 92 84 75 74 72 67 65 60 48 44 41 24 22 18 10 0 133 1 133 13 15
CALL[ ]	/* CallFunction */";
};
width = 643;
}
);
note = E;
unicode = 69;
},
{
glyphname = Eacute;
kernLeft = B;
kernRight = AE;
lastChange = "2024-06-14 08:59:27 +0000";
layers = (
{
layerId = m01;
shapes = (
{
closed = 1;
nodes = (
(164,0,o),
(258,2,o),
(356,2,cs),
(397,2,o),
(436,2,o),
(475,1,cs),
(513,0,o),
(552,0,o),
(593,0,cs),
(626,0,o),
(632,5,o),
(635,33,cs),
(648,164,o),
(651,274,o),
(651,285,cs),
(651,308,o),
(632,318,o),
(613,318,cs),
(589,318,o),
(565,310,o),
(564,281,cs),
(559,201,o),
(555,183,o),
(551,121,cs),
(548,87,o),
(529,84,o),
(508,84,cs),
(230,84,l),
(230,377,l),
(280,377,o),
(267,379,o),
(318,379,cs),
(331,379,o),
(342,379,o),
(351,379,cs),
(360,378,o),
(367,378,o),
(372,378,cs),
(407,378,o),
(420,338,o),
(420,310,cs),
(420,293,o),
(426,275,o),
(461,275,cs),
(489,275,o),
(503,286,o),
(503,308,cs),
(503,323,o),
(503,341,o),
(502,361,cs),
(501,381,o),
(501,401,o),
(501,420,cs),
(501,439,o),
(501,458,o),
(502,476,cs),
(503,493,o),
(503,512,o),
(503,531,cs),
(503,563,o),
(483,570,o),
(460,570,cs),
(432,570,o),
(418,553,o),
(418,533,cs),
(418,512,o),
(417,464,o),
(401,464,cs),
(402,464,o),
(355,461,o),
(318,461,cs),
(284,461,o),
(265,462,o),
(230,464,c),
(230,737,l),
(482,737,ls),
(505,737,o),
(519,733,o),
(519,709,cs),
(519,637,ls),
(519,618,o),
(531,597,o),
(566,597,cs),
(595,597,o),
(607,607,o),
(607,643,cs),
(607,785,ls),
(607,813,o),
(598,821,o),
(579,821,cs),
(499,821,o),
(415,819,o),
(352,819,cs),
(296,819,o),
(200,821,o),
(94,821,cs),
(51,821,o),
(37,816,o),
(37,781,cs),
(37,758,o),
(60,747,o),
(93,747,cs),
(121,747,o),
(132,747,o),
(132,708,cs),
(132,606,o),
(138,543,o),
(138,425,cs),
(138,349,o),
(137,287,o),
(137,247,cs),
(137,205,o),
(136,158,o),
(136,109,cs),
(136,86,o),
(128,76,o),
(89,73,cs),
(61,72,o),
(38,62,o),
(38,33,cs),
(38,10,o),
(51,0,o),
(86,0,cs)
);
},
{
closed = 1;
nodes = (
(375,841,o),
(462,897,o),
(462,936,cs),
(462,953,o),
(448,972,o),
(421,972,cs),
(383,972,o),
(307,899,o),
(307,872,cs),
(307,856,o),
(322,841,o),
(342,841,cs)
);
}
);
userData = {
assembly = "MPPEM[ ]	/* MeasurePixelPerEm */
PUSHB[ ]	/* 1 value pushed */
22
LT[ ]	/* LessThan */
IF[ ]	/* If */
NPUSHB[ ]	/* 10 values pushed */
91 1 9 10 143 1 4 11 2 66
ELSE[ ]	/* Else */
NPUSHB[ ]	/* 10 values pushed */
91 1 9 10 143 1 13 11 2 66
EIF[ ]	/* EndIf */
MPPEM[ ]	/* MeasurePixelPerEm */
PUSHB[ ]	/* 1 value pushed */
20
LT[ ]	/* LessThan */
IF[ ]	/* If */
NPUSHB[ ]	/* 68 values pushed */
0 1 0 1 106 0 0 6 0 106 0 7 5 10 5 7 10 104 14 1 2 12 11 12 2 11 104 0 10 0 11 4 10 11 91 8 1 5 5 6 83 0 6 6 12 67 0 12 12 9 83 0 9 9 23 67 13 1 4 4 3 84 0 3 3 13 3 68
ELSE[ ]	/* Else */
MPPEM[ ]	/* MeasurePixelPerEm */
PUSHB[ ]	/* 1 value pushed */
22
LT[ ]	/* LessThan */
IF[ ]	/* If */
NPUSHB[ ]	/* 66 values pushed */
0 1 0 1 106 0 0 6 0 106 0 7 5 10 5 7 10 104 14 1 2 12 11 12 2 11 104 0 9 0 12 2 9 12 91 0 10 0 11 4 10 11 91 8 1 5 5 6 83 0 6 6 12 67 13 1 4 4 3 84 0 3 3 13 3 68
ELSE[ ]	/* Else */
MPPEM[ ]	/* MeasurePixelPerEm */
PUSHB[ ]	/* 1 value pushed */
24
LT[ ]	/* LessThan */
IF[ ]	/* If */
NPUSHB[ ]	/* 72 values pushed */
0 1 0 1 106 0 0 6 0 106 0 7 5 10 5 7 10 104 14 1 2 12 11 12 2 11 104 0 4 13 3 13 4 96 0 9 0 12 2 9 12 91 0 10 0 11 13 10 11 91 8 1 5 5 6 83 0 6 6 12 67 0 13 13 3 84 0 3 3 13 3 68
ELSE[ ]	/* Else */
MPPEM[ ]	/* MeasurePixelPerEm */
PUSHB[ ]	/* 1 value pushed */
45
LT[ ]	/* LessThan */
IF[ ]	/* If */
NPUSHB[ ]	/* 78 values pushed */
0 1 0 1 106 0 0 6 0 106 0 5 6 8 8 5 96 0 7 8 10 8 7 10 104 14 1 2 12 11 12 2 11 104 0 4 13 3 13 4 96 0 9 0 12 2 9 12 91 0 10 0 11 13 10 11 91 0 8 8 6 84 0 6 6 12 67 0 13 13 3 84 0 3 3 13 3 68
ELSE[ ]	/* Else */
NPUSHB[ ]	/* 78 values pushed */
0 1 0 1 106 0 0 6 0 106 0 5 6 8 8 5 96 0 7 8 10 8 7 10 104 14 1 2 12 11 12 2 11 104 0 4 13 3 13 4 96 0 9 0 12 2 9 12 91 0 10 0 11 13 10 11 91 0 8 8 6 84 0 6 6 14 67 0 13 13 3 84 0 3 3 13 3 68
EIF[ ]	/* EndIf */
EIF[ ]	/* EndIf */
EIF[ ]	/* EndIf */
EIF[ ]	/* EndIf */
NPUSHB[ ]	/* 32 values pushed */
17 16 139 137 136 127 121 119 110 108 102 92 90 88 83 81 76 64 60 58 42 40 36 26 16 150 17 150 38 36 15 17
CALL[ ]	/* CallFunction */";
};
width = 684;
},
{
layerId = "62092E79-60F6-4D0B-8A38-B9DDC6B60A9E";
shapes = (
{
closed = 1;
nodes = (
(125,0,o),
(167,0,o),
(211,1,cs),
(254,2,o),
(296,2,o),
(337,2,cs),
(378,2,o),
(417,2,o),
(456,1,cs),
(494,0,o),
(533,0,o),
(574,0,cs),
(601,0,o),
(613,0,o),
(616,33,cs),
(627,142,o),
(632,292,o),
(632,282,cs),
(632,302,o),
(621,315,o),
(602,315,cs),
(585,315,o),
(567,306,o),
(566,278,cs),
(561,186,o),
(555,129,o),
(553,103,cs),
(550,69,o),
(531,66,o),
(510,66,cs),
(211,66,l),
(211,386,l),
(250,387,o),
(271,388,o),
(310,388,cs),
(325,388,o),
(338,388,o),
(348,388,cs),
(358,387,o),
(367,387,o),
(374,387,cs),
(413,387,o),
(422,334,o),
(422,306,cs),
(422,289,o),
(428,277,o),
(453,277,cs),
(470,277,o),
(484,281,o),
(484,304,cs),
(484,323,o),
(484,342,o),
(483,362,cs),
(482,381,o),
(482,401,o),
(482,420,cs),
(482,439,o),
(482,459,o),
(483,478,cs),
(484,497,o),
(484,516,o),
(484,535,cs),
(484,558,o),
(471,566,o),
(452,566,cs),
(428,566,o),
(420,547,o),
(420,532,cs),
(420,510,o),
(419,455,o),
(403,455,cs),
(404,455,o),
(353,452,o),
(310,452,cs),
(291,452,o),
(274,452,o),
(260,453,cs),
(246,454,o),
(230,454,o),
(211,455,c),
(211,755,l),
(484,755,ls),
(499,755,o),
(521,754,o),
(521,727,cs),
(521,640,ls),
(521,621,o),
(528,600,o),
(557,600,cs),
(580,600,o),
(588,614,o),
(588,646,cs),
(588,785,ls),
(588,813,o),
(579,821,o),
(560,821,cs),
(480,821,o),
(396,819,o),
(333,819,cs),
(279,819,o),
(185,821,o),
(82,821,cs),
(62,821,o),
(41,818,o),
(41,794,cs),
(41,777,o),
(58,769,o),
(81,769,cs),
(96,769,o),
(134,769,o),
(134,730,cs),
(134,618,o),
(140,561,o),
(140,425,cs),
(140,345,o),
(139,279,o),
(139,233,cs),
(139,186,o),
(138,136,o),
(138,84,cs),
(138,56,o),
(116,48,o),
(77,48,cs),
(50,48,o),
(38,42,o),
(38,21,cs),
(38,2,o),
(61,0,o),
(84,0,cs)
);
},
{
closed = 1;
nodes = (
(341,854,o),
(429,908,o),
(429,941,cs),
(429,960,o),
(417,972,o),
(397,972,cs),
(368,972,o),
(291,904,o),
(291,877,cs),
(291,864,o),
(300,854,o),
(315,854,cs)
);
}
);
userData = {
assembly = "MPPEM[ ]	/* MeasurePixelPerEm */
PUSHB[ ]	/* 1 value pushed */
20
LT[ ]	/* LessThan */
IF[ ]	/* If */
NPUSHB[ ]	/* 80 values pushed */
0 1 0 1 106 0 0 6 0 106 0 5 6 8 8 5 96 0 7 8 10 8 7 10 104 14 1 2 12 11 12 2 11 104 0 4 13 3 13 4 96 0 10 0 11 13 10 11 91 0 8 8 6 84 0 6 6 12 67 0 12 12 9 83 0 9 9 15 67 0 13 13 3 84 0 3 3 13 3 68
ELSE[ ]	/* Else */
MPPEM[ ]	/* MeasurePixelPerEm */
PUSHB[ ]	/* 1 value pushed */
45
LT[ ]	/* LessThan */
IF[ ]	/* If */
NPUSHB[ ]	/* 78 values pushed */
0 1 0 1 106 0 0 6 0 106 0 5 6 8 8 5 96 0 7 8 10 8 7 10 104 14 1 2 12 11 12 2 11 104 0 4 13 3 13 4 96 0 9 0 12 2 9 12 91 0 10 0 11 13 10 11 91 0 8 8 6 84 0 6 6 12 67 0 13 13 3 84 0 3 3 13 3 68
ELSE[ ]	/* Else */
NPUSHB[ ]	/* 78 values pushed */
0 1 0 1 106 0 0 6 0 106 0 5 6 8 8 5 96 0 7 8 10 8 7 10 104 14 1 2 12 11 12 2 11 104 0 4 13 3 13 4 96 0 9 0 12 2 9 12 91 0 10 0 11 13 10 11 91 0 8 8 6 84 0 6 6 14 67 0 13 13 3 84 0 3 3 13 3 68
EIF[ ]	/* EndIf */
EIF[ ]	/* EndIf */
NPUSHB[ ]	/* 32 values pushed */
17 16 138 136 135 128 122 120 110 108 102 93 92 90 83 81 76 64 60 57 40 38 34 26 16 149 17 149 38 36 15 17
CALL[ ]	/* CallFunction */";
};
width = 667;
},
{
layerId = "E59D8378-1062-4241-9A8F-EEB295F00E05";
shapes = (
{
closed = 1;
nodes = (
(148,1,o),
(229,2,o),
(310,2,cs),
(351,2,o),
(390,2,o),
(429,1,cs),
(467,0,o),
(506,0,o),
(547,0,cs),
(574,0,o),
(586,0,o),
(589,33,cs),
(600,139,o),
(605,285,o),
(605,277,cs),
(605,293,o),
(605,310,o),
(586,310,cs),
(583,310,o),
(579,307,o),
(576,302,cs),
(572,296,o),
(570,286,o),
(569,273,cs),
(564,166,o),
(558,100,o),
(556,73,cs),
(553,39,o),
(534,36,o),
(513,36,cs),
(184,36,l),
(184,401,l),
(223,402,o),
(259,403,o),
(298,403,cs),
(317,403,o),
(333,403,o),
(345,403,cs),
(357,402,o),
(368,402,o),
(377,402,cs),
(417,402,o),
(425,346,o),
(425,309,cs),
(425,292,o),
(433,280,o),
(442,280,cs),
(445,280,o),
(448,282,o),
(452,285,cs),
(455,288,o),
(457,296,o),
(457,307,cs),
(457,326,o),
(457,344,o),
(456,363,cs),
(455,382,o),
(455,401,o),
(455,420,cs),
(455,439,o),
(455,458,o),
(456,477,cs),
(457,495,o),
(457,514,o),
(457,533,cs),
(457,548,o),
(456,560,o),
(440,560,cs),
(426,560,o),
(423,541,o),
(423,530,cs),
(423,471,o),
(417,440,o),
(406,440,cs),
(407,440,o),
(347,437,o),
(298,437,cs),
(279,437,o),
(260,437,o),
(241,438,cs),
(222,439,o),
(203,439,o),
(184,440,c),
(184,785,l),
(487,785,ls),
(500,785,o),
(524,782,o),
(524,757,cs),
(524,645,ls),
(524,626,o),
(524,605,o),
(544,605,cs),
(559,605,o),
(561,626,o),
(561,651,cs),
(561,785,ls),
(561,813,o),
(552,821,o),
(533,821,cs),
(453,821,o),
(369,819,o),
(306,819,cs),
(254,819,o),
(164,821,o),
(65,821,cs),
(45,821,o),
(24,819,o),
(24,804,cs),
(24,789,o),
(41,789,o),
(64,789,cs),
(93,789,o),
(137,788,o),
(137,750,cs),
(137,633,o),
(143,568,o),
(143,425,cs),
(143,340,o),
(142,270,o),
(142,222,cs),
(142,173,o),
(141,120,o),
(141,64,cs),
(141,50,o),
(135,41,o),
(124,36,cs),
(113,31,o),
(91,28,o),
(60,28,cs),
(47,28,o),
(37,27,o),
(31,25,cs),
(24,23,o),
(21,18,o),
(21,11,cs),
(21,0,o),
(47,0,o),
(67,0,cs)
);
},
{
closed = 1;
nodes = (
(292,875,o),
(382,928,o),
(382,950,cs),
(382,969,o),
(374,972,o),
(363,972,cs),
(343,972,o),
(268,911,o),
(268,886,cs),
(268,879,o),
(271,875,o),
(276,875,cs)
);
}
);
userData = {
assembly = "MPPEM[ ]	/* MeasurePixelPerEm */
PUSHB[ ]	/* 1 value pushed */
20
LT[ ]	/* LessThan */
IF[ ]	/* If */
NPUSHB[ ]	/* 74 values pushed */
0 1 0 1 106 0 0 6 0 106 0 7 5 10 5 7 10 104 14 1 2 12 11 12 2 11 104 0 4 13 3 13 4 96 0 10 0 11 13 10 11 91 8 1 5 5 6 83 0 6 6 12 67 0 12 12 9 83 0 9 9 15 67 0 13 13 3 83 0 3 3 13 3 68
ELSE[ ]	/* Else */
MPPEM[ ]	/* MeasurePixelPerEm */
PUSHB[ ]	/* 1 value pushed */
45
LT[ ]	/* LessThan */
IF[ ]	/* If */
NPUSHB[ ]	/* 72 values pushed */
0 1 0 1 106 0 0 6 0 106 0 7 5 10 5 7 10 104 14 1 2 12 11 12 2 11 104 0 4 13 3 13 4 96 0 9 0 12 2 9 12 91 0 10 0 11 13 10 11 91 8 1 5 5 6 83 0 6 6 12 67 0 13 13 3 83 0 3 3 13 3 68
ELSE[ ]	/* Else */
NPUSHB[ ]	/* 72 values pushed */
0 1 0 1 106 0 0 6 0 106 0 7 5 10 5 7 10 104 14 1 2 12 11 12 2 11 104 0 4 13 3 13 4 96 0 9 0 12 2 9 12 91 0 10 0 11 13 10 11 91 8 1 5 5 6 83 0 6 6 14 67 0 13 13 3 83 0 3 3 13 3 68
EIF[ ]	/* EndIf */
EIF[ ]	/* EndIf */
NPUSHB[ ]	/* 32 values pushed */
16 15 137 135 134 127 121 119 109 107 99 90 89 87 82 80 75 63 59 56 39 37 33 25 15 148 16 148 37 36 15 17
CALL[ ]	/* CallFunction */";
};
width = 643;
}
);
note = Eacute;
unicode = 201;
},
{
glyphname = Ebreve;
kernLeft = B;
kernRight = AE;
lastChange = "2024-06-14 08:59:27 +0000";
layers = (
{
layerId = m01;
shapes = (
{
closed = 1;
nodes = (
(164,0,o),
(258,2,o),
(356,2,cs),
(397,2,o),
(436,2,o),
(475,1,cs),
(513,0,o),
(552,0,o),
(593,0,cs),
(626,0,o),
(632,5,o),
(635,33,cs),
(648,164,o),
(651,274,o),
(651,285,cs),
(651,308,o),
(632,318,o),
(613,318,cs),
(589,318,o),
(565,310,o),
(564,281,cs),
(559,201,o),
(555,183,o),
(551,121,cs),
(548,87,o),
(529,84,o),
(508,84,cs),
(230,84,l),
(230,377,l),
(280,377,o),
(267,379,o),
(318,379,cs),
(331,379,o),
(342,379,o),
(351,379,cs),
(360,378,o),
(367,378,o),
(372,378,cs),
(407,378,o),
(420,338,o),
(420,310,cs),
(420,293,o),
(426,275,o),
(461,275,cs),
(489,275,o),
(503,286,o),
(503,308,cs),
(503,323,o),
(503,341,o),
(502,361,cs),
(501,381,o),
(501,401,o),
(501,420,cs),
(501,439,o),
(501,458,o),
(502,476,cs),
(503,493,o),
(503,512,o),
(503,531,cs),
(503,563,o),
(483,570,o),
(460,570,cs),
(432,570,o),
(418,553,o),
(418,533,cs),
(418,512,o),
(417,464,o),
(401,464,cs),
(402,464,o),
(355,461,o),
(318,461,cs),
(284,461,o),
(265,462,o),
(230,464,c),
(230,737,l),
(482,737,ls),
(505,737,o),
(519,733,o),
(519,709,cs),
(519,637,ls),
(519,618,o),
(531,597,o),
(566,597,cs),
(595,597,o),
(607,607,o),
(607,643,cs),
(607,785,ls),
(607,813,o),
(598,821,o),
(579,821,cs),
(499,821,o),
(415,819,o),
(352,819,cs),
(296,819,o),
(200,821,o),
(94,821,cs),
(51,821,o),
(37,816,o),
(37,781,cs),
(37,758,o),
(60,747,o),
(93,747,cs),
(121,747,o),
(132,747,o),
(132,708,cs),
(132,606,o),
(138,543,o),
(138,425,cs),
(138,349,o),
(137,287,o),
(137,247,cs),
(137,205,o),
(136,158,o),
(136,109,cs),
(136,86,o),
(128,76,o),
(89,73,cs),
(61,72,o),
(38,62,o),
(38,33,cs),
(38,10,o),
(51,0,o),
(86,0,cs)
);
},
{
closed = 1;
nodes = (
(431,862,o),
(500,889,o),
(500,941,cs),
(500,968,o),
(482,971,o),
(462,971,cs),
(445,971,o),
(430,957,o),
(430,942,cs),
(430,937,o),
(426,932,o),
(417,927,cs),
(408,922,o),
(393,919,o),
(374,919,cs),
(344,919,o),
(315,927,o),
(315,942,cs),
(315,965,o),
(302,971,o),
(279,971,cs),
(256,971,o),
(247,958,o),
(247,941,cs),
(247,898,o),
(292,862,o),
(379,862,cs)
);
}
);
userData = {
assembly = "MPPEM[ ]	/* MeasurePixelPerEm */
PUSHB[ ]	/* 1 value pushed */
22
LT[ ]	/* LessThan */
IF[ ]	/* If */
NPUSHB[ ]	/* 10 values pushed */
75 1 7 8 127 1 2 9 2 66
ELSE[ ]	/* Else */
NPUSHB[ ]	/* 10 values pushed */
75 1 7 8 127 1 11 9 2 66
EIF[ ]	/* EndIf */
MPPEM[ ]	/* MeasurePixelPerEm */
PUSHB[ ]	/* 1 value pushed */
20
LT[ ]	/* LessThan */
IF[ ]	/* If */
NPUSHB[ ]	/* 72 values pushed */
15 1 13 14 13 106 0 5 3 8 3 5 8 104 16 1 0 10 9 10 0 9 104 0 14 0 12 4 14 12 91 0 8 0 9 2 8 9 91 6 1 3 3 4 83 0 4 4 12 67 0 10 10 7 83 0 7 7 23 67 11 1 2 2 1 84 0 1 1 13 1 68
ELSE[ ]	/* Else */
MPPEM[ ]	/* MeasurePixelPerEm */
PUSHB[ ]	/* 1 value pushed */
22
LT[ ]	/* LessThan */
IF[ ]	/* If */
NPUSHB[ ]	/* 70 values pushed */
15 1 13 14 13 106 0 5 3 8 3 5 8 104 16 1 0 10 9 10 0 9 104 0 14 0 12 4 14 12 91 0 7 0 10 0 7 10 91 0 8 0 9 2 8 9 91 6 1 3 3 4 83 0 4 4 12 67 11 1 2 2 1 84 0 1 1 13 1 68
ELSE[ ]	/* Else */
MPPEM[ ]	/* MeasurePixelPerEm */
PUSHB[ ]	/* 1 value pushed */
24
LT[ ]	/* LessThan */
IF[ ]	/* If */
NPUSHB[ ]	/* 76 values pushed */
15 1 13 14 13 106 0 5 3 8 3 5 8 104 16 1 0 10 9 10 0 9 104 0 2 11 1 11 2 96 0 14 0 12 4 14 12 91 0 7 0 10 0 7 10 91 0 8 0 9 11 8 9 91 6 1 3 3 4 83 0 4 4 12 67 0 11 11 1 84 0 1 1 13 1 68
ELSE[ ]	/* Else */
MPPEM[ ]	/* MeasurePixelPerEm */
PUSHB[ ]	/* 1 value pushed */
45
LT[ ]	/* LessThan */
IF[ ]	/* If */
NPUSHB[ ]	/* 82 values pushed */
15 1 13 14 13 106 0 3 4 6 6 3 96 0 5 6 8 6 5 8 104 16 1 0 10 9 10 0 9 104 0 2 11 1 11 2 96 0 14 0 12 4 14 12 91 0 7 0 10 0 7 10 91 0 8 0 9 11 8 9 91 0 6 6 4 84 0 4 4 12 67 0 11 11 1 84 0 1 1 13 1 68
ELSE[ ]	/* Else */
NPUSHB[ ]	/* 82 values pushed */
15 1 13 14 13 106 0 3 4 6 6 3 96 0 5 6 8 6 5 8 104 16 1 0 10 9 10 0 9 104 0 2 11 1 11 2 96 0 14 0 12 4 14 12 91 0 7 0 10 0 7 10 91 0 8 0 9 11 8 9 91 0 6 6 4 84 0 4 4 14 67 0 11 11 1 84 0 1 1 13 1 68
EIF[ ]	/* EndIf */
EIF[ ]	/* EndIf */
EIF[ ]	/* EndIf */
EIF[ ]	/* EndIf */
NPUSHB[ ]	/* 38 values pushed */
1 0 161 159 155 153 147 145 141 139 123 121 120 111 105 103 94 92 86 76 74 72 67 65 60 48 44 42 26 24 20 10 0 134 1 134 17 15
CALL[ ]	/* CallFunction */";
};
width = 684;
},
{
layerId = "62092E79-60F6-4D0B-8A38-B9DDC6B60A9E";
shapes = (
{
closed = 1;
nodes = (
(125,0,o),
(167,0,o),
(211,1,cs),
(254,2,o),
(296,2,o),
(337,2,cs),
(378,2,o),
(417,2,o),
(456,1,cs),
(494,0,o),
(533,0,o),
(574,0,cs),
(601,0,o),
(613,0,o),
(616,33,cs),
(627,142,o),
(632,292,o),
(632,282,cs),
(632,302,o),
(621,315,o),
(602,315,cs),
(585,315,o),
(567,306,o),
(566,278,cs),
(561,186,o),
(555,129,o),
(553,103,cs),
(550,69,o),
(531,66,o),
(510,66,cs),
(211,66,l),
(211,386,l),
(250,387,o),
(271,388,o),
(310,388,cs),
(325,388,o),
(338,388,o),
(348,388,cs),
(358,387,o),
(367,387,o),
(374,387,cs),
(413,387,o),
(422,334,o),
(422,306,cs),
(422,289,o),
(428,277,o),
(453,277,cs),
(470,277,o),
(484,281,o),
(484,304,cs),
(484,323,o),
(484,342,o),
(483,362,cs),
(482,381,o),
(482,401,o),
(482,420,cs),
(482,439,o),
(482,459,o),
(483,478,cs),
(484,497,o),
(484,516,o),
(484,535,cs),
(484,558,o),
(471,566,o),
(452,566,cs),
(428,566,o),
(420,547,o),
(420,532,cs),
(420,510,o),
(419,455,o),
(403,455,cs),
(404,455,o),
(353,452,o),
(310,452,cs),
(291,452,o),
(274,452,o),
(260,453,cs),
(246,454,o),
(230,454,o),
(211,455,c),
(211,755,l),
(484,755,ls),
(499,755,o),
(521,754,o),
(521,727,cs),
(521,640,ls),
(521,621,o),
(528,600,o),
(557,600,cs),
(580,600,o),
(588,614,o),
(588,646,cs),
(588,785,ls),
(588,813,o),
(579,821,o),
(560,821,cs),
(480,821,o),
(396,819,o),
(333,819,cs),
(279,819,o),
(185,821,o),
(82,821,cs),
(62,821,o),
(41,818,o),
(41,794,cs),
(41,777,o),
(58,769,o),
(81,769,cs),
(96,769,o),
(134,769,o),
(134,730,cs),
(134,618,o),
(140,561,o),
(140,425,cs),
(140,345,o),
(139,279,o),
(139,233,cs),
(139,186,o),
(138,136,o),
(138,84,cs),
(138,56,o),
(116,48,o),
(77,48,cs),
(50,48,o),
(38,42,o),
(38,21,cs),
(38,2,o),
(61,0,o),
(84,0,cs)
);
},
{
closed = 1;
nodes = (
(409,865,o),
(475,892,o),
(475,944,cs),
(475,971,o),
(458,972,o),
(445,972,cs),
(430,972,o),
(419,960,o),
(419,945,cs),
(419,928,o),
(394,910,o),
(355,910,cs),
(325,910,o),
(290,919,o),
(290,945,cs),
(290,965,o),
(281,972,o),
(262,972,cs),
(245,972,o),
(236,963,o),
(236,944,cs),
(236,903,o),
(282,865,o),
(358,865,cs)
);
}
);
userData = {
assembly = "MPPEM[ ]	/* MeasurePixelPerEm */
PUSHB[ ]	/* 1 value pushed */
20
LT[ ]	/* LessThan */
IF[ ]	/* If */
NPUSHB[ ]	/* 84 values pushed */
15 1 13 14 13 106 0 3 4 6 6 3 96 0 5 6 8 6 5 8 104 16 1 0 10 9 10 0 9 104 0 2 11 1 11 2 96 0 14 0 12 4 14 12 91 0 8 0 9 11 8 9 91 0 6 6 4 84 0 4 4 12 67 0 10 10 7 83 0 7 7 15 67 0 11 11 1 84 0 1 1 13 1 68
ELSE[ ]	/* Else */
MPPEM[ ]	/* MeasurePixelPerEm */
PUSHB[ ]	/* 1 value pushed */
45
LT[ ]	/* LessThan */
IF[ ]	/* If */
NPUSHB[ ]	/* 82 values pushed */
15 1 13 14 13 106 0 3 4 6 6 3 96 0 5 6 8 6 5 8 104 16 1 0 10 9 10 0 9 104 0 2 11 1 11 2 96 0 14 0 12 4 14 12 91 0 7 0 10 0 7 10 91 0 8 0 9 11 8 9 91 0 6 6 4 84 0 4 4 12 67 0 11 11 1 84 0 1 1 13 1 68
ELSE[ ]	/* Else */
NPUSHB[ ]	/* 82 values pushed */
15 1 13 14 13 106 0 3 4 6 6 3 96 0 5 6 8 6 5 8 104 16 1 0 10 9 10 0 9 104 0 2 11 1 11 2 96 0 14 0 12 4 14 12 91 0 7 0 10 0 7 10 91 0 8 0 9 11 8 9 91 0 6 6 4 84 0 4 4 14 67 0 11 11 1 84 0 1 1 13 1 68
EIF[ ]	/* EndIf */
EIF[ ]	/* EndIf */
NPUSHB[ ]	/* 38 values pushed */
2 1 160 158 154 152 146 144 141 139 123 121 120 113 107 105 95 93 87 78 77 75 68 66 61 49 45 42 25 23 19 11 1 134 2 134 17 26
CALL[ ]	/* CallFunction */";
};
width = 667;
},
{
layerId = "E59D8378-1062-4241-9A8F-EEB295F00E05";
shapes = (
{
closed = 1;
nodes = (
(148,1,o),
(229,2,o),
(310,2,cs),
(351,2,o),
(390,2,o),
(429,1,cs),
(467,0,o),
(506,0,o),
(547,0,cs),
(574,0,o),
(586,0,o),
(589,33,cs),
(600,139,o),
(605,285,o),
(605,277,cs),
(605,293,o),
(605,310,o),
(586,310,cs),
(583,310,o),
(579,307,o),
(576,302,cs),
(572,296,o),
(570,286,o),
(569,273,cs),
(564,166,o),
(558,100,o),
(556,73,cs),
(553,39,o),
(534,36,o),
(513,36,cs),
(184,36,l),
(184,401,l),
(223,402,o),
(259,403,o),
(298,403,cs),
(317,403,o),
(333,403,o),
(345,403,cs),
(357,402,o),
(368,402,o),
(377,402,cs),
(417,402,o),
(425,346,o),
(425,309,cs),
(425,292,o),
(433,280,o),
(442,280,cs),
(445,280,o),
(448,282,o),
(452,285,cs),
(455,288,o),
(457,296,o),
(457,307,cs),
(457,326,o),
(457,344,o),
(456,363,cs),
(455,382,o),
(455,401,o),
(455,420,cs),
(455,439,o),
(455,458,o),
(456,477,cs),
(457,495,o),
(457,514,o),
(457,533,cs),
(457,548,o),
(456,560,o),
(440,560,cs),
(426,560,o),
(423,541,o),
(423,530,cs),
(423,471,o),
(417,440,o),
(406,440,cs),
(407,440,o),
(347,437,o),
(298,437,cs),
(279,437,o),
(260,437,o),
(241,438,cs),
(222,439,o),
(203,439,o),
(184,440,c),
(184,785,l),
(487,785,ls),
(500,785,o),
(524,782,o),
(524,757,cs),
(524,645,ls),
(524,626,o),
(524,605,o),
(544,605,cs),
(559,605,o),
(561,626,o),
(561,651,cs),
(561,785,ls),
(561,813,o),
(552,821,o),
(533,821,cs),
(453,821,o),
(369,819,o),
(306,819,cs),
(254,819,o),
(164,821,o),
(65,821,cs),
(45,821,o),
(24,819,o),
(24,804,cs),
(24,789,o),
(41,789,o),
(64,789,cs),
(93,789,o),
(137,788,o),
(137,750,cs),
(137,633,o),
(143,568,o),
(143,425,cs),
(143,340,o),
(142,270,o),
(142,222,cs),
(142,173,o),
(141,120,o),
(141,64,cs),
(141,50,o),
(135,41,o),
(124,36,cs),
(113,31,o),
(91,28,o),
(60,28,cs),
(47,28,o),
(37,27,o),
(31,25,cs),
(24,23,o),
(21,18,o),
(21,11,cs),
(21,0,o),
(47,0,o),
(67,0,cs)
);
},
{
closed = 1;
nodes = (
(381,875,o),
(439,899,o),
(439,948,cs),
(439,969,o),
(431,972,o),
(420,972,cs),
(409,972,o),
(403,964,o),
(403,949,cs),
(403,922,o),
(364,900,o),
(328,900,cs),
(286,900,o),
(254,910,o),
(254,949,cs),
(254,965,o),
(252,972,o),
(237,972,cs),
(226,972,o),
(220,964,o),
(220,948,cs),
(220,908,o),
(268,875,o),
(328,875,cs)
);
}
);
userData = {
assembly = "MPPEM[ ]	/* MeasurePixelPerEm */
PUSHB[ ]	/* 1 value pushed */
20
LT[ ]	/* LessThan */
IF[ ]	/* If */
NPUSHB[ ]	/* 78 values pushed */
3 1 1 2 1 106 0 9 7 12 7 9 12 104 16 1 4 14 13 14 4 13 104 0 6 15 5 15 6 96 0 2 0 0 8 2 0 91 0 12 0 13 15 12 13 91 10 1 7 7 8 83 0 8 8 12 67 0 14 14 11 83 0 11 11 15 67 0 15 15 5 83 0 5 5 13 5 68
ELSE[ ]	/* Else */
MPPEM[ ]	/* MeasurePixelPerEm */
PUSHB[ ]	/* 1 value pushed */
45
LT[ ]	/* LessThan */
IF[ ]	/* If */
NPUSHB[ ]	/* 76 values pushed */
3 1 1 2 1 106 0 9 7 12 7 9 12 104 16 1 4 14 13 14 4 13 104 0 6 15 5 15 6 96 0 2 0 0 8 2 0 91 0 11 0 14 4 11 14 91 0 12 0 13 15 12 13 91 10 1 7 7 8 83 0 8 8 12 67 0 15 15 5 83 0 5 5 13 5 68
ELSE[ ]	/* Else */
NPUSHB[ ]	/* 76 values pushed */
3 1 1 2 1 106 0 9 7 12 7 9 12 104 16 1 4 14 13 14 4 13 104 0 6 15 5 15 6 96 0 2 0 0 8 2 0 91 0 11 0 14 4 11 14 91 0 12 0 13 15 12 13 91 10 1 7 7 8 83 0 8 8 14 67 0 15 15 5 83 0 5 5 13 5 68
EIF[ ]	/* EndIf */
EIF[ ]	/* EndIf */
NPUSHB[ ]	/* 34 values pushed */
29 28 150 148 147 140 134 132 122 120 112 103 102 100 95 93 88 76 72 69 52 50 46 38 28 161 29 161 37 38 35 36 17 19
CALL[ ]	/* CallFunction */";
};
width = 643;
}
);
note = Ebreve;
unicode = 276;
},
